<?xml version="1.0" encoding="UTF-8" standalone="no"?>
<!DOCTYPE svg PUBLIC "-//W3C//DTD SVG 1.1//EN" "http://www.w3.org/Graphics/SVG/1.1/DTD/svg11.dtd">
<svg width="100%" height="100%" viewBox="0 0 399 60" version="1.1" xmlns="http://www.w3.org/2000/svg" xmlns:xlink="http://www.w3.org/1999/xlink" xml:space="preserve" xmlns:serif="http://www.serif.com/" style="fill-rule:evenodd;clip-rule:evenodd;stroke-linejoin:round;stroke-miterlimit:1.41421;">
    <g transform="matrix(0.497795,0,0,0.695791,9.28615,-225.975)">
        <rect x="558.496" y="376.473" width="53.066" height="28.807" style="fill:rgb(208,227,237);"/>
    </g>
    <g transform="matrix(0.438599,0,0,0.781981,11.1499,-278.967)">
        <rect x="558.496" y="376.473" width="53.066" height="28.807" style="fill:rgb(143,218,148);"/>
    </g>
    <g transform="matrix(3.75987,0,0,0.160972,-2099.87,-5.8776)">
        <rect x="558.496" y="376.473" width="53.066" height="28.807" style="fill:rgb(208,237,210);"/>
    </g>
    <g transform="matrix(3.69523,0,0,0.160972,-1860.91,-5.8776)">
        <rect x="558.496" y="376.473" width="53.066" height="28.807" style="fill:rgb(208,227,237);"/>
    </g>
    <g transform="matrix(0.386854,0,0,0.448865,139.051,-146.794)">
        <rect x="558.496" y="376.473" width="53.066" height="28.807" style="fill:rgb(112,180,215);"/>
    </g>
    <g transform="matrix(0.217797,0,0,0.369551,207.765,-139.126)">
        <rect x="558.496" y="376.473" width="53.066" height="28.807" style="fill:rgb(143,218,148);"/>
    </g>
    <g transform="matrix(0.319902,0,0,0.591629,163.429,-191.226)">
        <rect x="558.496" y="376.473" width="53.066" height="28.807" style="fill:rgb(208,237,210);"/>
    </g>
    <g transform="matrix(0.164013,0,0,0.303326,225.062,-83.6715)">
        <rect x="558.496" y="376.473" width="53.066" height="28.807" style="fill:rgb(208,237,210);"/>
    </g>
</svg>
