<?xml version="1.0" encoding="UTF-8" standalone="no"?>
<!DOCTYPE svg PUBLIC "-//W3C//DTD SVG 1.1//EN" "http://www.w3.org/Graphics/SVG/1.1/DTD/svg11.dtd">
<svg width="100%" height="100%" viewBox="0 0 181 55" version="1.1" xmlns="http://www.w3.org/2000/svg" xmlns:xlink="http://www.w3.org/1999/xlink" xml:space="preserve" xmlns:serif="http://www.serif.com/" style="fill-rule:evenodd;clip-rule:evenodd;stroke-linejoin:round;stroke-miterlimit:2;">
    <g transform="matrix(-0.408031,0,0,0.522807,249.536,-175.794)">
        <rect x="558.496" y="376.473" width="53.066" height="28.807" style="fill:rgb(143,218,148);"/>
    </g>
    <g transform="matrix(-2.67764,0,0,0.522807,1676.4,-191.337)">
        <rect x="558.496" y="376.473" width="53.066" height="28.807" style="fill:rgb(143,218,148);"/>
    </g>
    <g transform="matrix(1,0,0,1,-928.804,-725.895)">
        <circle cx="955.104" cy="744.475" r="18.579" style="fill:rgb(208,237,210);"/>
    </g>
    <g transform="matrix(0.485444,0,0,0.507874,51.6435,16.7612)">
        <text x="0px" y="0px" style="font-family:'Arial-BoldMT', 'Arial', sans-serif;font-weight:700;font-size:22.081px;fill:white;">Graphic Design</text>
    </g>
    <g transform="matrix(0.363326,0,0,0.363326,-131.804,-122.041)">
        <g transform="matrix(0.955835,0,0,1,489.164,413.54)">
            <text x="0px" y="0px" style="font-family:'ArialMT', 'Arial', sans-serif;font-size:22.081px;fill:rgb(59,106,180);">I love drawing and painting, and</text>
        </g>
        <g transform="matrix(0.955835,0,0,1,489.164,436.343)">
            <text x="0px" y="0px" style="font-family:'ArialMT', 'Arial', sans-serif;font-size:22.081px;fill:rgb(59,106,180);">likewise I enjoy making beautiful</text>
        </g>
        <g transform="matrix(0.955835,0,0,1,489.164,459.147)">
            <text x="0px" y="0px" style="font-family:'ArialMT', 'Arial', sans-serif;font-size:22.081px;fill:rgb(59,106,180);">designs in both vector and raster<tspan x="319.139px " y="0px ">.</tspan></text>
        </g>
    </g>
</svg>
