<?xml version="1.0" encoding="UTF-8" standalone="no"?>
<!DOCTYPE svg PUBLIC "-//W3C//DTD SVG 1.1//EN" "http://www.w3.org/Graphics/SVG/1.1/DTD/svg11.dtd">
<svg width="100%" height="100%" viewBox="0 0 196 49" version="1.1" xmlns="http://www.w3.org/2000/svg" xmlns:xlink="http://www.w3.org/1999/xlink" xml:space="preserve" xmlns:serif="http://www.serif.com/" style="fill-rule:evenodd;clip-rule:evenodd;stroke-linejoin:round;stroke-miterlimit:1.41421;">
    <g transform="matrix(0.773745,0,0,0.691228,-316.097,-231.523)">
        <rect x="558.496" y="376.473" width="53.066" height="28.807" style="fill:rgb(208,227,237);"/>
    </g>
    <g transform="matrix(0.537555,0,0,0.466667,-146.989,-170.431)">
        <rect x="558.496" y="376.473" width="53.066" height="28.807" style="fill:rgb(208,237,210);"/>
    </g>
    <g transform="matrix(0.171841,0,0,0.256141,90.0098,-96.43)">
        <rect x="558.496" y="376.473" width="53.066" height="28.807" style="fill:rgb(208,227,237);"/>
    </g>
    <g transform="matrix(2.2366,0,0,1,-1234.98,-365.961)">
        <rect x="558.496" y="376.473" width="53.066" height="28.807" style="fill:rgb(143,218,148);"/>
    </g>
    <g transform="matrix(0.569408,0,0,0.595718,-240.015,-204.596)">
        <text x="474.051px" y="398.584px" style="font-family:'Arial-BoldMT', 'Arial', sans-serif;font-weight:700;font-size:37.066px;fill:white;">My skills</text>
    </g>
    <g transform="matrix(0.408031,0,0,0.522807,-227.884,-194.3)">
        <rect x="558.496" y="376.473" width="53.066" height="28.807" style="fill:rgb(208,237,210);"/>
    </g>
</svg>
