<?xml version="1.0" encoding="UTF-8" standalone="no"?>
<!DOCTYPE svg PUBLIC "-//W3C//DTD SVG 1.1//EN" "http://www.w3.org/Graphics/SVG/1.1/DTD/svg11.dtd">
<svg width="100%" height="100%" viewBox="0 0 167 122" version="1.1" xmlns="http://www.w3.org/2000/svg" xmlns:xlink="http://www.w3.org/1999/xlink" xml:space="preserve" xmlns:serif="http://www.serif.com/" style="fill-rule:evenodd;clip-rule:evenodd;stroke-linejoin:round;stroke-miterlimit:1.41421;">
    <g transform="matrix(1.05774,0,0,0.71875,-1479.17,-552.715)">
        <rect x="1398.43" y="768.994" width="157.257" height="19.429" style="fill:rgb(143,218,148);"/>
    </g>
    <g transform="matrix(0.658115,0,0,0.688524,-921.007,-527.132)">
        <text x="1403.79px" y="779.86px" style="font-family:'Arial-BoldMT', 'Arial', sans-serif;font-weight:700;font-size:12.507px;fill:white;">W<tspan x="1415.48px 1418.95px " y="779.86px 779.86px ">ir</tspan>eframing and storyboarding - 100%</text>
    </g>
    <g transform="matrix(0.964275,0,0,0.71875,-1348.47,-535.306)">
        <rect x="1398.43" y="768.994" width="157.257" height="19.429" style="fill:rgb(143,218,148);"/>
    </g>
    <g transform="matrix(0.658115,0,0,0.688524,-921.007,-509.723)">
        <text x="1403.79px" y="779.86px" style="font-family:'Arial-BoldMT', 'Arial', sans-serif;font-weight:700;font-size:12.507px;fill:white;">Adobe XD - 95%</text>
    </g>
    <g transform="matrix(0.798616,0,0,0.71875,-1116.81,-516.156)">
        <rect x="1398.43" y="768.994" width="157.257" height="19.429" style="fill:rgb(143,218,148);"/>
    </g>
    <g transform="matrix(0.658115,0,0,0.688524,-921.007,-490.574)">
        <text x="1403.79px" y="779.86px" style="font-family:'Arial-BoldMT', 'Arial', sans-serif;font-weight:700;font-size:12.507px;fill:white;">Afﬁnity Designer - 90%</text>
    </g>
    <g transform="matrix(0.686258,0,0,0.71875,-959.683,-498.499)">
        <rect x="1398.43" y="768.994" width="157.257" height="19.429" style="fill:rgb(143,218,148);"/>
    </g>
    <g transform="matrix(0.658115,0,0,0.688524,-921.007,-472.916)">
        <text x="1403.79px" y="779.86px" style="font-family:'Arial-BoldMT', 'Arial', sans-serif;font-weight:700;font-size:12.507px;fill:white;">GIT - 85%</text>
    </g>
    <g transform="matrix(0.683881,0,0,0.71875,-956.358,-481.339)">
        <rect x="1398.43" y="768.994" width="157.257" height="19.429" style="fill:rgb(143,218,148);"/>
    </g>
    <g transform="matrix(0.658115,0,0,0.688524,-921.007,-455.756)">
        <text x="1403.79px" y="779.86px" style="font-family:'Arial-BoldMT', 'Arial', sans-serif;font-weight:700;font-size:12.507px;fill:white;">V<tspan x="1411.89px 1415.37px " y="779.86px 779.86px ">is</tspan>ual Studio code - 85%</text>
    </g>
    <g transform="matrix(0.541549,0,0,0.71875,-757.317,-463.93)">
        <rect x="1398.43" y="768.994" width="157.257" height="19.429" style="fill:rgb(143,218,148);"/>
    </g>
    <g transform="matrix(0.658115,0,0,0.688524,-921.007,-438.348)">
        <text x="1403.79px" y="779.86px" style="font-family:'Arial-BoldMT', 'Arial', sans-serif;font-weight:700;font-size:12.507px;fill:white;">V<tspan x="1411.89px 1415.37px " y="779.86px 779.86px ">is</tspan>ual Studio - 70%</text>
    </g>
    <g transform="matrix(0.422148,0,0,0.71875,-590.344,-445.589)">
        <rect x="1398.43" y="768.994" width="157.257" height="19.429" style="fill:rgb(143,218,148);"/>
    </g>
    <g transform="matrix(0.658115,0,0,0.688524,-921.007,-420.006)">
        <text x="1403.79px" y="779.86px" style="font-family:'Arial-BoldMT', 'Arial', sans-serif;font-weight:700;font-size:12.507px;fill:white;">Blender - 50%</text>
    </g>
</svg>
