<?xml version="1.0" encoding="UTF-8" standalone="no"?>
<!DOCTYPE svg PUBLIC "-//W3C//DTD SVG 1.1//EN" "http://www.w3.org/Graphics/SVG/1.1/DTD/svg11.dtd">
<svg width="100%" height="100%" viewBox="0 0 129 176" version="1.1" xmlns="http://www.w3.org/2000/svg" xmlns:xlink="http://www.w3.org/1999/xlink" xml:space="preserve" xmlns:serif="http://www.serif.com/" style="fill-rule:evenodd;clip-rule:evenodd;stroke-linecap:round;stroke-linejoin:round;stroke-miterlimit:1.5;">
    <g transform="matrix(0.307596,0,0,0.321809,-135.553,-24.2142)">
        <text x="489.164px" y="413.54px" style="font-family:'ArialMT', 'Arial', sans-serif;font-size:23.306px;fill:rgb(59,106,180);">Robottechnology</text>
    </g>
    <g transform="matrix(0.285827,0,0,0.299034,-124.93,-100.119)">
        <text x="489.164px" y="413.54px" style="font-family:'ArialMT', 'Arial', sans-serif;font-size:22.081px;fill:rgb(59,106,180);">Christina Silverwing</text>
    </g>
    <g transform="matrix(0.385342,0,0,0.403147,-182.315,-68.4281)">
        <text x="489.164px" y="413.54px" style="font-family:'Arial-BoldMT', 'Arial', sans-serif;font-weight:700;font-size:22.081px;fill:rgb(59,106,180);">Education</text>
    </g>
    <g transform="matrix(0.385342,0,0,0.403147,-182.315,-152.449)">
        <text x="489.164px" y="413.54px" style="font-family:'Arial-BoldMT', 'Arial', sans-serif;font-weight:700;font-size:22.081px;fill:rgb(59,106,180);">Name</text>
    </g>
    <g transform="matrix(0.385342,0,0,0.403147,-182.315,-123.447)">
        <text x="489.164px" y="413.54px" style="font-family:'Arial-BoldMT', 'Arial', sans-serif;font-weight:700;font-size:22.081px;fill:rgb(59,106,180);">Birthday</text>
    </g>
    <g transform="matrix(0.348366,0,0,0.348366,-155.517,-27.7386)">
        <g transform="matrix(0.955835,0,0,1,21.6041,0)">
            <text x="489.164px" y="413.54px" style="font-family:'ArialMT', 'Arial', sans-serif;font-size:19.137px;fill:rgb(208,227,237);">1. - 2. semester (2012 - 2013)</text>
        </g>
        <g transform="matrix(0.955835,0,0,1,21.6041,0)">
            <text x="489.164px" y="433.303px" style="font-family:'ArialMT', 'Arial', sans-serif;font-size:19.137px;fill:rgb(208,227,237);">Bachelor at SDU, Odense</text>
        </g>
    </g>
    <g transform="matrix(1,0,0,0.710502,-1360.64,-212.656)">
        <rect x="1367.52" y="445.331" width="4.312" height="28.026" style="fill:rgb(143,218,148);"/>
    </g>
    <g transform="matrix(1,0,0,0.156133,-1360.64,-50.322)">
        <rect x="1367.52" y="445.331" width="4.312" height="28.026" style="fill:rgb(143,218,148);"/>
    </g>
    <g transform="matrix(0.292221,0,0,0.305723,-128.081,-74.0424)">
        <text x="489.164px" y="413.54px" style="font-family:'ArialMT', 'Arial', sans-serif;font-size:22.081px;fill:rgb(59,106,180);">5 March 1992</text>
    </g>
    <g transform="matrix(1,0,0,0.166644,-1360.64,-26.4836)">
        <rect x="1367.52" y="445.331" width="4.312" height="28.026" style="fill:rgb(143,218,148);"/>
    </g>
    <g transform="matrix(0.385342,0,0,0.403147,-182.315,-95.0244)">
        <text x="489.164px" y="413.54px" style="font-family:'Arial-BoldMT', 'Arial', sans-serif;font-weight:700;font-size:22.081px;fill:rgb(59,106,180);">Email</text>
    </g>
    <g transform="matrix(0.301679,0,0,0.315618,-132.648,-49.5486)">
        <text x="489.164px" y="413.54px" style="font-family:'ArialMT', 'Arial', sans-serif;font-size:21.123px;fill:rgb(59,106,180);">valyrian@outlook.com</text>
    </g>
    <g transform="matrix(1,0,0,0.135111,-1360.64,17.4549)">
        <rect x="1367.52" y="445.331" width="4.312" height="28.026" style="fill:rgb(143,218,148);"/>
    </g>
    <g transform="matrix(0.406565,0,0,0.406565,-184.229,-25.1118)">
        <g transform="matrix(0.955835,0,0,1,21.6041,0)">
            <text x="489.164px" y="413.54px" style="font-family:'ArialMT', 'Arial', sans-serif;font-size:18.447px;fill:rgb(59,106,180);">Learning and experience</text>
        </g>
        <g transform="matrix(0.955835,0,0,1,21.6041,0)">
            <text x="489.164px" y="432.59px" style="font-family:'ArialMT', 'Arial', sans-serif;font-size:18.447px;fill:rgb(59,106,180);">technology</text>
        </g>
    </g>
    <g transform="matrix(0.348366,0,0,0.348366,-155.517,13.6923)">
        <g transform="matrix(0.955835,0,0,1,21.6041,0)">
            <text x="489.164px" y="413.54px" style="font-family:'ArialMT', 'Arial', sans-serif;font-size:19.137px;fill:rgb(208,227,237);">1. - 10. semester (2013 - 2018)</text>
        </g>
        <g transform="matrix(0.955835,0,0,1,21.6041,0)">
            <text x="489.164px" y="433.303px" style="font-family:'ArialMT', 'Arial', sans-serif;font-size:19.137px;fill:rgb(208,227,237);">Bachelor and Master at SDU, Odense</text>
        </g>
    </g>
    <g transform="matrix(1,0,0,0.953038,-1360.64,-286.402)">
        <rect x="1367.52" y="445.331" width="4.312" height="28.026" style="fill:rgb(143,218,148);"/>
    </g>
    <g transform="matrix(0.936688,0,0,0.969497,-1526.43,-416.208)">
        <rect x="1630.29" y="429.972" width="136.079" height="179.976" style="fill:none;stroke:rgb(208,227,237);stroke-width:1.36px;"/>
    </g>
</svg>
