<?xml version="1.0" encoding="UTF-8" standalone="no"?>
<!DOCTYPE svg PUBLIC "-//W3C//DTD SVG 1.1//EN" "http://www.w3.org/Graphics/SVG/1.1/DTD/svg11.dtd">
<svg width="100%" height="100%" viewBox="0 0 119 134" version="1.1" xmlns="http://www.w3.org/2000/svg" xmlns:xlink="http://www.w3.org/1999/xlink" xml:space="preserve" xmlns:serif="http://www.serif.com/" style="fill-rule:evenodd;clip-rule:evenodd;stroke-linejoin:round;stroke-miterlimit:1.41421;">
    <g transform="matrix(0.75023,0,0,0.75023,-711.386,-15.3451)">
        <circle cx="1077.8" cy="179.218" r="18.519" style="fill:rgb(112,180,215);"/>
    </g>
    <g transform="matrix(3.18852,0,0,3.18852,-3377.54,-497.863)">
        <circle cx="1077.8" cy="179.218" r="18.519" style="fill:rgb(208,227,237);"/>
        <clipPath id="_clip1">
            <circle cx="1077.8" cy="179.218" r="18.519"/>
        </clipPath>
        <g clip-path="url(#_clip1)">
            <g transform="matrix(0.168676,0,0,0.168676,1041.87,93.9186)">
                <path d="M265.28,571.5C266.607,576.51 266.504,591.819 266.234,608.325C264.352,611.542 264.024,613.568 263.731,616.786L163.745,617.024C164.019,614.566 164.464,611.935 165.056,609.159C165.032,596.923 170.405,566.629 171.968,566.853L265.28,571.5" style="fill:rgb(0,34,57);"/>
            </g>
        </g>
    </g>
    <g transform="matrix(0.317968,0,0,0.317968,-324.227,64.232)">
        <circle cx="1077.8" cy="179.218" r="18.519" style="fill:rgb(208,227,237);"/>
    </g>
    <g transform="matrix(0.630623,0,0,0.630623,-667.152,-87.8218)">
        <circle cx="1077.8" cy="179.218" r="18.519" style="fill:rgb(112,180,215);"/>
    </g>
    <g id="Vector-me" serif:id="Vector me" transform="matrix(0.537828,0,0,0.537828,-8.26963,-32.7317)">
        <g transform="matrix(1,0,0,1,-86.7306,-309.885)">
            <path d="M278.051,569.581C275.668,564.404 271.409,560.914 264.958,559.398C266.512,563.136 266.053,567.03 263.946,569.751C263.319,573.693 262.783,575.878 261.139,577.582C261.898,579.245 263.545,577.829 265.829,574.203C267.679,572.304 268.933,570.47 269.868,568.672C268.943,571.004 267.573,573.485 265.427,576.224C264.179,577.141 262.886,578.187 262.048,580.128C262.155,581.553 262.962,582.09 264.594,581.583C265.298,580.955 266.106,580.207 266.984,579.362C268.698,577.714 270.338,576.034 271.839,574.283C270.211,576.409 268.564,579.173 267.14,581.401C265.886,582.763 265.268,584.061 266.049,585.22C267.672,586.054 270.47,581.721 273.141,577.946C275.067,576.31 276.387,573.481 276.765,571.395C276.951,570.367 277.688,570.543 278.051,569.581" style="fill:rgb(222,190,205);"/>
        </g>
        <g transform="matrix(1,0,0,1,-2.84217e-14,-315.512)">
            <path d="M177.923,583.656C178.9,583.941 179.26,584.534 179.144,585.365C179.108,585.622 178.211,586.416 177.421,587.049C177.132,587.281 175.46,586.882 175.816,585.269C176.633,584.693 177.728,583.516 177.923,583.656" style="fill:rgb(231,221,226);"/>
        </g>
        <g transform="matrix(0.858726,0,0,0.830661,22.8042,-219.452)">
            <path d="M177.923,583.656C178.9,583.941 179.26,584.534 179.144,585.365C179.108,585.622 178.211,586.416 177.421,587.049C177.132,587.281 175.46,586.882 175.816,585.269C176.633,584.693 177.728,583.516 177.923,583.656" style="fill:rgb(231,221,226);"/>
        </g>
        <g transform="matrix(0.718708,0,0,0.596048,52.9472,-74.4537)">
            <path d="M177.923,583.656C178.9,583.941 179.123,584.112 179.008,584.943C178.972,585.2 178.211,586.416 177.421,587.049C177.132,587.281 175.655,586.859 176.01,585.245C176.828,584.669 177.728,583.516 177.923,583.656" style="fill:rgb(231,221,226);"/>
        </g>
        <g transform="matrix(1,0,0,1,-86.7306,-309.885)">
            <path d="M255.318,441.466C262.402,441.249 270.969,449.72 271.787,451.081C275.667,457.543 281.349,465.431 281.402,467.549C288.491,476.795 293.34,487.642 297.972,498.644C301.445,510.347 291.831,542.249 288.971,543.957C287.606,546.152 284.389,561.321 281.197,563.187C280.616,566.565 279.758,569.343 278.128,570.45C277.207,566.146 272.344,562.719 265.138,559.812C264.154,558.554 266.891,555.918 268.718,549.685C269.204,545.238 270.985,543.672 272.605,542.014C275.066,536.141 277.238,508.548 275.776,508.055C275.433,506.425 275.348,504.744 275.878,502.94C272.816,497.36 269.79,493.931 266.902,492.541C267.492,498.462 264.155,507.876 262.363,514.699C260.884,520.328 260.99,534.391 261.644,537.857C265.001,543.256 267.223,545.431 268.718,549.685C268.217,552.355 264.314,558.47 264.928,559.65C266.779,563.205 265.935,569.45 262.915,575.037C260.922,578.723 241.128,594.833 229.746,593.055C223.991,595.233 218.924,595.621 214.915,593.26C209.456,593.692 204.716,593.478 201.004,592.339C196.883,591.98 173.977,578.516 171.954,570.041C171.954,565.142 172.531,560.18 174.102,555.107C174.006,552.299 173.933,547.556 175.125,542.423C175.975,527.641 170.142,494.405 168.374,495.064C161.95,498.714 147.372,513.876 145.769,520.329C146.467,521.001 146.497,521.865 145.973,522.886C148.09,524.427 148.635,526.405 147.61,528.819C148.384,534.065 149.633,539.133 151.804,543.855C153.346,545.052 154.01,546.798 154.156,548.867C156.199,550.29 157.162,552.432 157.634,554.902C159.828,558.717 162.179,562.322 164.896,565.438C163.007,566.511 161.19,568.022 159.475,570.143C156.674,573.092 153.757,575.004 150.781,576.382C146.59,573.21 144.176,569.149 142.086,564.926C138.166,562.529 136.287,558.811 135.335,554.493C134.092,552.054 132.896,549.598 131.754,547.122C128.907,540.95 126.391,534.655 124.288,528.205C122.816,526.205 122.042,523.816 122.14,520.943C119.811,513.005 119.394,506.261 122.652,501.815C128.954,488.499 139.967,478.677 151.701,469.39C154.586,466.552 155.536,463.463 156.202,462.844C158.979,460.262 161.548,457.784 163.976,455.377C164.747,452.227 166.746,450.305 169.09,448.728L197.321,444.023L255.318,441.466" style="fill:rgb(28,107,154);"/>
            <clipPath id="_clip2">
                <path d="M255.318,441.466C262.402,441.249 270.969,449.72 271.787,451.081C275.667,457.543 281.349,465.431 281.402,467.549C288.491,476.795 293.34,487.642 297.972,498.644C301.445,510.347 291.831,542.249 288.971,543.957C287.606,546.152 284.389,561.321 281.197,563.187C280.616,566.565 279.758,569.343 278.128,570.45C277.207,566.146 272.344,562.719 265.138,559.812C264.154,558.554 266.891,555.918 268.718,549.685C269.204,545.238 270.985,543.672 272.605,542.014C275.066,536.141 277.238,508.548 275.776,508.055C275.433,506.425 275.348,504.744 275.878,502.94C272.816,497.36 269.79,493.931 266.902,492.541C267.492,498.462 264.155,507.876 262.363,514.699C260.884,520.328 260.99,534.391 261.644,537.857C265.001,543.256 267.223,545.431 268.718,549.685C268.217,552.355 264.314,558.47 264.928,559.65C266.779,563.205 265.935,569.45 262.915,575.037C260.922,578.723 241.128,594.833 229.746,593.055C223.991,595.233 218.924,595.621 214.915,593.26C209.456,593.692 204.716,593.478 201.004,592.339C196.883,591.98 173.977,578.516 171.954,570.041C171.954,565.142 172.531,560.18 174.102,555.107C174.006,552.299 173.933,547.556 175.125,542.423C175.975,527.641 170.142,494.405 168.374,495.064C161.95,498.714 147.372,513.876 145.769,520.329C146.467,521.001 146.497,521.865 145.973,522.886C148.09,524.427 148.635,526.405 147.61,528.819C148.384,534.065 149.633,539.133 151.804,543.855C153.346,545.052 154.01,546.798 154.156,548.867C156.199,550.29 157.162,552.432 157.634,554.902C159.828,558.717 162.179,562.322 164.896,565.438C163.007,566.511 161.19,568.022 159.475,570.143C156.674,573.092 153.757,575.004 150.781,576.382C146.59,573.21 144.176,569.149 142.086,564.926C138.166,562.529 136.287,558.811 135.335,554.493C134.092,552.054 132.896,549.598 131.754,547.122C128.907,540.95 126.391,534.655 124.288,528.205C122.816,526.205 122.042,523.816 122.14,520.943C119.811,513.005 119.394,506.261 122.652,501.815C128.954,488.499 139.967,478.677 151.701,469.39C154.586,466.552 155.536,463.463 156.202,462.844C158.979,460.262 161.548,457.784 163.976,455.377C164.747,452.227 166.746,450.305 169.09,448.728L197.321,444.023L255.318,441.466"/>
            </clipPath>
            <g clip-path="url(#_clip2)">
                <g transform="matrix(1,0,0,1,86.7306,-5.62756)">
                    <path d="M129.504,488.244C104.208,519.228 113.193,524.384 114.811,533.119C115.58,537.27 121.905,544.339 122.463,559.695C124.011,602.251 117.651,599.899 112.26,601.511C101.915,604.603 80.649,588.342 81.555,580.035C81.723,578.502 84.182,524.263 84.618,514.967C85.416,497.949 89.666,471.213 107.882,469.551C113.76,469.015 136.454,479.731 129.504,488.244Z" style="fill:rgb(32,113,161);"/>
                </g>
                <path d="M147.469,513.443C150.007,506.347 156.664,498.247 160.698,494.935C168.397,488.612 174.242,484.257 177.528,475.304C177.352,480.324 175.327,489.651 174.833,493.59C174.28,497.997 171.585,506.162 169.6,503.635L166.326,498.423L145.638,520.375C145.258,518.136 146.136,517.169 147.469,513.443Z" style="fill:rgb(25,95,137);"/>
                <g transform="matrix(1,0,0,1,86.7306,-5.62756)">
                    <path d="M150.626,598.719C145.929,600.524 137.212,601.098 135.425,600.674C138.283,598.754 140.12,595.023 140.895,590.521C141.061,585.741 142.016,581.357 143.183,577.078C143.313,570.426 143.366,563.749 144.518,557.438C144.485,551.43 144.555,545.416 145.948,539.324C145.414,531.966 145.565,524.671 145.948,517.396C144.909,511.093 144.922,504.176 144.899,497.28C143.965,493.359 143.176,488.843 142.993,481.835C141.642,477.153 141.092,472.227 141.658,466.962C141.774,465.243 141.614,463.569 140.228,462.1C143.138,458.977 149.974,455.762 153.467,454.722C150.038,457.914 144.059,461.148 143.121,464.633C141.853,469.35 143.477,475.762 144.047,482.158C144.563,487.112 145.131,491.436 145.729,497.12C146.842,503.283 146.898,510.376 146.803,517.497C147.307,524.726 147.458,531.627 146.712,539.355C147.639,545.17 145.836,550.971 145.513,557.369C145.858,563.024 148.287,564.27 150.356,564.492C153.049,564.78 157.663,560.534 159.835,554.576C161.351,550.415 168.399,529.239 169.704,527.408C172.451,523.556 175.647,520.594 177.388,514.674C194.411,520.365 194.696,599.107 150.626,598.719C150.46,598.526 150.786,598.908 150.626,598.719Z" style="fill:rgb(25,95,137);"/>
                </g>
                <path d="M265.298,518.771C269.089,511.707 266.796,494.663 266.895,492.538C267.063,488.92 264.612,483.987 264.531,480.979C264.31,472.709 265.739,468.828 264.468,469.152C336.86,492.391 310.37,617.307 265.006,559.576C264.544,558.988 267.024,553.191 268.713,549.497C275.894,533.792 264.966,519.389 265.298,518.771Z" style="fill:rgb(25,95,137);"/>
                <g transform="matrix(1,0,0,1,-1.75727,2.29422)">
                    <path d="M244.662,440.869C244.662,440.869 234.41,445.954 237.199,450.427C238.885,451.224 240.318,453.703 241.257,453.569C245.888,452.907 248.509,453.144 249.506,453.373C249.086,449.284 247.177,445.097 244.662,440.869Z" style="fill:rgb(25,95,137);"/>
                </g>
                <g transform="matrix(1,0,0,1,0.549147,3.29488)">
                    <path d="M226.183,453.052C224.627,452.583 222.371,454.89 220.257,456.237C218.892,455.585 218.717,456.205 217.632,454.436C212.468,458.878 207.376,460.641 203.195,462.134C201.95,458.048 198.41,451.477 196.048,448.369L208.938,444.485C211.909,449.834 215.866,450.358 221.071,451.936C223.482,452.385 225.169,452.044 226.183,453.052" style="fill:rgb(25,95,137);"/>
                </g>
                <g transform="matrix(1,0,0,1,0.883458,2.71663)">
                    <path d="M197.599,415.267C206.191,421.627 215.502,456.457 195.247,451.375C193.801,451.238 192.588,451.876 193.61,459.967C193.681,460.526 195.22,463.04 195.86,464.774C195.99,465.124 194.794,464.395 194.261,464.84C193.538,465.442 195.903,469.381 196.679,471.014C196.764,471.194 194.718,468.704 194.116,468.499C189.658,466.981 190.928,474.875 186.143,492.699C186.108,492.829 186.444,485.977 185.427,483.084C184.758,485.686 182.517,488.852 182.665,488.505C184.038,485.289 184.147,479.741 183.79,479.606C181.835,478.864 181.598,481.61 181.029,483.8C180.631,485.331 180.021,475.112 180.926,469.173C181.234,467.154 182.919,456.539 183.893,453.829C184.574,451.933 183.961,448.034 182.768,448.715C180.563,449.972 178.733,452.231 177.346,455.671C176.156,458.623 174.466,464.194 171.414,469.173C169.192,471.57 169.502,474.887 170.289,478.378C168.943,475.71 168.496,472.592 169.879,468.559C172.547,463.231 174.642,457.679 175.198,452.193C175.437,449.84 174.672,448.095 173.05,448.408C165.206,449.924 159.414,454.291 156.48,462.626C158.302,456.493 161.713,451.267 169.266,448.408C170.638,447.428 172.258,446.695 174.175,446.26C175.403,444.426 176.63,443.593 177.858,443.396C180.338,442.16 181.209,441.461 181.233,441.044C182.87,439.069 184.506,438.346 186.143,438.282C187.493,427.026 189.144,432.42 197.599,415.267Z" style="fill:rgb(25,95,137);"/>
                </g>
                <g transform="matrix(1.10272,0,0,1.12032,-21.9992,-46.9105)">
                    <path d="M242.191,432.546C243.241,435.113 251.954,432.353 253.033,435.375C253.907,437.823 255.735,439.255 256.06,440.775C256.199,441.422 257.78,441.473 259.088,440.775C257.985,441.985 256.046,442.512 252.542,441.757C254.206,442.494 255.542,443.448 256.551,444.621C254.8,443.231 252.575,442.629 250.169,442.33C249.351,442.521 249.595,443.775 250.741,445.931C248.845,444.161 247.263,442.571 246.895,441.675C246.357,442.678 246.616,443.946 248.041,445.603C246.032,444.57 244.731,443.418 244.031,442.166C242.665,441.849 240.876,443.146 240.267,446.258C240.115,447.038 241.222,448.863 242.313,449.858C241.801,449.937 241.41,450.283 239.776,447.895C237.786,448.189 236.052,464.835 241.331,471.052C236.564,465.522 235.542,457.08 238.631,445.44C238.843,442.989 242.191,432.546 242.191,432.546Z" style="fill:rgb(25,95,137);"/>
                </g>
                <path d="M226.902,456.426C225.346,455.957 223.465,456.545 221.35,457.892C219.986,457.241 218.717,456.205 217.632,454.436C212.468,458.878 208.197,460.641 204.015,462.134C202.77,458.048 200.722,454.664 198.359,451.555L208.938,444.485C211.909,449.834 216.459,452.701 221.665,454.279C224.075,454.728 225.887,455.418 226.902,456.426" style="fill:rgb(81,162,211);"/>
                <path d="M227.248,456.842C228.963,454.495 232.847,452.43 237.199,450.427C238.885,451.224 240.318,453.703 241.257,453.569C245.888,452.907 248.509,453.144 249.506,453.373C249.086,449.284 247.177,445.097 244.662,440.869L237.526,440.083C237.941,445.874 235.846,450.375 229.801,452.849C228.447,453.621 227.228,454.598 226.332,456.057C226.748,456.263 227.061,456.521 227.248,456.842Z" style="fill:rgb(81,162,211);"/>
                <g transform="matrix(1,0,0,1,-0.156202,0.234303)">
                    <circle cx="225.042" cy="458.427" r="1.601" style="fill:rgb(28,82,114);"/>
                </g>
                <g transform="matrix(1,0,0,1,1.71822,18.1194)">
                    <circle cx="225.042" cy="458.427" r="1.601" style="fill:rgb(28,82,114);"/>
                </g>
                <g transform="matrix(1,0,0,1,3.4755,35.0088)">
                    <circle cx="225.042" cy="458.427" r="1.601" style="fill:rgb(28,82,114);"/>
                </g>
                <g transform="matrix(1,0,0,1,4.17841,53.3626)">
                    <circle cx="225.042" cy="458.427" r="1.601" style="fill:rgb(28,82,114);"/>
                </g>
                <g transform="matrix(1,0,0,1,4.06126,73.2393)">
                    <circle cx="225.042" cy="458.427" r="1.601" style="fill:rgb(28,82,114);"/>
                </g>
                <g transform="matrix(1,0,0,1,3.00689,92.1788)">
                    <circle cx="225.042" cy="458.427" r="1.601" style="fill:rgb(28,82,114);"/>
                </g>
                <g transform="matrix(1,0,0,1,1.56202,111.743)">
                    <circle cx="225.042" cy="458.427" r="1.601" style="fill:rgb(28,82,114);"/>
                </g>
                <g transform="matrix(1,0,0,1,86.7306,-5.62756)">
                    <path d="M84.99,462.09C88.856,465.08 83.225,479.741 72.405,487.405C67.6,490.808 42.307,504.878 40.493,523.158C39.706,531.097 63.394,571.866 60.183,582.068C28.665,549.822 26.07,502.554 34.407,486.199C54.525,474.548 78.906,457.385 84.99,462.09Z" style="fill:rgb(32,113,161);"/>
                </g>
            </g>
        </g>
        <g transform="matrix(1,0,0,1,-86.7306,-309.885)">
            <path d="M236.147,420.562C237.23,428.551 237.631,436.768 237.457,445.176C236.46,448.492 234.037,451.095 229.968,452.875C229.051,453.275 227.659,454.361 226.302,456.017C224.651,455.031 222.985,454.59 221.246,454.266C216.653,453.411 210.372,448.36 208.914,444.652L204.515,425.694L236.147,420.562" style="fill:rgb(239,212,225);"/>
            <clipPath id="_clip3">
                <path d="M236.147,420.562C237.23,428.551 237.631,436.768 237.457,445.176C236.46,448.492 234.037,451.095 229.968,452.875C229.051,453.275 227.659,454.361 226.302,456.017C224.651,455.031 222.985,454.59 221.246,454.266C216.653,453.411 210.372,448.36 208.914,444.652L204.515,425.694L236.147,420.562"/>
            </clipPath>
            <g clip-path="url(#_clip3)">
                <g transform="matrix(1,0,0,1,86.7306,-5.62756)">
                    <path d="M118.087,432.861C121.651,435.562 125.071,438.355 129.644,440.414C134.573,442.412 138.004,446.189 138.68,453.889C138.858,455.903 136.778,459.564 139.362,462.492L139.516,465.134L107.762,449.679L118.087,432.861" style="fill:rgb(243,221,231);"/>
                </g>
                <g transform="matrix(1,0,0,1,86.7306,-5.62756)">
                    <path d="M142.53,459.287C142.967,449.34 146.624,437.012 150.345,430.727C155.063,442.938 155.258,456.591 142.53,459.287" style="fill:rgb(222,190,205);"/>
                </g>
            </g>
        </g>
        <g transform="matrix(1,0,0,1,-86.7306,-309.885)">
            <path d="M205.782,427.797C205.869,430.909 206.922,434.591 210.283,436.338C214.901,439.522 219.003,441.86 220.614,440.123C220.639,441.738 219.295,442.226 214.681,440.021C215.373,441.07 216.854,444.144 215.909,446.567C215.867,443.154 214.28,441.047 210.692,440.634C209.809,443.99 208.575,447.61 206.601,451.784L206.294,449.227C202.764,452.841 199.049,452.944 195.247,451.375C193.801,451.238 192.588,451.876 193.61,459.967C193.681,460.526 195.22,463.04 195.86,464.774C195.99,465.124 194.794,464.395 194.261,464.84C193.538,465.442 195.903,469.381 196.679,471.014C196.764,471.194 194.718,468.704 194.116,468.499C189.658,466.981 190.928,474.875 186.143,492.699C186.108,492.829 186.444,485.977 185.427,483.084C184.758,485.686 182.517,488.852 182.665,488.505C184.038,485.289 184.147,479.741 183.79,479.606C181.835,478.864 181.598,481.61 181.029,483.8C180.631,485.331 180.021,475.112 180.926,469.173C181.234,467.154 182.919,456.539 183.893,453.829C184.574,451.933 183.961,448.034 182.768,448.715C180.563,449.972 178.733,452.231 177.346,455.671C176.156,458.623 174.466,464.194 171.414,469.173C169.192,471.57 169.502,474.887 170.289,478.378C168.943,475.71 168.496,472.592 169.879,468.559C172.547,463.231 174.642,457.679 175.198,452.193C175.437,449.84 174.672,448.095 173.05,448.408C165.206,449.924 159.414,454.291 156.48,462.626C158.302,456.493 161.713,451.267 169.266,448.408C170.638,447.428 172.258,446.695 174.175,446.26C175.403,444.426 176.63,443.593 177.858,443.396C180.338,442.16 181.209,441.461 181.233,441.044C182.87,439.069 184.506,438.346 186.143,438.282C187.442,432.654 188.891,431.149 190.793,428.986C194.615,424.637 196.375,422.194 197.599,415.267C200.463,420.404 205.782,427.797 205.782,427.797Z" style="fill:rgb(80,50,32);"/>
            <clipPath id="_clip4">
                <path d="M205.782,427.797C205.869,430.909 206.922,434.591 210.283,436.338C214.901,439.522 219.003,441.86 220.614,440.123C220.639,441.738 219.295,442.226 214.681,440.021C215.373,441.07 216.854,444.144 215.909,446.567C215.867,443.154 214.28,441.047 210.692,440.634C209.809,443.99 208.575,447.61 206.601,451.784L206.294,449.227C202.764,452.841 199.049,452.944 195.247,451.375C193.801,451.238 192.588,451.876 193.61,459.967C193.681,460.526 195.22,463.04 195.86,464.774C195.99,465.124 194.794,464.395 194.261,464.84C193.538,465.442 195.903,469.381 196.679,471.014C196.764,471.194 194.718,468.704 194.116,468.499C189.658,466.981 190.928,474.875 186.143,492.699C186.108,492.829 186.444,485.977 185.427,483.084C184.758,485.686 182.517,488.852 182.665,488.505C184.038,485.289 184.147,479.741 183.79,479.606C181.835,478.864 181.598,481.61 181.029,483.8C180.631,485.331 180.021,475.112 180.926,469.173C181.234,467.154 182.919,456.539 183.893,453.829C184.574,451.933 183.961,448.034 182.768,448.715C180.563,449.972 178.733,452.231 177.346,455.671C176.156,458.623 174.466,464.194 171.414,469.173C169.192,471.57 169.502,474.887 170.289,478.378C168.943,475.71 168.496,472.592 169.879,468.559C172.547,463.231 174.642,457.679 175.198,452.193C175.437,449.84 174.672,448.095 173.05,448.408C165.206,449.924 159.414,454.291 156.48,462.626C158.302,456.493 161.713,451.267 169.266,448.408C170.638,447.428 172.258,446.695 174.175,446.26C175.403,444.426 176.63,443.593 177.858,443.396C180.338,442.16 181.209,441.461 181.233,441.044C182.87,439.069 184.506,438.346 186.143,438.282C187.442,432.654 188.891,431.149 190.793,428.986C194.615,424.637 196.375,422.194 197.599,415.267C200.463,420.404 205.782,427.797 205.782,427.797Z"/>
            </clipPath>
            <g clip-path="url(#_clip4)">
                <g transform="matrix(1,0,0,1,86.7306,-5.62756)">
                    <path d="M112.448,422.774C111.123,425.934 110.327,430.501 108.305,432.699C104.181,437.18 99.905,442.948 101.131,443.976C106.023,445.944 108.391,452.091 106.757,458.13C109.305,453.863 107.258,448.784 107.454,441.856C107.491,440.518 112.901,431.824 113.693,433.111C118.457,440.854 114.398,446.198 108.379,447.453C112.671,448.669 117.235,442.579 118.164,441.371C120.666,438.116 124.493,439.46 119.886,433.854L112.448,422.774Z" style="fill:rgb(68,43,26);"/>
                </g>
                <g transform="matrix(1.09143,0,0,1.1539,76.8467,-75.3675)">
                    <path d="M108.105,451.013C114.256,453.379 121.518,452.07 121.395,443.014C121.391,442.772 119.811,447.703 116.875,449.438C113.513,451.424 107.8,450.895 108.105,451.013Z" style="fill:rgb(68,43,26);"/>
                </g>
                <g transform="matrix(1,0,0,1,86.7306,-5.62756)">
                    <path d="M98.515,446.112C103.695,445.867 105.637,453.183 104.702,459.433C102.03,454.789 101.934,457.056 99.585,464.7C100.817,457.569 100.964,451.077 98.515,446.112" style="fill:rgb(68,43,26);"/>
                </g>
                <g transform="matrix(1,0,0,1,86.7306,-5.62756)">
                    <path d="M107.334,453.879C106.943,445.943 99.835,439.513 93.805,447.045C88.423,445.196 66.36,464.365 67.9,469.917C74.033,465.246 81.578,454.674 86.799,454.081C89.458,453.779 95.901,443.831 100.777,445.475C103.628,446.435 105.778,450.099 107.334,453.879" style="fill:rgb(91,58,39);"/>
                </g>
                <g transform="matrix(1.0305,0,0,1.0129,84.3434,-11.8793)">
                    <path d="M94.478,450.542C85.613,457.061 82.081,470.15 78.259,484.281L85.225,484.633C84.166,472.912 93.321,450.469 94.478,450.542" style="fill:rgb(91,58,39);"/>
                </g>
                <g transform="matrix(1,0,0,1,86.7306,-5.62756)">
                    <path d="M97.383,458.598C96.084,467.055 94.462,475.637 95.272,483.284C95.523,483.747 98.931,473.945 102.027,469.905C100.478,471.68 100.168,494.864 99.306,498.741C99.254,499.563 98.826,488.248 98.708,488.922C98.255,491.492 97.343,493.081 96.151,494.483L91.929,486.333C93.144,475.71 95.073,466.718 97.383,458.598" style="fill:rgb(91,58,39);"/>
                </g>
            </g>
        </g>
        <g transform="matrix(1.10272,0,0,1.12032,-110.628,-360.419)">
            <path d="M238.712,411.971C239.959,414.925 239.411,418.418 238.467,421.709C237.88,423.754 240.559,427.446 242.886,429.237C243.473,429.689 247.316,428.477 248.859,426.946C248.659,428.142 247.394,429.423 243.049,430.547C249.408,430.407 251.954,432.353 253.033,435.375C253.907,437.823 255.735,439.255 256.06,440.775C256.199,441.422 257.78,441.473 259.088,440.775C257.985,441.985 256.046,442.512 252.542,441.757C254.206,442.494 255.542,443.448 256.551,444.621C254.8,443.231 252.575,442.629 250.169,442.33C249.351,442.521 249.595,443.775 250.741,445.931C248.845,444.161 247.263,442.571 246.895,441.675C246.357,442.678 246.616,443.946 248.041,445.603C246.032,444.57 244.731,443.418 244.031,442.166C242.665,441.849 240.876,443.146 240.267,446.258C240.115,447.038 241.458,449.044 242.549,450.039C242.037,450.118 241.41,450.283 239.776,447.895C237.786,448.189 236.052,464.835 241.331,471.052C236.564,465.522 235.542,457.08 238.631,445.44C238.843,442.989 238.309,441.071 236.994,439.712C235.493,445.059 235.467,447.703 237.894,445.849C236.045,448.326 234.97,447.492 235.521,439.712C233.326,440.923 231.387,442.752 230.284,446.585C229.565,444.442 234.615,437.789 234.893,436.935C236.521,431.924 236.169,426.05 235.854,420.978L235.439,412.462L238.712,411.971" style="fill:rgb(68,43,26);"/>
        </g>
        <g transform="matrix(1,0,0,1,-86.7306,-309.885)">
            <path d="M200.861,420.756C203.648,427.725 209.098,432.188 216.318,434.043C219.053,434.746 225.655,432.584 229.632,429.974C233.836,426.005 236.029,422.329 236.639,419.003C237.091,416.538 237.014,414.265 237.048,412.073C240.253,411.905 241.473,408.959 241.268,404.018L242.163,399.543C240.449,395.457 238.592,394.252 236.537,396.986C236.644,393.981 236.047,392.148 235.13,390.848C235.216,387.013 233.085,382.836 228.737,378.318C229.034,375.376 221.395,369.728 216.207,370.902C210.467,370.769 205.043,370.847 203.421,373.459C199.378,374.556 190.398,380.982 193.959,399.415C193.917,400.736 194.386,401.887 195.366,402.867C194.706,405.42 195.088,407.347 196.133,408.877C192.945,408.564 193.197,410.453 196.772,414.375C197.617,415.301 197.788,417.092 198.265,418.46C198.805,420.006 199.848,421.318 200.861,420.756Z" style="fill:rgb(239,212,225);"/>
            <clipPath id="_clip5">
                <path d="M200.861,420.756C203.648,427.725 209.098,432.188 216.318,434.043C219.053,434.746 225.655,432.584 229.632,429.974C233.836,426.005 236.029,422.329 236.639,419.003C237.091,416.538 237.014,414.265 237.048,412.073C240.253,411.905 241.473,408.959 241.268,404.018L242.163,399.543C240.449,395.457 238.592,394.252 236.537,396.986C236.644,393.981 236.047,392.148 235.13,390.848C235.216,387.013 233.085,382.836 228.737,378.318C229.034,375.376 221.395,369.728 216.207,370.902C210.467,370.769 205.043,370.847 203.421,373.459C199.378,374.556 190.398,380.982 193.959,399.415C193.917,400.736 194.386,401.887 195.366,402.867C194.706,405.42 195.088,407.347 196.133,408.877C192.945,408.564 193.197,410.453 196.772,414.375C197.617,415.301 197.788,417.092 198.265,418.46C198.805,420.006 199.848,421.318 200.861,420.756Z"/>
            </clipPath>
            <g clip-path="url(#_clip5)">
                <path d="M210.298,404.678L202.82,406.811C204.587,403.419 206.908,402.063 210.298,404.678" style="fill:rgb(179,179,179);"/>
                <path d="M202.757,406.832C205.355,403.314 207.554,403.082 210.285,404.715C209.489,404.811 209.455,405.75 208.716,405.996C206.637,406.691 202.757,406.832 202.757,406.832Z" style="fill:white;"/>
                <clipPath id="_clip6">
                    <path d="M202.757,406.832C205.355,403.314 207.554,403.082 210.285,404.715C209.489,404.811 209.455,405.75 208.716,405.996C206.637,406.691 202.757,406.832 202.757,406.832Z"/>
                </clipPath>
                <g clip-path="url(#_clip6)">
                    <g transform="matrix(1,0,0,1,0.829566,0.534189)">
                        <ellipse cx="205.766" cy="404.486" rx="1.743" ry="1.559" style="fill:rgb(67,167,193);"/>
                        <clipPath id="_clip7">
                            <ellipse cx="205.766" cy="404.486" rx="1.743" ry="1.559"/>
                        </clipPath>
                        <g clip-path="url(#_clip7)">
                            <g transform="matrix(1.13523,0,0,1.13523,-28.901,-55.1698)">
                                <circle cx="206.763" cy="404.896" r="0.528"/>
                            </g>
                        </g>
                    </g>
                </g>
                <path d="M219.054,402.755C219.291,398.175 225.145,398.299 227.105,400.433C223.127,400.237 219.028,402.439 219.054,402.755Z" style="fill:rgb(179,179,179);"/>
                <path d="M219.048,402.723C220.105,399.314 222.798,398.6 227.128,400.373C227.329,400.391 225.918,401.387 224.367,401.803C222.713,402.246 220.802,401.663 219.048,402.723" style="fill:white;"/>
                <clipPath id="_clip8">
                    <path d="M219.048,402.723C220.105,399.314 222.798,398.6 227.128,400.373C227.329,400.391 225.918,401.387 224.367,401.803C222.713,402.246 220.802,401.663 219.048,402.723"/>
                </clipPath>
                <g clip-path="url(#_clip8)">
                    <g transform="matrix(1,0,0,1,17.379,-3.81265)">
                        <ellipse cx="205.766" cy="404.486" rx="1.743" ry="1.559" style="fill:rgb(67,167,193);"/>
                        <clipPath id="_clip9">
                            <ellipse cx="205.766" cy="404.486" rx="1.743" ry="1.559"/>
                        </clipPath>
                        <g clip-path="url(#_clip9)">
                            <g transform="matrix(1.13523,0,0,1.13523,-28.901,-55.1698)">
                                <circle cx="206.763" cy="404.896" r="0.528"/>
                            </g>
                        </g>
                    </g>
                </g>
                <path d="M212.272,433.883C219.235,435.664 233.59,428.079 232.185,419.808C231.888,418.06 231.408,414.393 232.305,412.749C233.776,410.054 228.153,402.646 228.789,401.721C229.758,400.313 230.097,398.602 229.428,396.607C227.296,390.242 220.556,383.44 214.173,382.467C222.9,378.4 235.176,383.311 232.465,393.25C233.562,396.561 234.816,399.395 235.981,402.2C236.18,405.944 236.523,409.543 236.94,413.068C237.285,415.376 238.247,418.506 237.5,421.032C236.286,431.792 214.251,437.511 212.272,433.883Z" style="fill:rgb(222,190,205);"/>
                <path d="M236.451,401.511C236.034,401.737 236.02,402.468 236.317,403.589C238.407,404.999 238.898,406.01 237.055,406.438C236.773,407.229 236.8,407.814 237.055,408.248C237.744,408.181 237.964,407.712 238.027,407.108C239.172,407.09 239.44,405.987 239.066,404.092C238.894,402.75 238.053,401.869 236.451,401.511" style="fill:rgb(222,190,205);"/>
                <path d="M236.415,399.918C237.002,398.046 238.035,396.845 239.516,396.314C240.661,397.03 241.262,398.169 241.401,399.666C241.546,400.354 241.438,401.324 240.689,403.018C240.612,405.673 240.349,408.06 239.264,409.261L238.636,408.046C240.289,407.674 240.175,405.144 239.809,402.306C239.424,401.273 238.449,400.909 236.834,400.881L236.415,399.918" style="fill:rgb(222,190,205);"/>
                <path d="M209.682,421.343C212.027,419.921 214.307,418.854 216.428,418.661C217.978,418.382 219.026,418.103 219.905,417.823C223.592,416.855 226.03,416.777 227.698,416.818C226.969,418.952 225.55,421.038 223.257,423.06C221.377,424.632 217.6,425.118 215.129,424.904C212.313,424.66 210.874,422.674 209.682,421.343" style="fill:rgb(218,184,213);"/>
                <path d="M211.774,421.338C212.149,420.828 213.634,420.228 216.802,419.494C218.111,419.27 219.38,419.047 220.219,418.657C221.505,418.059 225.795,417.764 227.042,417.243C225.73,418.905 223.296,420.989 220.866,422.092C219.536,422.742 217.671,422.979 215.671,423.181C213.767,422.93 212.561,422.26 211.774,421.338" style="fill:white;"/>
                <clipPath id="_clip10">
                    <path d="M211.774,421.338C212.149,420.828 213.634,420.228 216.802,419.494C218.111,419.27 219.38,419.047 220.219,418.657C221.505,418.059 225.795,417.764 227.042,417.243C225.73,418.905 223.296,420.989 220.866,422.092C219.536,422.742 217.671,422.979 215.671,423.181C213.767,422.93 212.561,422.26 211.774,421.338"/>
                </clipPath>
                <g clip-path="url(#_clip10)">
                    <path d="M213.04,422.597C213.238,422.607 213.438,422.613 213.64,422.613C218.275,422.625 223.917,420.031 227.087,417.191L226.514,418.273C225.119,419.754 223.406,421.138 220.849,422.262C219.667,422.917 218.032,423.294 215.688,423.234L213.04,422.597Z" style="fill:rgb(77,77,77);"/>
                </g>
                <g transform="matrix(1,0,0,1,86.7306,-5.62756)">
                    <path d="M122.545,389.733C130.138,394.877 127.161,404.666 122.654,406.109C117.904,406.473 114.264,405.593 112.344,410.045C112.769,414.443 114.598,417.265 117.538,417.577C119.168,417.749 121.187,419.054 121.764,421.393C122.191,423.124 120.314,426.388 118.42,426.778C114.838,427.514 115.07,427.131 114.181,426.552L111.64,419.345C108.696,410.079 105.044,401.236 101.605,392.267C108.585,390.014 115.565,389.227 122.545,389.733Z" style="fill:rgb(243,221,231);"/>
                </g>
                <path d="M220.845,411.816C220.315,410.892 219.165,410.483 217.102,410.653C216.762,407.583 216.255,404.168 216.076,402.362C218.361,404.122 220.849,408.471 221.904,410.227C222.749,411.634 223.923,411.335 225.799,413.054C224.854,412.449 222.598,412.806 220.016,413.566C220.796,412.987 221.081,412.227 220.845,411.816Z" style="fill:rgb(222,190,205);"/>
                <path d="M217.568,413.139C217.539,412.368 218.924,411.691 219.981,412.2C220.242,412.326 220.301,412.532 220.115,412.837C218.878,413.18 218.09,413.242 217.568,413.139" style="fill:rgb(51,51,51);"/>
                <path d="M215.59,413.306C215.459,413.833 214.249,414.423 213.21,414.781C213.297,414.049 213.493,413.535 213.847,413.34C214.523,412.967 215.375,413.09 215.59,413.306" style="fill:rgb(64,64,64);"/>
                <path d="M209.395,400.501C207.497,400.658 205.811,401.301 202.557,401.808C201.623,401.996 200.364,403.158 199.071,404.423C199.481,402.989 200.158,401.7 201.551,400.803C203.376,400.611 205.068,400.313 206.445,399.764C207.852,399.504 209.395,400.294 209.395,400.501Z" style="fill:rgb(72,54,43);"/>
                <path d="M217.673,397.92C218.612,396.379 221.584,395.63 225.383,394.803C227.747,395.105 228.943,395.919 229.874,396.848C228.214,395.999 226.769,395.526 225.181,396.01C219.748,397.323 218.439,397.684 217.673,397.92" style="fill:rgb(72,54,43);"/>
                <g transform="matrix(1,0,0,1,86.7306,-5.62756)">
                    <path d="M126.933,388.861C121.16,390.639 119.108,390.557 117.585,390.211C109.29,389.027 106.181,396.32 109.019,402.869L109.275,407.856C109.854,409.887 111.337,415.686 111.609,419.405C111.229,418.291 110.517,415.588 109.414,414.523C108.668,413.803 108.37,412.772 107.91,412.019L107.221,407.138C91.793,357.278 150.794,363.364 148.471,396.22C150.569,397.13 149.674,411.553 149.538,412.37C148.514,407.938 147.638,403.338 145.587,398.905C145.416,397.03 142.35,395.433 142.518,394.814C142.656,394.307 142.408,393.694 141.887,393.044C139.089,392.935 132.943,390.91 130.475,389.584C129.281,388.942 127.52,388.873 126.933,388.861ZM141.568,392.679C139.014,389.951 132.163,386.819 128.912,388.199C129.642,388.465 130.487,388.754 130.869,388.913C134.826,390.562 138.537,392.186 141.568,392.679Z" style="fill:rgb(80,50,32);"/>
                    <clipPath id="_clip11">
                        <path d="M126.933,388.861C121.16,390.639 119.108,390.557 117.585,390.211C109.29,389.027 106.181,396.32 109.019,402.869L109.275,407.856C109.854,409.887 111.337,415.686 111.609,419.405C111.229,418.291 110.517,415.588 109.414,414.523C108.668,413.803 108.37,412.772 107.91,412.019L107.221,407.138C91.793,357.278 150.794,363.364 148.471,396.22C150.569,397.13 149.674,411.553 149.538,412.37C148.514,407.938 147.638,403.338 145.587,398.905C145.416,397.03 142.35,395.433 142.518,394.814C142.656,394.307 142.408,393.694 141.887,393.044C139.089,392.935 132.943,390.91 130.475,389.584C129.281,388.942 127.52,388.873 126.933,388.861ZM141.568,392.679C139.014,389.951 132.163,386.819 128.912,388.199C129.642,388.465 130.487,388.754 130.869,388.913C134.826,390.562 138.537,392.186 141.568,392.679Z"/>
                    </clipPath>
                    <g clip-path="url(#_clip11)">
                        <path d="M142.321,383.508C141.652,387.162 139.035,388.191 135.117,388.867L148.301,413.725C157.153,405.133 143.775,382.377 142.321,383.508Z" style="fill:rgb(68,43,26);"/>
                        <path d="M129.94,376.564C131.566,381.046 129.731,384.6 127.827,387.239C128.928,383.793 131.194,380.462 129.268,376.385L129.94,376.564Z" style="fill:rgb(68,43,26);"/>
                        <g transform="matrix(0.984429,0.17578,-0.17578,0.984429,78.0666,-15.3984)">
                            <path d="M132.318,380.005C132.873,382.689 130.123,384.905 127.404,386.339C129.548,383.907 131.038,382.741 131.054,379.031L132.318,380.005Z" style="fill:rgb(68,43,26);"/>
                        </g>
                        <path d="M116.809,378.673C116.107,382.55 117.839,385.631 120.232,388.394C117.804,386.903 116.356,384.181 114.79,379.734L116.809,378.673Z" style="fill:rgb(91,58,39);"/>
                        <g transform="matrix(0.964412,-0.264405,0.264405,0.964412,-100.643,46.1974)">
                            <path d="M117.659,379.11C117.44,382.779 118.622,385.372 120.75,388.249C117.659,385.92 117.318,383.212 116.546,379.765L117.659,379.11Z" style="fill:rgb(91,58,39);"/>
                        </g>
                        <path d="M111.439,382.49C111.215,385.671 114.68,388.622 117.165,390.202L109.858,409.502C108.646,408.455 106.593,406.745 104.423,405.963C104.093,397.41 106.719,388.581 111.439,382.49Z" style="fill:rgb(91,58,39);"/>
                    </g>
                </g>
                <g transform="matrix(1,0,0,1,86.7306,-5.62756)">
                    <path d="M125.511,420.159C125.541,417.584 126.967,417.229 127.865,416.463C128.092,416.269 127.804,410.126 127.747,409.635C127.562,408.018 126.926,407.235 126.335,406.927C125.051,406.257 124.765,406.948 124.863,408.163C124.889,408.484 125.845,409.274 125.746,410.223C123.991,414.313 125.506,420.579 125.511,420.159Z" style="fill:rgb(243,221,231);"/>
                </g>
            </g>
        </g>
        <g transform="matrix(1,0,0,1,-2.84217e-14,-315.512)">
            <path d="M124.475,431.416C125.808,433.381 128.066,434.987 128.839,434.377C130.889,432.761 132.739,432.757 134.605,432.611C137.553,432.38 139.193,435.857 134.911,438.137C128.125,440.329 124.475,431.416 124.475,431.416Z" style="fill:rgb(243,221,231);"/>
        </g>
        <g transform="matrix(1,0,0,1,-86.7306,-309.885)">
            <path d="M163.844,566.002C165.555,565.498 168.674,565.677 171.732,565.761C172.147,564.495 173.885,563.496 174.793,563.485C176.944,563.46 181.079,566.262 184.274,568.543C185.64,570.736 185.229,572.079 182.596,572.356C181.045,572.064 178.34,570.446 175.122,568.238C174.567,568.84 173.437,569.422 172.715,569.358C174.078,569.331 175.321,569.572 175.933,569.878C178.022,570.77 179.995,571.818 181.834,573.043C183.669,573.562 185.18,574.243 186.181,575.178C186.758,576.992 185.753,577.915 183.664,578.229C181.86,577.754 180.316,577.062 179.012,576.17C177.679,575.986 176.247,575.501 174.664,574.568C173.747,574.779 172.726,574.92 171.308,574.797C171.32,575.299 170.503,575.839 169.848,576.007C172.588,577.193 174.66,578.898 176.647,580.67C178.32,581.56 179.663,582.449 180.919,583.339C181.855,585.224 180.853,585.957 178.707,586.009C174.545,584.496 171.114,582.129 167.952,579.449C167.573,579.557 166.383,579.56 165.587,579.418C167.578,580.576 169.277,581.793 170.851,583.034C172.599,583.683 173.957,584.5 175.122,585.399C175.955,587.115 175.111,587.713 173.444,587.763C170.618,586.825 167.863,585.641 165.702,583.787C162.509,583.607 160.001,583.07 158.724,581.89C155.225,580.638 152.374,578.372 150.874,575.871C154.092,574.401 157.607,572.147 160.325,568.924C161.923,567.314 163.08,566.363 163.844,566.002Z" style="fill:rgb(239,212,225);"/>
            <clipPath id="_clip12">
                <path d="M163.844,566.002C165.555,565.498 168.674,565.677 171.732,565.761C172.147,564.495 173.885,563.496 174.793,563.485C176.944,563.46 181.079,566.262 184.274,568.543C185.64,570.736 185.229,572.079 182.596,572.356C181.045,572.064 178.34,570.446 175.122,568.238C174.567,568.84 173.437,569.422 172.715,569.358C174.078,569.331 175.321,569.572 175.933,569.878C178.022,570.77 179.995,571.818 181.834,573.043C183.669,573.562 185.18,574.243 186.181,575.178C186.758,576.992 185.753,577.915 183.664,578.229C181.86,577.754 180.316,577.062 179.012,576.17C177.679,575.986 176.247,575.501 174.664,574.568C173.747,574.779 172.726,574.92 171.308,574.797C171.32,575.299 170.503,575.839 169.848,576.007C172.588,577.193 174.66,578.898 176.647,580.67C178.32,581.56 179.663,582.449 180.919,583.339C181.855,585.224 180.853,585.957 178.707,586.009C174.545,584.496 171.114,582.129 167.952,579.449C167.573,579.557 166.383,579.56 165.587,579.418C167.578,580.576 169.277,581.793 170.851,583.034C172.599,583.683 173.957,584.5 175.122,585.399C175.955,587.115 175.111,587.713 173.444,587.763C170.618,586.825 167.863,585.641 165.702,583.787C162.509,583.607 160.001,583.07 158.724,581.89C155.225,580.638 152.374,578.372 150.874,575.871C154.092,574.401 157.607,572.147 160.325,568.924C161.923,567.314 163.08,566.363 163.844,566.002Z"/>
            </clipPath>
            <g clip-path="url(#_clip12)">
                <g transform="matrix(1,0,0,1,86.7306,-5.62756)">
                    <path d="M78.601,580.002C81.749,580.204 84.904,579.816 87.083,579.015C87.761,578.766 90.341,580.652 92.377,581.535C93.636,582.081 94.713,583.008 96.157,583.331L98.018,584.171L83.152,581.655C81.675,580.643 80.467,580.625 78.601,580.002Z" style="fill:rgb(221,206,219);"/>
                </g>
                <g transform="matrix(1,0,0,1,86.7306,-5.62756)">
                    <path d="M63.529,581.63C69.721,589.849 80.849,590.21 78.885,589.409C66.707,584.443 69.829,580.674 70.162,579.36C70.73,577.123 80.924,571.414 85.011,571.46L76.078,569.375L63.529,581.63Z" style="fill:rgb(222,190,205);"/>
                </g>
                <g transform="matrix(1,0,0,1,86.7306,-5.62756)">
                    <path d="M88.383,578.287C85.885,575.795 80.089,575.889 79.964,575.589C79.748,575.075 87.221,574.905 88.832,575.199L100.981,579.694C100.812,582.674 101.675,582.832 99.017,583.678C95.027,583.054 92.221,579.49 88.383,578.287Z" style="fill:rgb(243,221,231);"/>
                </g>
                <g transform="matrix(1,0,0,1,86.7306,-5.62756)">
                    <path d="M95.638,572.373C94.248,571.909 89.033,568.406 87.666,569.174C86.357,569.908 86.647,571.562 88.428,573.922C93.443,578.295 96.708,579.191 98.472,577.874C99.198,575.289 98.164,573.496 95.638,572.373" style="fill:rgb(243,221,231);"/>
                </g>
                <g transform="matrix(1,0,0,1,86.7306,-5.62756)">
                    <path d="M72.623,580.861C74.102,579.194 78.601,579.123 83.573,581.522C88.332,583.942 93.13,586.342 95.356,590.028C93.769,589.917 91.697,589.078 88.916,587.177C87.275,586.624 86.662,586.282 81.992,583.032C79.988,580.007 74.123,580.016 72.623,580.861Z" style="fill:rgb(243,221,231);"/>
                </g>
            </g>
        </g>
        <g transform="matrix(1,0,0,1,-2.84217e-14,-315.512)">
            <path d="M96.823,580.102C95.395,580.037 94.85,580.757 95.596,582.023C95.82,582.403 97.618,582.984 98.243,583.491C98.716,583.874 100.134,582.164 99.577,581.543C99.074,580.982 97.867,580.415 96.823,580.102" style="fill:rgb(249,241,245);"/>
        </g>
        <g transform="matrix(1,0,0,0.943276,-1.3134,-288.503)">
            <path d="M96.823,580.102C95.395,580.037 95.329,580.851 95.596,582.023C95.722,582.576 97.303,583.27 98.243,583.491C98.836,583.629 100.134,582.164 99.577,581.543C99.074,580.982 97.867,580.415 96.823,580.102" style="fill:rgb(249,241,245);"/>
        </g>
        <g transform="matrix(0.790812,0,0,0.791868,15.7682,-186.164)">
            <path d="M96.823,580.102C95.395,580.037 95.329,580.851 95.596,582.023C95.722,582.576 97.303,583.27 98.243,583.491C98.836,583.629 100.134,582.164 99.577,581.543C99.074,580.982 97.867,580.415 96.823,580.102" style="fill:rgb(249,241,245);"/>
        </g>
        <g transform="matrix(0.649103,0,0,0.648871,23.8892,-100.865)">
            <path d="M96.823,580.102C95.395,580.037 95.329,580.851 95.596,582.023C95.722,582.576 97.303,583.27 98.243,583.491C98.836,583.629 100.134,582.164 99.577,581.543C99.074,580.982 97.867,580.415 96.823,580.102" style="fill:rgb(249,241,245);"/>
        </g>
        <g transform="matrix(1,0,0,1,-2.84217e-14,-315.512)">
            <path d="M122.852,424.503C121.356,426.736 121.738,428.243 123.965,429.856C123.643,429.523 122.681,428.372 123.28,428.424C124.727,428.549 124.224,428.283 123.141,427.153C122.246,426.219 123.151,424.43 122.852,424.503Z" style="fill:rgb(221,206,219);"/>
        </g>
        <g transform="matrix(1,0,0,1,-2.84217e-14,-315.512)">
            <path d="M139.173,420.876C141.196,421.697 141.627,422.938 141.289,423.849C141.209,423.311 141.122,422.637 140.666,422.845C139.623,423.322 140.426,423.281 139.792,423.496C139.841,423.275 140.074,423.25 139.463,423.091C140.933,422.515 139.783,421.263 139.173,420.876" style="fill:rgb(221,206,219);"/>
        </g>
    </g>
</svg>
