<?xml version="1.0" encoding="UTF-8" standalone="no"?>
<!DOCTYPE svg PUBLIC "-//W3C//DTD SVG 1.1//EN" "http://www.w3.org/Graphics/SVG/1.1/DTD/svg11.dtd">
<svg version="1.1" xmlns="http://www.w3.org/2000/svg" xmlns:xlink="http://www.w3.org/1999/xlink" preserveAspectRatio="xMidYMid meet" viewBox="0 0 28 28" width="28" height="28"><defs><path d="M18.08 2.56L18.24 2.61L18.4 2.68L21.6 4.53L21.74 4.63L21.87 4.74L21.97 4.87L22.05 5.01L22.12 5.15L22.16 5.31L22.18 5.47L22.17 5.63L22.15 5.79L22.1 5.95L22.02 6.1L21.36 7.26L21.92 7.89L22.63 8.95L23.21 10.11L23.52 11L24.85 11L25.02 11.01L25.18 11.05L25.34 11.11L25.48 11.18L25.61 11.28L25.72 11.39L25.82 11.52L25.89 11.66L25.95 11.82L25.99 11.98L26 12.15L26 15.85L25.99 16.02L25.95 16.18L25.89 16.34L25.82 16.48L25.72 16.61L25.61 16.72L25.48 16.82L25.34 16.89L25.18 16.95L25.02 16.99L24.85 17L23.52 17L23.21 17.89L22.63 19.05L21.92 20.11L21.36 20.74L22.02 21.9L22.1 22.05L22.15 22.21L22.17 22.37L22.18 22.53L22.16 22.69L22.12 22.85L22.05 22.99L21.97 23.13L21.87 23.26L21.74 23.37L21.6 23.47L18.4 25.32L18.24 25.39L18.08 25.44L17.92 25.47L17.76 25.47L17.6 25.45L17.45 25.41L17.3 25.35L17.16 25.26L17.04 25.16L16.92 25.04L16.83 24.9L16.16 23.74L15.36 23.91L14 24L12.64 23.91L11.84 23.74L11.17 24.9L11.08 25.04L10.96 25.16L10.84 25.26L10.7 25.35L10.55 25.41L10.4 25.45L10.24 25.47L10.08 25.47L9.92 25.44L9.76 25.39L9.6 25.32L6.4 23.47L6.26 23.37L6.13 23.26L6.03 23.13L5.95 22.99L5.88 22.85L5.84 22.69L5.82 22.53L5.83 22.37L5.85 22.21L5.9 22.05L5.98 21.9L6.64 20.74L6.08 20.11L5.37 19.05L4.79 17.89L4.48 17L3.15 17L2.98 16.99L2.82 16.95L2.66 16.89L2.52 16.82L2.39 16.72L2.28 16.61L2.18 16.48L2.11 16.34L2.05 16.18L2.01 16.02L2 15.85L2 12.15L2.01 11.98L2.05 11.82L2.11 11.66L2.18 11.52L2.28 11.39L2.39 11.28L2.52 11.18L2.66 11.11L2.82 11.05L2.98 11.01L3.15 11L4.48 11L4.79 10.11L5.37 8.95L6.08 7.89L6.64 7.26L5.98 6.1L5.9 5.95L5.85 5.79L5.83 5.63L5.82 5.47L5.84 5.31L5.88 5.15L5.95 5.01L6.03 4.87L6.13 4.74L6.26 4.63L6.4 4.53L9.6 2.68L9.76 2.61L9.92 2.56L10.08 2.53L10.24 2.53L10.4 2.55L10.55 2.59L10.7 2.65L10.84 2.74L10.96 2.84L11.08 2.96L11.17 3.1L11.84 4.26L12.64 4.09L14 4L15.36 4.09L16.16 4.26L16.83 3.1L16.92 2.96L17.04 2.84L17.16 2.74L17.3 2.65L17.45 2.59L17.6 2.55L17.76 2.53L17.92 2.53L18.08 2.56ZM11.64 10.77L10.77 11.64L10.2 12.74L10 14L10.2 15.26L10.77 16.36L11.64 17.23L12.74 17.8L14 18L15.26 17.8L16.36 17.23L17.23 16.36L17.8 15.26L18 14L17.8 12.74L17.23 11.64L16.36 10.77L15.26 10.2L14 10L12.74 10.2L11.64 10.77Z" id="d3a18KKAw"></path></defs><g><g><g><use xlink:href="#d3a18KKAw" opacity="1" fill="#000000" fill-opacity="1"></use></g></g></g></svg>