<?xml version="1.0" encoding="UTF-8" standalone="no"?>
<!DOCTYPE svg PUBLIC "-//W3C//DTD SVG 1.1//EN" "http://www.w3.org/Graphics/SVG/1.1/DTD/svg11.dtd">
<svg width="100%" height="100%" viewBox="0 0 251 121" version="1.1" xmlns="http://www.w3.org/2000/svg" xmlns:xlink="http://www.w3.org/1999/xlink" xml:space="preserve" xmlns:serif="http://www.serif.com/" style="fill-rule:evenodd;clip-rule:evenodd;stroke-linejoin:round;stroke-miterlimit:1.41421;">
    <g transform="matrix(-0.0888912,0,0,0.657403,54.3625,-247.494)">
        <rect x="558.496" y="376.473" width="53.066" height="28.807" style="fill:rgb(112,180,215);"/>
    </g>
    <g transform="matrix(0.485444,0,0,0.507874,-227.305,-197.506)">
        <text x="489.164px" y="413.54px" style="font-family:'Arial-BoldMT', 'Arial', sans-serif;font-weight:700;font-size:22.081px;fill:rgb(59,106,180);">The Project</text>
    </g>
    <g transform="matrix(0.348366,0,0,0.348366,-168.681,-112.208)">
        <g transform="matrix(0.955835,0,0,1,21.6041,0)">
            <text x="489.164px" y="413.54px" style="font-family:'ArialMT', 'Arial', sans-serif;font-size:22.081px;fill:rgb(59,106,180);">I joined this ongoing project ﬁrst as an intern and later as an employee. <tspan x="1187.17px 1200.66px " y="413.54px 413.54px ">Th</tspan>e</text>
        </g>
        <g transform="matrix(0.955835,0,0,1,21.6041,0)">
            <text x="489.164px" y="436.343px" style="font-family:'ArialMT', 'Arial', sans-serif;font-size:22.081px;fill:rgb(59,106,180);">web application I worked on was an advertising SaaS system for real</text>
        </g>
        <g transform="matrix(0.955835,0,0,1,21.6041,0)">
            <text x="489.164px" y="459.147px" style="font-family:'ArialMT', 'Arial', sans-serif;font-size:22.081px;fill:rgb(59,106,180);">estate agents mainly here in Denmark.</text>
        </g>
        <g transform="matrix(0.955835,0,0,1,21.6041,0)">
            <text x="489.164px" y="481.95px" style="font-family:'ArialMT', 'Arial', sans-serif;font-size:22.081px;fill:rgb(59,106,180);">This project is lead by the Connect team that I joined and became a part of</text>
        </g>
        <g transform="matrix(0.955835,0,0,1,21.6041,0)">
            <text x="489.164px" y="504.753px" style="font-family:'ArialMT', 'Arial', sans-serif;font-size:22.081px;fill:rgb(59,106,180);">while i worked there.</text>
        </g>
        <g transform="matrix(0.955835,0,0,1,21.6041,0)">
            <text x="489.164px" y="550.36px" style="font-family:'ArialMT', 'Arial', sans-serif;font-size:22.081px;fill:rgb(59,106,180);">The web application is developed in <tspan x="843.871px 858.599px " y="550.36px 550.36px ">An</tspan>gular and <tspan x="968.673px 980.886px 991.927px " y="550.36px 550.36px 550.36px ">Typ</tspan>eScript with a Java</text>
        </g>
        <g transform="matrix(0.955835,0,0,1,21.6041,0)">
            <text x="489.164px" y="573.164px" style="font-family:'ArialMT', 'Arial', sans-serif;font-size:22.081px;fill:rgb(59,106,180);">backend and consists of an advertising system for real estate agents. <tspan x="1171.18px 1184.67px " y="573.164px 573.164px ">Th</tspan>e</text>
        </g>
        <g transform="matrix(0.955835,0,0,1,21.6041,0)">
            <text x="489.164px" y="595.967px" style="font-family:'ArialMT', 'Arial', sans-serif;font-size:22.081px;fill:rgb(59,106,180);">system enables the agents to create advertising banners that will be</text>
        </g>
        <g transform="matrix(0.955835,0,0,1,21.6041,0)">
            <text x="489.164px" y="618.771px" style="font-family:'ArialMT', 'Arial', sans-serif;font-size:22.081px;fill:rgb(59,106,180);">distributed on pages like Facebook, to reach the biggest amount of potential</text>
        </g>
        <g transform="matrix(0.955835,0,0,1,21.6041,0)">
            <text x="489.164px" y="641.574px" style="font-family:'ArialMT', 'Arial', sans-serif;font-size:22.081px;fill:rgb(59,106,180);">buyers as possible. <tspan x="683.897px 697.385px " y="641.574px 641.574px ">Th</tspan>e system then gives the agents an overview over how</text>
        </g>
        <g transform="matrix(0.955835,0,0,1,21.6041,0)">
            <text x="489.164px" y="664.377px" style="font-family:'ArialMT', 'Arial', sans-serif;font-size:22.081px;fill:rgb(59,106,180);">the campaign is doing and how much were spent on it.</text>
        </g>
    </g>
</svg>
