<?xml version="1.0" encoding="UTF-8" standalone="no"?>
<!DOCTYPE svg PUBLIC "-//W3C//DTD SVG 1.1//EN" "http://www.w3.org/Graphics/SVG/1.1/DTD/svg11.dtd">
<svg width="100%" height="100%" viewBox="0 0 129 113" version="1.1" xmlns="http://www.w3.org/2000/svg" xmlns:xlink="http://www.w3.org/1999/xlink" xml:space="preserve" xmlns:serif="http://www.serif.com/" style="fill-rule:evenodd;clip-rule:evenodd;stroke-linecap:round;stroke-linejoin:round;stroke-miterlimit:1.5;">
    <g transform="matrix(0.285827,0,0,0.299034,-124.93,-100.119)">
        <text x="489.164px" y="413.54px" style="font-family:'ArialMT', 'Arial', sans-serif;font-size:22.081px;fill:rgb(59,106,180);">UI Designer and Frontend Developer</text>
    </g>
    <g transform="matrix(0.385342,0,0,0.403147,-182.315,-152.449)">
        <text x="489.164px" y="413.54px" style="font-family:'Arial-BoldMT', 'Arial', sans-serif;font-weight:700;font-size:22.081px;fill:rgb(59,106,180);">My role</text>
    </g>
    <g transform="matrix(0.385342,0,0,0.403147,-182.315,-128.123)">
        <text x="489.164px" y="413.54px" style="font-family:'Arial-BoldMT', 'Arial', sans-serif;font-weight:700;font-size:22.081px;fill:rgb(59,106,180);">Period</text>
    </g>
    <g transform="matrix(1,0,0,0.156133,-1360.64,-50.322)">
        <rect x="1367.52" y="445.331" width="4.312" height="28.026" style="fill:rgb(143,218,148);"/>
    </g>
    <g transform="matrix(0.292221,0,0,0.305723,-128.081,-78.7177)">
        <text x="489.164px" y="413.54px" style="font-family:'ArialMT', 'Arial', sans-serif;font-size:22.081px;fill:rgb(59,106,180);">2015 - 2019</text>
    </g>
    <g transform="matrix(1,0,0,0.166644,-1360.64,-31.1589)">
        <rect x="1367.52" y="445.331" width="4.312" height="28.026" style="fill:rgb(143,218,148);"/>
    </g>
    <g transform="matrix(0.385342,0,0,0.403147,-182.315,-99.6997)">
        <text x="489.164px" y="413.54px" style="font-family:'Arial-BoldMT', 'Arial', sans-serif;font-weight:700;font-size:22.081px;fill:rgb(59,106,180);">Field of business</text>
    </g>
    <g transform="matrix(0.301679,0,0,0.315618,-132.648,-54.2239)">
        <text x="489.164px" y="413.54px" style="font-family:'ArialMT', 'Arial', sans-serif;font-size:21.123px;fill:rgb(59,106,180);">IT<tspan x="507.536px 513.404px " y="413.54px 413.54px "> a</tspan>nd Healthcare</text>
    </g>
    <g transform="matrix(1,0,0,0.135111,-1360.64,12.7796)">
        <rect x="1367.52" y="445.331" width="4.312" height="28.026" style="fill:rgb(143,218,148);"/>
    </g>
    <g transform="matrix(0.385342,0,0,0.403147,-182.315,-73.2065)">
        <text x="489.164px" y="413.54px" style="font-family:'Arial-BoldMT', 'Arial', sans-serif;font-weight:700;font-size:22.081px;fill:rgb(59,106,180);">CVR-nr</text>
    </g>
    <g transform="matrix(0.301679,0,0,0.315618,-132.648,-27.7307)">
        <text x="489.164px" y="413.54px" style="font-family:'ArialMT', 'Arial', sans-serif;font-size:21.123px;fill:rgb(59,106,180);">37298484</text>
    </g>
    <g transform="matrix(1,0,0,0.135111,-1360.64,39.2728)">
        <rect x="1367.52" y="445.331" width="4.312" height="28.026" style="fill:rgb(143,218,148);"/>
    </g>
    <g transform="matrix(0.936688,0,0,0.617361,-1526.43,-264.8)">
        <rect x="1630.29" y="429.972" width="136.079" height="179.976" style="fill:none;stroke:rgb(208,227,237);stroke-width:1.63px;"/>
    </g>
</svg>
