<?xml version="1.0" encoding="UTF-8" standalone="no"?><!DOCTYPE svg PUBLIC "-//W3C//DTD SVG 1.1//EN" "http://www.w3.org/Graphics/SVG/1.1/DTD/svg11.dtd"><svg width="100%" height="100%" viewBox="0 0 545 463" version="1.1" xmlns="http://www.w3.org/2000/svg" xmlns:xlink="http://www.w3.org/1999/xlink" xml:space="preserve" xmlns:serif="http://www.serif.com/" style="fill-rule:evenodd;clip-rule:evenodd;stroke-linejoin:round;stroke-miterlimit:1.41421;"><path id="Background" d="M40.518,230.521l115.113,-199.382l230.227,0l115.113,199.382l-115.113,199.382l-230.227,0l-115.113,-199.382Z" style="fill:#6b8f86;"/><path d="M67.676,277.561l50.829,-88.037l57.371,-9.794l28.733,-49.766l220.496,109.843l-109.752,190.096l-159.722,0l-87.955,-152.342Z" style="fill:#3c5d54;"/><path d="M310.357,174.854c18.393,0 33.325,15.997 33.325,35.701l0,71.404c0,19.704 -14.932,35.701 -33.325,35.701l-73.571,0l-32.691,41.267l-0.513,0c-1.45,2.772 -4.219,4.646 -7.393,4.646c-3.883,0 -7.16,-2.806 -8.158,-6.627l-0.487,-39.286l-41.853,0c-18.393,0 -33.325,-15.997 -33.325,-35.701l0,-71.404c0,-19.704 14.932,-35.701 33.325,-35.701l164.666,0Z" style="fill:#b6b6b6;"/><path d="M230.39,117.907c-18.393,0 -33.325,15.997 -33.325,35.701l0,71.403c0,19.705 14.932,35.702 33.325,35.702l73.571,0l32.691,41.267l0.513,0c1.45,2.771 4.219,4.646 7.393,4.646c3.884,0 7.16,-2.806 8.158,-6.627l0.487,-39.286l41.853,0c18.393,0 33.325,-15.998 33.325,-35.702l0,-71.403c0,-19.704 -14.932,-35.701 -33.325,-35.701l-164.666,0Z" style="fill:#e8e8e8;"/><circle cx="314.887" cy="208.444" r="15.187" style="fill:#707dc1;"/><circle cx="260.058" cy="208.444" r="15.187" style="fill:#8a98dd;"/><circle cx="372.131" cy="208.444" r="15.187" style="fill:#8a98dd;"/></svg>