<?xml version="1.0" encoding="UTF-8" standalone="no"?><!DOCTYPE svg PUBLIC "-//W3C//DTD SVG 1.1//EN" "http://www.w3.org/Graphics/SVG/1.1/DTD/svg11.dtd"><svg width="100%" height="100%" viewBox="0 0 29 29" version="1.1" xmlns="http://www.w3.org/2000/svg" xmlns:xlink="http://www.w3.org/1999/xlink" xml:space="preserve" xmlns:serif="http://www.serif.com/" style="fill-rule:evenodd;clip-rule:evenodd;stroke-linejoin:round;stroke-miterlimit:1.41421;"><circle cx="14.137" cy="14.137" r="14.173" style="fill:#e09f6c;"/><path d="M5.538,2.873l0.608,-0.44c2.008,-1.331 4.361,-2.097 6.876,-2.097c2.121,0 4.128,0.545 5.909,1.515c0.084,0.028 0.167,0.069 0.247,0.124c0.405,0.282 0.561,0.829 0.346,1.22c-0.14,0.258 -0.406,0.384 -0.687,0.36l0,0.002c-0.544,-0.075 -1.099,-0.113 -1.661,-0.113c-7.031,0 -12.37,5.274 -12.878,12.861c-0.024,0.36 0.895,2.659 0.895,3.026c0,0.945 -1.525,3.484 -2.031,3.771c-1.926,-2.355 -3.11,-5.34 -3.193,-8.597l0.288,-3.245c0.702,-3.398 2.621,-6.352 5.281,-8.387Z" style="fill:#3c6b5d;"/><path d="M11.631,28.089c-0.105,-0.236 -0.126,-0.552 -0.07,-0.923c-0.127,-0.488 -0.028,-1.04 0.315,-1.482l0.663,-0.858l0.005,0.005c0.158,-0.248 0.333,-0.498 0.524,-0.745c0.545,-0.704 3.276,-3.921 3.276,-3.921c0.047,-0.137 0.469,-0.876 0.998,-1.475c-0.147,-0.357 0.094,-1.247 -0.076,-1.136c-0.031,0.02 2.557,-3.264 2.631,-3.422c0.117,-0.251 0.382,-0.375 0.59,-0.278c0.209,0.097 0.283,0.38 0.166,0.631c-0.052,0.112 -0.125,0.519 -0.079,0.527c0.081,0.015 0.507,0.186 0.549,0.247c0.042,0.061 0.05,0.683 0.092,0.744c0.145,0.211 0.407,0.478 0.451,0.542c0.037,0.054 -0.044,0.542 0.012,0.623c0.01,0.014 0.231,0.556 0.152,0.661c-0.092,0.122 -0.307,0.421 -0.503,0.556c-0.253,0.176 -0.592,0.33 -0.851,0.509c-0.359,0.249 -0.711,0.301 -1.07,0.537l-1.207,2.838c-0.254,0.696 -1.901,3.089 -2.495,3.856c-0.259,0.336 -0.53,0.644 -0.804,0.92l-0.473,0.612c-0.26,0.336 -0.616,0.552 -0.993,0.636c-0.612,-0.03 -1.214,-0.098 -1.803,-0.204Z" style="fill:#3c6b5d;"/><path d="M5.284,13.638c-0.018,-0.328 -0.06,-0.647 -0.125,-0.951c-0.087,-0.641 -0.134,-1.315 -0.134,-2.011c0,-4.251 1.74,-7.702 3.883,-7.702c1.744,0 3.222,2.287 3.711,5.43c-0.727,0.811 -1.174,1.912 -1.174,3.123c0,1.199 0.437,2.289 1.15,3.097c1.55,1.246 2.6,3.644 2.6,6.396c0,3.36 -1.566,6.193 -3.696,7.045c-1.793,-0.338 -3.467,-1.014 -4.954,-1.96l-0.001,-0.002l-0.001,0.001c-1.336,-0.851 -2.521,-1.918 -3.503,-3.154c1.219,-1.11 2.166,-3.464 2.362,-6.239c0.078,-1.09 0.031,-2.132 -0.118,-3.073Z" style="fill:#4f8273;"/><path d="M11.038,2.924c0.437,0.119 2.304,0.917 2.371,1.018c0.101,0.152 1.788,1.335 1.839,1.41c0.34,0.513 1.519,1.636 1.635,1.81c0.266,0.4 0.786,1.888 1.038,2.266c0.055,0.085 -0.208,1.804 -0.262,1.831c-0.044,0.021 -0.482,-0.453 -0.556,-0.565c-0.068,-0.103 -0.698,0.339 -1.113,0.441c-0.418,0.102 -1.829,0.221 -2.025,0.316c-0.34,0.166 0.297,-0.994 0.184,-1.024c-0.566,-0.154 -2.944,-0.43 -3.572,-0.601c-0.642,-0.175 -1.615,-0.647 -2.236,-0.816c-0.106,-0.028 -1.019,-0.556 -1.162,-0.771c-0.175,-0.264 -0.575,-0.595 -0.756,-0.867c-0.123,-0.185 -0.348,-1.011 -0.376,-1.053c-0.201,-0.303 0.116,-1.262 0.254,-1.626c0.18,-0.476 0.611,-1.298 0.968,-1.472c0.384,-0.187 1.338,-0.45 1.736,-0.644" style="fill:#678d82;"/><path d="M6.261,2.355c1.331,-0.26 2.835,-0.165 4.274,0.348c0.039,0.006 0.078,0.014 0.116,0.024c0.522,0.143 0.805,0.654 0.631,1.139c-0.175,0.486 -0.741,0.764 -1.263,0.621c-0.102,-0.028 -0.195,-0.07 -0.277,-0.123l-0.003,0.006c-2.326,-0.786 -4.804,-0.49 -6.428,0.624c0.855,-1.011 1.848,-1.9 2.95,-2.639Z" style="fill:#93bdc1;"/><path d="M10.722,5.33c0.026,-0.087 0.826,-0.151 1.212,-0.034c0.688,0.207 1.183,0.682 1.263,1.156l0.009,0.004c-0.257,0.355 -0.785,0.28 -1.393,0.096c-0.713,-0.215 -1.242,-0.723 -1.091,-1.222Z" style="fill:#47d4c5;"/><path d="M17.443,17.488l-0.03,0c-0.708,-0.499 -1.221,-1.472 -1.336,-2.627l4.831,0c-0.115,1.153 -0.627,2.125 -1.332,2.625c-0.043,0.101 -0.505,0.181 -1.067,0.181c-0.558,0 -1.016,-0.079 -1.066,-0.179Z" style="fill:#d3d3d3;"/><ellipse cx="18.489" cy="14.839" rx="2.403" ry="0.791" style="fill:#838791;"/><path d="M16.007,23.556c-0.311,-0.134 -0.49,-0.291 -0.49,-0.46c0,-0.484 1.485,-0.878 3.315,-0.878c1.829,0 3.315,0.394 3.315,0.878c0,0.195 -0.24,0.375 -0.646,0.521c-0.099,0.4 -1.281,0.716 -2.723,0.716c-1.258,0 -2.319,-0.241 -2.634,-0.568l-0.007,0.003l-0.022,-0.036c-0.02,-0.024 -0.035,-0.049 -0.046,-0.075l-0.062,-0.101Z" style="fill:#d3d3d3;"/><path d="M21.91,22.747c0.175,0.107 0.273,0.225 0.273,0.349c0,0.485 -1.486,0.878 -3.315,0.878c-1.83,0 -3.315,-0.393 -3.315,-0.878c0,-0.112 0.08,-0.219 0.225,-0.318c-0.007,0.022 -0.01,0.045 -0.01,0.068c0,0.45 1.381,0.816 3.082,0.816c1.701,0 3.082,-0.366 3.082,-0.816c0,-0.034 -0.008,-0.067 -0.022,-0.099Z" style="fill:#838791;"/><path d="M15.635,25.397l-2.873,1.622c-0.322,0.205 -1.212,0.542 -2.128,0.855c-2.61,-0.665 -4.931,-2.055 -6.737,-3.942l0.539,-2.091c0.041,-0.159 0.104,-0.307 0.186,-0.44c0.737,-1.864 2.127,-3.057 3.142,-2.678c1.039,0.387 1.295,2.274 0.572,4.211c-0.35,0.939 -0.868,1.719 -1.426,2.228l-0.036,0.141c0.192,-0.04 0.462,-0.098 0.64,-0.145c0.861,-0.228 5.058,-0.938 5.058,-0.938c0.306,-0.204 1.228,-0.522 1.81,-0.628c0.052,-0.183 0.143,-0.385 0.274,-0.558c0.325,-0.426 0.875,-0.692 0.897,-0.713c0.131,-0.131 0.636,-0.153 0.824,-0.036c0.122,0.075 0.818,0.209 0.968,0.358c0.107,0.108 0.681,0.251 0.788,0.358c0.191,0.191 0.066,0.436 -0.215,0.61c-0.004,0.002 -0.414,-0.061 -0.837,-0.133c-0.476,-0.205 -0.973,-0.244 -0.919,-0.19c0.031,0.031 0.482,0.115 0.919,0.19l0,0c0.41,0.176 0.871,0.411 0.945,0.419c0.283,0.033 0.54,0.069 1.254,-0.035c0.014,-0.003 0.524,0.311 0.316,0.418c-0.165,0.085 0.541,-0.08 0.697,-0.178c0.166,-0.104 0.311,-0.234 0.57,-0.216c0.226,0.015 0.27,0.106 0.28,0.191c0.011,0.085 0.087,0.316 -0.485,0.571c-0.203,0.09 -0.583,0.207 -0.871,0.364c-0.36,0.195 -0.614,0.454 -0.794,0.534c-0.073,0.032 -1.512,0.123 -1.648,0.143c-0.16,0.024 -0.579,-0.159 -1.037,-0.231c-0.241,-0.038 -0.502,-0.031 -0.673,-0.061Z" style="fill:#5ea691;"/><path d="M16.41,15.235c0.177,-0.311 1.058,-0.548 2.117,-0.548c1.022,0 1.879,0.221 2.097,0.516c-0.4,0.254 -1.206,0.427 -2.135,0.427c-0.887,0 -1.663,-0.159 -2.079,-0.395Z" style="fill:#9b5750;"/></svg>