<?xml version="1.0" encoding="UTF-8" standalone="no"?>
<!DOCTYPE svg PUBLIC "-//W3C//DTD SVG 1.1//EN" "http://www.w3.org/Graphics/SVG/1.1/DTD/svg11.dtd">
<svg version="1.1" xmlns="http://www.w3.org/2000/svg" xmlns:xlink="http://www.w3.org/1999/xlink" preserveAspectRatio="xMidYMid meet" viewBox="0 0 28 28" width="28" height="28"><defs><path d="M7 9.87C7 6 10.13 2.88 14 2.88C17.87 2.88 21 6 21 9.87C21 13.75 17.87 16.87 14 16.87C10.13 16.87 7 13.75 7 9.87Z" id="cVk0HxeUk"></path><path d="M2 26L2.43 22.8L3.63 19.93L5.53 17.49L7.42 16L8.34 16.92L10.98 18.29L14 18.77L17.02 18.29L19.66 16.92L20.58 16L22.47 17.49L24.37 19.93L24.37 19.93L25.57 22.8L26 26L2 26Z" id="aR9VYY2e5"></path></defs><g><g><g><use xlink:href="#cVk0HxeUk" opacity="1" fill="#051109" fill-opacity="1"></use><g><use xlink:href="#cVk0HxeUk" opacity="1" fill-opacity="0" stroke="#000000" stroke-width="1" stroke-opacity="0"></use></g></g><g><use xlink:href="#aR9VYY2e5" opacity="1" fill="#000000" fill-opacity="1"></use><g><use xlink:href="#aR9VYY2e5" opacity="1" fill-opacity="0" stroke="#000000" stroke-width="1" stroke-opacity="0"></use></g></g></g></g></svg>