<?xml version="1.0" encoding="UTF-8" standalone="no"?><!DOCTYPE svg PUBLIC "-//W3C//DTD SVG 1.1//EN" "http://www.w3.org/Graphics/SVG/1.1/DTD/svg11.dtd"><svg width="100%" height="100%" viewBox="0 0 545 463" version="1.1" xmlns="http://www.w3.org/2000/svg" xmlns:xlink="http://www.w3.org/1999/xlink" xml:space="preserve" xmlns:serif="http://www.serif.com/" style="fill-rule:evenodd;clip-rule:evenodd;stroke-linejoin:round;stroke-miterlimit:1.41421;"><path id="SkillsIconBackground" d="M40.518,230.521l115.113,-199.382l230.227,0l115.113,199.382l-115.113,199.382l-230.227,0l-115.113,-199.382Z" style="fill:#6b8f86;"/><path id="SkillsShadow" d="M60.223,264.652l62.208,-107.747l28.535,45.357l60.388,-104.595l37.699,70.98l55.271,-96.379l29.695,31.29l-36.936,63.976l-7.262,166.422l87.421,-151.418l12.235,27.43l-26.418,151.219l-39.674,68.716l-167.754,0l-95.408,-165.251Z" style="fill:#3c5d54;"/><path id="Pencil1" d="M154.487,374.596l-44.436,-165.838l54.73,-14.665l44.24,165.105l-14.355,14.355l-22.035,5.904l-18.144,-4.861Z" style="fill:#707dc1;"/><clipPath id="_clip1"><path d="M154.487,374.596l-44.436,-165.838l54.73,-14.665l44.24,165.105l-14.355,14.355l-22.035,5.904l-18.144,-4.861Z"/></clipPath><g clip-path="url(#_clip1)"><path d="M148.418,198.477l-22.569,6.047l46.867,174.911l22.57,-6.048l-46.868,-174.91Z" style="fill:#8a98dd;"/></g><path id="Pencil" d="M123.169,156.679c0.537,-0.469 1.186,-0.825 1.92,-1.021c0.801,-0.215 1.609,-0.214 2.364,-0.034l36.862,37.989l0.315,-0.085l0.094,0.352l-0.076,0.076l0.133,0.137l-0.369,0.098l-14.043,14.044l-22.034,5.904l-18.145,-4.862l-0.29,-1.084l0.314,-0.084l12.955,-51.43Z" style="fill:#e8e8e8;"/><clipPath id="_clip2"><path d="M123.169,156.679c0.537,-0.469 1.186,-0.825 1.92,-1.021c0.801,-0.215 1.609,-0.214 2.364,-0.034l36.862,37.989l0.315,-0.085l0.094,0.352l-0.076,0.076l0.133,0.137l-0.369,0.098l-14.043,14.044l-22.034,5.904l-18.145,-4.862l-0.29,-1.084l0.314,-0.084l12.955,-51.43Z"/></clipPath><g clip-path="url(#_clip2)"><path d="M125.164,155.638c0.112,-0.028 0.224,-0.052 0.336,-0.072c0.151,-0.027 0.303,-0.046 0.453,-0.058c0.255,-0.021 0.507,-0.02 0.756,-0.001c0.074,0.006 0.148,0.013 0.222,0.023c0.15,0.018 0.3,0.044 0.447,0.077c0.025,0.006 0.05,0.011 0.075,0.017l10.454,10.774c-2.622,2.517 -5.889,4.422 -9.632,5.425c-3.044,0.816 -6.112,0.957 -9.05,0.515l0.016,-0.062l3.928,-15.597l0.004,-0.003l0.047,-0.041l0.027,-0.022c0.025,-0.021 0.051,-0.042 0.076,-0.063l0.053,-0.041c0.098,-0.077 0.199,-0.15 0.304,-0.219c0.234,-0.154 0.483,-0.289 0.746,-0.403l0.064,-0.027c0.022,-0.009 0.043,-0.017 0.065,-0.026c0.086,-0.034 0.173,-0.066 0.262,-0.095l0.067,-0.022c0.033,-0.01 0.066,-0.02 0.099,-0.03c0.035,-0.01 0.07,-0.02 0.106,-0.029l0.075,-0.02Z" style="fill:#8a98dd;"/></g><path id="Brush3" d="M391.052,216.518c1.041,0.408 2.116,0.762 3.222,1.058c0.927,0.249 1.854,0.451 2.78,0.608c3.686,9.69 -0.295,42.03 -10.254,79.195c-11.611,43.333 -26.979,76.922 -34.297,74.961c-7.318,-1.961 -3.833,-38.733 7.778,-82.067c9.981,-37.248 22.738,-67.296 30.771,-73.755Z" style="fill:#707dc1;"/><path id="Brush2" d="M375.764,241.519l7.806,-29.133l0.218,0.059c3.025,2.303 6.56,4.077 10.487,5.129c3.794,1.017 7.607,1.267 11.263,0.848l-7.83,29.223c-3.656,0.419 -7.469,0.169 -11.263,-0.848c-4.012,-1.075 -7.613,-2.902 -10.681,-5.278Z" style="fill:#8a98dd;"/><path id="Brush" d="M409.025,148.468c0.886,-0.395 1.907,-0.501 2.917,-0.231c1.019,0.273 1.857,0.885 2.427,1.682c0.25,0.687 0.522,1.441 0.81,2.254c0.012,0.169 0.014,0.339 0.005,0.511l0.195,0.052c4.291,12.163 11.942,36.298 9.149,46.722c-3.63,13.546 -17.574,21.597 -31.12,17.968c-13.547,-3.63 -21.597,-17.575 -17.968,-31.121c2.793,-10.424 21.487,-27.5 31.285,-35.888l0.185,0.05c0.074,-0.144 0.156,-0.283 0.244,-0.416c0.672,-0.574 1.299,-1.103 1.871,-1.583Z" style="fill:#e8e8e8;"/><clipPath id="_clip3"><path d="M409.025,148.468c0.886,-0.395 1.907,-0.501 2.917,-0.231c1.019,0.273 1.857,0.885 2.427,1.682c0.25,0.687 0.522,1.441 0.81,2.254c0.012,0.169 0.014,0.339 0.005,0.511l0.195,0.052c4.291,12.163 11.942,36.298 9.149,46.722c-3.63,13.546 -17.574,21.597 -31.12,17.968c-13.547,-3.63 -21.597,-17.575 -17.968,-31.121c2.793,-10.424 21.487,-27.5 31.285,-35.888l0.185,0.05c0.074,-0.144 0.156,-0.283 0.244,-0.416c0.672,-0.574 1.299,-1.103 1.871,-1.583Z"/></clipPath><g clip-path="url(#_clip3)"><path d="M406.91,150.467c0.074,-0.145 0.156,-0.283 0.244,-0.416c0.672,-0.574 1.299,-1.103 1.871,-1.583c0.886,-0.395 1.907,-0.501 2.917,-0.231c1.019,0.273 1.857,0.885 2.427,1.682c0.25,0.687 0.522,1.441 0.81,2.254c0.012,0.169 0.014,0.339 0.005,0.511l0.195,0.052c1.858,5.266 4.346,12.776 6.343,20.446l0.772,0.207c-5.441,3.033 -12.021,4.036 -18.507,2.298c-6.486,-1.738 -11.683,-5.896 -14.879,-11.244l1.901,0.51c5.564,-5.644 11.474,-10.904 15.716,-14.536l0.185,0.05Z" style="fill:#8a98dd;"/></g><path id="wrench" d="M240.291,139.734l0.002,0c0.219,17.573 14.553,31.771 32.177,31.771l0.206,0c17.529,-0.111 31.752,-14.267 31.97,-31.771l0.274,0l0,-67.422c23.998,11.887 40.514,36.635 40.514,65.21c0,28.575 -16.516,53.322 -40.514,65.209l0,156.73l-0.274,0c-0.219,19.783 -14.553,35.766 -32.176,35.766c-17.624,0 -31.958,-15.984 -32.177,-35.766l-0.002,0l0,-110.401l0,-46.433c-23.885,-11.927 -40.305,-36.614 -40.305,-65.105c0,-28.492 16.42,-53.179 40.305,-65.106l0,67.318Z" style="fill:#b6b6b6;"/></svg>