<?xml version="1.0" encoding="UTF-8" standalone="no"?><!DOCTYPE svg PUBLIC "-//W3C//DTD SVG 1.1//EN" "http://www.w3.org/Graphics/SVG/1.1/DTD/svg11.dtd"><svg width="100%" height="100%" viewBox="0 0 25 25" version="1.1" xmlns="http://www.w3.org/2000/svg" xmlns:xlink="http://www.w3.org/1999/xlink" xml:space="preserve" xmlns:serif="http://www.serif.com/" style="fill-rule:evenodd;clip-rule:evenodd;stroke-linejoin:round;stroke-miterlimit:1.41421;"><path d="M17.713,5.476l2.42,-5.144c0.11,-0.234 0.389,-0.335 0.623,-0.225l0.848,0.399c0.234,0.11 0.335,0.389 0.225,0.623l-2.182,4.639c0.532,0.118 0.881,0.25 1,0.39c0,-0.001 0,-0.002 0,-0.003l0.002,0.004c0.029,0.036 -0.013,4.811 -0.705,9.012c-0.745,4.528 -1.707,8.227 -2.263,8.812c-0.357,0.522 -2.851,0.928 -5.871,0.928c-2.779,0 -5.114,-0.344 -5.746,-0.806c-0.01,-0.002 -0.021,-0.006 -0.032,-0.012l-0.022,0l-0.003,-0.015c-0.545,-0.373 -1.549,-4.173 -2.32,-8.862c-0.745,-4.523 -1.019,-8.332 -0.682,-9.07l0.015,0c-0.001,0.004 -0.001,0.008 -0.002,0.012c0.457,-0.532 4.232,-0.948 8.815,-0.948c2.256,0 4.316,0.1 5.88,0.266Zm-0.457,0.972c-1.474,-0.189 -3.354,-0.302 -5.401,-0.302c-3.059,0 -5.746,0.253 -7.262,0.634c0.931,0.16 2.221,0.288 3.731,0.367l0,5.431l-0.731,0c-0.763,0 -1.383,0.62 -1.383,1.383l0,2.767c0,0.763 0.62,1.383 1.383,1.383l2.767,0c0.763,0 1.383,-0.62 1.383,-1.383l0,-2.767c0,-0.763 -0.62,-1.383 -1.383,-1.383l-0.731,0l0,-5.378c0.704,0.022 1.443,0.034 2.204,0.034c1.921,0 3.699,-0.074 5.148,-0.199l0.275,-0.587Z"/></svg>