<?xml version="1.0" encoding="UTF-8" standalone="no"?><!DOCTYPE svg PUBLIC "-//W3C//DTD SVG 1.1//EN" "http://www.w3.org/Graphics/SVG/1.1/DTD/svg11.dtd"><svg width="100%" height="100%" viewBox="0 0 545 463" version="1.1" xmlns="http://www.w3.org/2000/svg" xmlns:xlink="http://www.w3.org/1999/xlink" xml:space="preserve" xmlns:serif="http://www.serif.com/" style="fill-rule:evenodd;clip-rule:evenodd;stroke-linejoin:round;stroke-miterlimit:1.41421;"><path id="Background" d="M40.518,230.521l115.113,-199.382l230.227,0l115.113,199.382l-115.113,199.382l-230.227,0l-115.113,-199.382Z" style="fill:#6b8f86;"/><path d="M59.27,263l107.778,-186.678l33.555,19.373l10.915,-18.905l27.964,16.145l-10.915,18.905l63.938,36.915l-37.201,64.432l167.406,96.652l-69.319,120.064l-197.76,0l-96.361,-166.903Z" style="fill:#3c5d54;"/><path id="Computer1" d="M240.291,80.178c0,-2.902 -2.356,-5.257 -5.257,-5.257l-63.671,0c-2.901,0 -5.257,2.355 -5.257,5.257l0,10.514c0,2.902 2.356,5.257 5.257,5.257l63.671,0c2.901,0 5.257,-2.355 5.257,-5.257l0,-10.514Z" style="fill:#8a98dd;"/><path id="Computer" d="M339.885,99.948c22.406,0 40.597,18.191 40.597,40.597l0,81.194c0,2.496 -0.226,4.941 -0.658,7.313l36.377,53.381l-0.085,0.126c0.248,0.269 0.491,0.542 0.729,0.819l3.822,5.609c1.938,3.71 3.011,7.794 3.011,12.081c0,15.764 -14.507,28.778 -33.188,30.59c-1.992,0.115 -4.018,0.179 -6.071,0.188c-0.574,-0.019 -1.144,-0.05 -1.71,-0.09l-0.062,0.091l-225.124,0l-0.256,-0.376c-1.495,0.18 -3.003,0.281 -4.513,0.302c-2.224,-0.081 -4.41,-0.225 -6.551,-0.429c-3.98,-0.581 -7.892,-1.754 -11.57,-3.559c-15.286,-7.504 -21.459,-23.443 -15.55,-37.606l41.664,-61.139l0.758,0c-0.431,-2.368 -0.656,-4.809 -0.656,-7.301l0,-81.194c0,-22.406 18.191,-40.597 40.597,-40.597l138.439,0Z" style="fill:#b6b6b6;"/><clipPath id="_clip1"><path d="M339.885,99.948c22.406,0 40.597,18.191 40.597,40.597l0,81.194c0,2.496 -0.226,4.941 -0.658,7.313l36.377,53.381l-0.085,0.126c0.248,0.269 0.491,0.542 0.729,0.819l3.822,5.609c1.938,3.71 3.011,7.794 3.011,12.081c0,15.764 -14.507,28.778 -33.188,30.59c-1.992,0.115 -4.018,0.179 -6.071,0.188c-0.574,-0.019 -1.144,-0.05 -1.71,-0.09l-0.062,0.091l-225.124,0l-0.256,-0.376c-1.495,0.18 -3.003,0.281 -4.513,0.302c-2.224,-0.081 -4.41,-0.225 -6.551,-0.429c-3.98,-0.581 -7.892,-1.754 -11.57,-3.559c-15.286,-7.504 -21.459,-23.443 -15.55,-37.606l41.664,-61.139l0.758,0c-0.431,-2.368 -0.656,-4.809 -0.656,-7.301l0,-81.194c0,-22.406 18.191,-40.597 40.597,-40.597l138.439,0Z"/></clipPath><g clip-path="url(#_clip1)"><path d="M359.632,142.145c0,-13.407 -10.885,-24.292 -24.293,-24.292l-129.753,0c-13.407,0 -24.292,10.885 -24.292,24.292l0,48.584c0,13.407 10.885,24.292 24.292,24.292l129.753,0c13.408,0 24.293,-10.885 24.293,-24.292l0,-48.584Z" style="fill:#e8e8e8;"/><path d="M316.169,307.561l-0.026,0.038c0.076,0.082 0.149,0.164 0.221,0.248l1.155,1.696c0.586,1.122 0.911,2.356 0.911,3.652c0,4.767 -4.386,8.701 -10.034,9.249c-0.603,0.035 -1.215,0.054 -1.836,0.057c-0.173,-0.006 -0.346,-0.015 -0.517,-0.027l-0.019,0.027l-68.064,0l-0.077,-0.113c-0.452,0.054 -0.908,0.085 -1.365,0.091c-0.672,-0.025 -1.333,-0.068 -1.981,-0.13c-1.203,-0.175 -2.386,-0.53 -3.498,-1.076c-4.621,-2.269 -6.488,-7.088 -4.701,-11.37l12.597,-18.484l66.233,0l11.001,16.142Z" style="fill:#e8e8e8;"/><path d="M349.523,141.511c0,-2.901 -2.355,-5.257 -5.257,-5.257l-66.591,0c-2.901,0 -5.257,2.356 -5.257,5.257l0,10.515c0,2.901 2.356,5.257 5.257,5.257l66.591,0c2.902,0 5.257,-2.356 5.257,-5.257l0,-10.515Z" style="fill:#8a98dd;"/><path d="M317.396,112.889c0,-2.901 -2.356,-5.257 -5.257,-5.257l-120.331,0c-2.901,0 -5.257,2.356 -5.257,5.257l0,10.514c0,2.902 2.356,5.258 5.257,5.258l120.331,0c2.901,0 5.257,-2.356 5.257,-5.258l0,-10.514Z" style="fill:#707dc1;"/><path d="M264.824,142.096c0,-2.902 -2.355,-5.258 -5.257,-5.258l-55.492,0c-2.902,0 -5.257,2.356 -5.257,5.258l0,10.514c0,2.901 2.355,5.257 5.257,5.257l55.492,0c2.902,0 5.257,-2.356 5.257,-5.257l0,-10.514Z" style="fill:#8a98dd;"/><path d="M317.98,170.718c0,-2.902 -2.355,-5.257 -5.257,-5.257l-120.331,0c-2.901,0 -5.257,2.355 -5.257,5.257l0,10.514c0,2.902 2.356,5.257 5.257,5.257l120.331,0c2.902,0 5.257,-2.355 5.257,-5.257l0,-10.514Z" style="fill:#707dc1;"/></g></svg>