<?xml version="1.0" encoding="UTF-8" standalone="no"?><!DOCTYPE svg PUBLIC "-//W3C//DTD SVG 1.1//EN" "http://www.w3.org/Graphics/SVG/1.1/DTD/svg11.dtd"><svg width="100%" height="100%" viewBox="0 0 545 463" version="1.1" xmlns="http://www.w3.org/2000/svg" xmlns:xlink="http://www.w3.org/1999/xlink" xml:space="preserve" xmlns:serif="http://www.serif.com/" style="fill-rule:evenodd;clip-rule:evenodd;stroke-linejoin:round;stroke-miterlimit:1.41421;"><path id="Background" d="M40.518,230.521l115.113,-199.382l230.227,0l115.113,199.382l-115.113,199.382l-230.227,0l-115.113,-199.382Z" style="fill:#83abba;"/><path id="emailShadow" d="M57.846,260.534l58.354,-109.805l17.816,-11.02l33.541,19.365l-18.723,32.429l107.253,-60.431l186.115,98.875l-106.228,199.956l-180.343,0l-97.785,-169.369Z" style="fill:#485f68;"/><path id="Email5" d="M138.331,239.691c5.137,-2.966 6.9,-9.546 3.934,-14.684l-10.749,-18.618c-2.966,-5.137 -9.546,-6.9 -14.684,-3.934l-29.846,17.232c-5.138,2.966 -6.901,9.546 -3.934,14.683l10.749,18.618c2.966,5.138 9.545,6.901 14.683,3.935l29.847,-17.232Z" style="fill:#8a98dd;"/><path id="Email4" d="M185.657,283.085c4.379,-2.528 5.881,-8.136 3.353,-12.514l-9.161,-15.868c-2.528,-4.379 -8.136,-5.881 -12.514,-3.353l-26.054,15.042c-4.379,2.528 -5.882,8.136 -3.354,12.515l9.162,15.867c2.528,4.379 8.135,5.881 12.514,3.353l26.054,-15.042Z" style="fill:#707dc1;"/><path id="Email3" d="M306.572,354.933c4.379,-2.528 5.881,-8.136 3.353,-12.514l-9.161,-15.868c-2.528,-4.379 -8.136,-5.881 -12.514,-3.353l-26.054,15.042c-4.379,2.528 -5.882,8.136 -3.354,12.515l9.162,15.867c2.528,4.379 8.135,5.881 12.514,3.353l26.054,-15.042Z" style="fill:#8a98dd;"/><path id="Email2" d="M163.46,163.922c4.379,-2.528 5.881,-8.135 3.353,-12.514l-9.161,-15.867c-2.528,-4.379 -8.136,-5.882 -12.514,-3.354l-26.054,15.043c-4.379,2.528 -5.882,8.135 -3.354,12.514l9.162,15.867c2.528,4.379 8.135,5.882 12.514,3.354l26.054,-15.043Z" style="fill:#707dc1;"/><path id="Email1" d="M213.137,364.168c6.239,-3.602 8.38,-11.592 4.778,-17.831l-13.053,-22.609c-3.602,-6.239 -11.592,-8.38 -17.831,-4.778l-37.123,21.433c-6.239,3.602 -8.38,11.592 -4.777,17.831l13.053,22.609c3.602,6.239 11.592,8.38 17.831,4.778l37.122,-21.433Z" style="fill:#8a98dd;"/><path id="Email" d="M174.294,221.444l-3.601,2.079c-4.747,2.741 -10.825,1.112 -13.565,-3.634l-9.93,-17.2c-2.741,-4.746 -1.112,-10.825 3.634,-13.565l81.952,-47.315c0.476,-0.275 0.966,-0.506 1.464,-0.694l30.407,-17.681c0.714,-0.413 1.451,-0.752 2.201,-1.021l57.41,-33.146c23.033,-13.298 52.531,-5.395 65.829,17.639l48.191,83.469c13.299,23.034 5.395,52.531 -17.639,65.83l-84.465,48.796c-5.933,3.426 -13.531,1.39 -16.956,-4.543l-12.413,-21.5l-0.051,-0.09c-0.051,0.011 -0.101,0.022 -0.152,0.034c-3.487,-3.148 -8.742,-3.851 -13.028,-1.376l-65.009,37.517c-4.499,2.597 -10.259,1.053 -12.857,-3.445l-9.411,-16.301c-2.597,-4.499 -1.054,-10.259 3.445,-12.857l0.415,-0.238c-0.101,-0.089 -0.202,-0.18 -0.301,-0.273l0.019,-0.011c6.701,-3.868 9,-12.449 5.131,-19.15l-21.059,-36.476c-3.869,-6.701 -12.45,-9 -19.151,-5.131l-0.505,0.291l-0.005,-0.008Z" style="fill:#b6b6b6;"/><clipPath id="_clip1"><path d="M174.294,221.444l-3.601,2.079c-4.747,2.741 -10.825,1.112 -13.565,-3.634l-9.93,-17.2c-2.741,-4.746 -1.112,-10.825 3.634,-13.565l81.952,-47.315c0.476,-0.275 0.966,-0.506 1.464,-0.694l30.407,-17.681c0.714,-0.413 1.451,-0.752 2.201,-1.021l57.41,-33.146c23.033,-13.298 52.531,-5.395 65.829,17.639l48.191,83.469c13.299,23.034 5.395,52.531 -17.639,65.83l-84.465,48.796c-5.933,3.426 -13.531,1.39 -16.956,-4.543l-12.413,-21.5l-0.051,-0.09c-0.051,0.011 -0.101,0.022 -0.152,0.034c-3.487,-3.148 -8.742,-3.851 -13.028,-1.376l-65.009,37.517c-4.499,2.597 -10.259,1.053 -12.857,-3.445l-9.411,-16.301c-2.597,-4.499 -1.054,-10.259 3.445,-12.857l0.415,-0.238c-0.101,-0.089 -0.202,-0.18 -0.301,-0.273l0.019,-0.011c6.701,-3.868 9,-12.449 5.131,-19.15l-21.059,-36.476c-3.869,-6.701 -12.45,-9 -19.151,-5.131l-0.505,0.291l-0.005,-0.008Z"/></clipPath><g clip-path="url(#_clip1)"><path d="M218.631,119.438l37.57,-65.074c8.181,-14.168 26.325,-19.03 40.494,-10.85l51.343,29.643c14.169,8.18 19.031,26.325 10.85,40.494l-61.481,106.488c-2.141,3.708 -4.964,6.779 -8.22,9.145c-5.368,5.39 -12.796,8.727 -20.997,8.727l-122.963,0c-16.36,0 -29.643,-13.282 -29.643,-29.643l0,-59.286c0,-16.361 13.283,-29.643 29.643,-29.644l73.404,0Z" style="fill:#e8e8e8;"/></g></svg>