<?xml version="1.0" encoding="UTF-8" standalone="no"?><!DOCTYPE svg PUBLIC "-//W3C//DTD SVG 1.1//EN" "http://www.w3.org/Graphics/SVG/1.1/DTD/svg11.dtd"><svg width="100%" height="100%" viewBox="0 0 25 25" version="1.1" xmlns="http://www.w3.org/2000/svg" xmlns:xlink="http://www.w3.org/1999/xlink" xml:space="preserve" xmlns:serif="http://www.serif.com/" style="fill-rule:evenodd;clip-rule:evenodd;stroke-linejoin:round;stroke-miterlimit:1.41421;"><path d="M0.885,19.69l0,-13.527l6.384,3.382l0,6.763l-6.384,3.382Z"/><path d="M14.554,6.827c5.103,0 9.245,2.818 9.245,6.289c0,3.472 -4.142,6.29 -9.245,6.29c-5.102,0 -9.244,-2.818 -9.244,-6.29c0,-3.471 4.142,-6.289 9.244,-6.289Zm3.998,2.307c0.873,0 1.581,0.708 1.581,1.58c0,0.872 -0.708,1.581 -1.581,1.581c-0.872,0 -1.58,-0.709 -1.58,-1.581c0,-0.872 0.708,-1.58 1.58,-1.58Z"/></svg>