<?xml version="1.0" encoding="UTF-8" standalone="no"?><!DOCTYPE svg PUBLIC "-//W3C//DTD SVG 1.1//EN" "http://www.w3.org/Graphics/SVG/1.1/DTD/svg11.dtd"><svg width="100%" height="100%" viewBox="0 0 50 50" version="1.1" xmlns="http://www.w3.org/2000/svg" xmlns:xlink="http://www.w3.org/1999/xlink" xml:space="preserve" xmlns:serif="http://www.serif.com/" style="fill-rule:evenodd;clip-rule:evenodd;stroke-linejoin:round;stroke-miterlimit:1.41421;"><path d="M19.314,34.957c0.394,-0.78 0.887,-1.202 1.166,-1.896c0.132,-0.328 0.506,-1.329 0.506,-1.69c0,-0.088 0.169,-1.074 0.316,-1.258c0.216,-0.268 0.73,-2.922 0.79,-3.026c0.351,-0.606 -0.2,-3.654 -0.474,-4.127c-0.197,-0.34 -0.347,-0.707 -0.569,-0.983c-0.252,-0.314 -0.409,-0.784 -0.632,-1.061c-0.068,-0.085 -0.595,-0.976 -0.664,-1.061c-0.178,-0.222 -0.937,-0.852 -1.011,-0.943c-0.181,-0.225 -0.614,-0.253 -0.822,-0.511c-0.025,-0.032 -0.633,-0.354 -0.885,-0.354c-0.229,0 -1.389,0.079 -1.485,0.079c-0.405,0 -0.748,0.025 -0.948,0.275c-0.069,0.085 -0.931,0.882 -1.075,1.061c-0.019,0.024 -0.809,0.605 -0.853,0.55c-0.034,-0.042 0.415,-0.949 0.442,-0.982c0.185,-0.231 0.352,-0.595 0.538,-0.826c0.212,-0.264 0.308,-0.54 0.505,-0.786c0.071,-0.088 -0.246,-0.621 -0.316,-0.707c-0.303,-0.377 -0.416,-0.8 -0.632,-1.337c-0.116,-0.289 -0.386,-1.721 -0.379,-1.729c0.041,-0.051 0.358,0.013 0.411,0.079c0.077,0.096 0.404,0.895 0.537,1.061c0.148,0.183 0.295,0.799 0.443,0.982c0.2,0.25 0.705,0.564 0.758,0.629c0.124,0.154 1.434,0.182 1.485,0.118c0.076,-0.094 1.689,0.214 1.897,0.472c0.174,0.216 0.718,0.432 0.758,0.432c0.215,0 1.018,0.676 1.043,0.708c0.09,0.112 1.404,1.234 1.739,1.1c0.01,-0.004 -0.249,-1.134 -0.38,-1.297c-0.301,-0.375 -0.529,-0.697 -0.853,-1.1c-0.121,-0.151 -0.163,-0.4 -0.284,-0.551c-0.172,-0.213 -0.761,-0.473 -0.885,-0.629c-0.276,-0.342 -0.687,-0.814 -0.98,-1.179c-0.2,-0.248 -0.542,-0.831 -0.727,-1.061c-0.223,-0.277 -0.823,-0.709 -1.011,-0.825c-0.258,-0.159 -0.534,-0.232 -0.696,-0.433c-0.144,-0.179 -0.889,-0.123 -1.011,-0.275c-0.099,-0.122 -0.516,-0.445 -0.664,-0.629c-0.135,-0.167 -0.521,-0.57 -0.569,-0.628c-0.142,-0.178 -0.223,-0.516 -0.316,-0.747c-0.108,-0.268 -0.645,-1.36 -0.632,-1.376c0.247,-0.307 0.881,0.348 1.043,0.55c0.063,0.079 0.605,0.946 0.664,0.983c0.112,0.07 0.864,0.576 0.885,0.55c0.098,-0.122 0,-1.395 0,-1.611c0,-0.255 -0.392,-1.156 -0.506,-1.297c-0.228,-0.284 -0.41,-0.667 -0.632,-0.944c-0.168,-0.209 -0.937,-0.819 -0.79,-0.943c0.161,-0.136 1.812,0.694 1.991,1.061c0.175,0.36 0.948,1.687 0.885,1.887c-0.04,0.125 0.175,1.671 0.253,1.769c0.196,0.243 1.007,0.742 1.106,0.864c0.238,0.297 1.261,1.021 1.58,1.219c0.244,0.151 0.701,-0.858 0.822,-1.415c0.028,-0.131 0.194,-1.171 0.221,-1.219c0.536,-0.93 0.435,-2.261 -0.018,-3.194c-0.457,-0.941 -1.268,-1.481 -1.246,-1.758c0.021,-0.257 0.736,0.051 0.759,0.079c0.179,0.223 0.536,0.195 0.695,0.393c0.105,0.131 0.805,-0.532 0.916,-0.393c0.188,0.233 -0.461,0.762 -0.252,1.022c0.1,0.124 0.31,0.936 0.41,1.061c0.057,0.07 0.095,1.151 0.095,1.572c0,0.236 -0.411,2.408 -0.411,2.515c0,0.42 0,0.839 0,1.258c0,0.27 0.325,1.662 0.443,1.808c0.235,0.292 0.341,0.7 0.569,0.983c0.205,0.255 0.446,0.436 0.632,0.668c0.211,0.263 0.371,0.58 0.6,0.865c0.026,0.032 0.548,1.741 0.632,1.847c0.137,0.17 0.629,0.472 0.664,0.472c0.337,0 0.539,-0.946 0.664,-1.101c0.053,-0.065 0.391,-0.899 0.6,-1.101c0.459,-0.44 1.648,-1.614 2.086,-1.925c0.195,-0.139 0.427,-0.353 0.885,-0.551c0.003,-0.001 0.988,-0.515 1.043,-0.55c0.19,-0.118 1.261,-0.506 1.454,-0.747c0.037,-0.046 0.127,-0.823 0.127,-1.14c0,-0.815 0.252,-1.619 0.252,-2.436c0,-0.318 0.767,-1.405 0.885,-1.258c0.126,0.156 -0.189,1.179 -0.189,1.572c0,0.565 -0.168,1.122 -0.095,1.729c0.032,0.263 -0.22,0.71 0.032,1.062c0.024,0.033 0.966,0.062 1.359,0.078c0.074,0.003 0.773,-0.215 1.043,-0.314c0.125,-0.046 0.193,-1.056 0.158,-1.101c-0.064,-0.079 0.478,-1.213 0.505,-1.179c0.053,0.066 -0.212,2.056 -0.031,2.28c0.03,0.037 1.069,-0.125 1.169,0c0.056,0.07 -0.388,0.673 -0.632,0.825c-0.146,0.091 -0.674,0.052 -0.79,0.197c-0.058,0.072 -1.15,0.211 -1.233,0.314c-0.202,0.252 -1.031,0.203 -1.102,0.197c-0.001,0 -0.003,0 -0.004,0l0.004,0c0.131,0.023 1.207,0.955 1.26,1.022c0.215,0.266 0.827,0.854 0.948,0.904c0.152,0.062 0.368,0.982 0.569,1.454c0.093,0.218 0.157,1.15 0,1.336c-0.129,0.154 -0.726,-1.075 -0.758,-1.415c-0.021,-0.223 -1.009,-1.211 -1.454,-1.336c-0.259,-0.073 -0.859,-0.557 -0.885,-0.59c-0.013,-0.016 -1.344,-0.175 -1.422,-0.157c-0.621,0.143 -0.802,0.054 -1.106,0.432c-0.149,0.185 -1.075,0.669 -1.107,0.708c-0.303,0.377 -0.899,0.804 -1.232,1.218c-0.205,0.256 -0.572,1.145 -0.569,1.455c0.004,0.462 1.852,-0.1 2.244,-0.118c0.156,-0.007 1.62,-0.226 1.801,0c0.038,0.047 -0.666,0.514 -0.821,0.707c-0.074,0.092 -0.482,0.197 -0.696,0.197c-0.083,0 -1.011,0.118 -1.169,0.314c-0.16,0.199 0.25,0.233 0.379,0.393c0.127,0.157 0.39,1.035 0.506,1.179c0.191,0.239 0.086,0.602 0,0.904c-0.061,0.214 -0.749,-1.049 -0.917,-1.257c-0.023,-0.03 -0.928,-0.419 -1.011,-0.315c-0.237,0.295 -1.037,0.7 -1.106,0.786c-0.095,0.118 -0.59,1.852 -0.664,2.083c-0.21,0.653 0.294,4.091 0.474,4.756c0.017,0.062 0.269,1.648 0.379,2.005c0.167,0.539 1.021,2.623 1.043,2.65c0.194,0.241 0.568,1.089 0.731,1.51l0.021,-0.001c0.015,0.31 0.525,0.88 1.053,0.966c0.445,0.073 1.98,0.137 2.184,0.347c0.255,0.26 -1.361,0.578 -1.189,0.764c0.033,0.036 1.773,1.346 1.952,1.485c1.063,0.824 4.383,-1.187 4.403,-1.205c0.342,-0.326 -0.389,1.174 -0.537,1.249c-0.118,0.06 -1.151,0.823 -1.35,1.107c-0.049,0.07 2.006,0.311 2.068,0.378c0.124,0.134 0.649,0.05 0.799,0.128c0.252,0.131 0.729,0.695 0.677,0.77c-0.093,0.133 -0.886,0.185 -0.914,0.224c-0.167,0.239 -0.045,2.077 -0.094,2.147c-0.026,0.037 -0.389,-0.029 -0.57,-1.133c-0.072,-0.438 -0.092,-1.049 -0.22,-1.085c-0.274,-0.076 -0.983,-0.234 -1.058,-0.225c-0.39,0.05 -1.127,0.284 -1.351,0.194c-0.362,-0.143 0.045,0.797 0.028,1.062c-0.039,0.612 0.159,1.153 0.191,1.717c0.022,0.392 0.393,1.386 0.277,1.552c-0.11,0.157 -0.935,-0.863 -0.953,-1.179c-0.046,-0.816 -0.343,-1.597 -0.389,-2.41c-0.017,-0.316 -0.15,-1.084 -0.189,-1.126c-0.207,-0.224 -1.297,-0.52 -1.492,-0.622c-0.058,-0.029 -2.239,-1.186 -2.44,-1.308c-0.455,-0.274 -1.252,-0.969 -1.734,-1.369c-0.22,-0.183 -1.193,-1.439 -1.21,-1.292c-0.06,0.549 1.461,2.732 1.625,2.895c0.225,0.223 1.96,1.706 2.052,1.886c0.076,0.146 0.428,0.57 0.541,0.788c0.103,0.199 0.412,0.693 0.448,0.763c0.109,0.211 0.13,0.562 0.181,0.813c0.059,0.29 0.398,1.497 0.382,1.509c-0.294,0.236 -0.864,-0.272 -0.925,-0.81c-0.049,-0.428 -0.964,-2.172 -1.251,-1.903c-0.11,0.104 -0.239,1.364 -0.276,1.575c-0.044,0.249 0.558,2.159 0.728,2.487c0.128,0.249 0.774,1.046 0.61,1.128c-0.181,0.091 -1.653,-1.151 -1.764,-1.557c-0.109,-0.397 -0.638,-1.896 -0.541,-2.075c0.06,-0.111 0.055,-1.657 0.056,-1.795c0.003,-0.497 -1.846,-2.657 -2.268,-2.737c-0.269,-0.051 -0.706,0.22 -0.995,0.669c-0.328,0.508 -1.302,3.453 -1.006,4.759c0.221,0.981 0.848,1.839 0.916,2.043c0.079,0.239 -1.219,-0.606 -1.34,-0.84c-0.081,-0.156 -0.828,0.808 -0.913,0.644c-0.143,-0.278 0.532,-1.124 0.372,-1.432c-0.077,-0.148 -0.143,-0.997 -0.22,-1.145c-0.043,-0.083 0.105,-1.149 0.177,-1.561c0.041,-0.231 0.815,-2.246 0.834,-2.351c0.072,-0.41 0.144,-0.82 0.215,-1.229c0.047,-0.264 0.373,-1.897 0.283,-2.07c-0.108,-0.209 -0.09,-0.538 -0.097,-0.839c-0.135,0.042 -0.228,0.081 -0.252,0.115c-0.079,0.113 -0.706,1.925 -0.73,1.959c-0.212,0.304 -0.354,0.634 -0.551,0.914c-0.172,0.247 -0.403,0.449 -0.593,0.721c-0.211,0.301 -0.294,0.717 -0.512,1.028c-0.11,0.156 -0.356,1.572 -0.341,1.842c0.024,0.418 0.047,0.836 0.07,1.254c0.006,0.108 0.538,2.24 0.551,2.475c0.023,0.42 0.046,1.501 -0.007,1.576c-0.093,0.133 -0.258,0.961 -0.35,1.094c-0.194,0.277 0.483,0.749 0.309,0.998c-0.103,0.147 -0.839,-0.454 -0.936,-0.314c-0.148,0.21 -0.505,0.213 -0.672,0.451c-0.021,0.03 -0.718,0.398 -0.753,0.143c-0.037,-0.274 0.742,-0.882 1.145,-1.859c0.4,-0.97 0.427,-2.307 -0.16,-3.189c-0.03,-0.046 -0.253,-1.069 -0.289,-1.197c-0.152,-0.545 -0.664,-1.513 -0.899,-1.341c-0.307,0.224 -1.287,1.033 -1.508,1.349c-0.092,0.131 -0.874,0.698 -1.055,0.957c-0.073,0.104 -0.2,1.665 -0.154,1.786c0.075,0.195 -0.623,1.584 -0.777,1.958c-0.158,0.381 -1.759,1.349 -1.927,1.228c-0.153,-0.111 0.579,-0.786 0.735,-1.009c0.206,-0.294 0.366,-0.692 0.578,-0.994c0.106,-0.151 0.446,-1.083 0.432,-1.337c-0.012,-0.216 0.015,-1.495 -0.09,-1.608c-0.022,-0.024 -0.744,0.545 -0.852,0.624c-0.057,0.042 -0.549,0.953 -0.607,1.037c-0.151,0.215 -0.747,0.923 -1.01,0.638c-0.014,-0.016 0.461,-1.15 0.554,-1.427c0.08,-0.238 0.141,-0.582 0.273,-0.771c0.044,-0.063 0.408,-0.498 0.533,-0.676c0.137,-0.196 0.535,-0.553 0.627,-0.684c0.113,-0.161 0.86,-0.17 0.993,-0.361c0.15,-0.214 0.421,-0.309 0.67,-0.49c0.181,-0.132 2.728,-2.237 2.935,-2.532c0.171,-0.244 1.216,-2.804 1.496,-3.204c0.121,-0.173 0.316,-1.323 0.306,-1.326c-0.342,-0.105 -1.59,1.126 -1.673,1.246c-0.024,0.034 -0.787,0.776 -1.001,0.794c-0.04,0.004 -0.571,0.265 -0.733,0.496c-0.192,0.275 -1.784,0.719 -1.865,0.632c-0.055,-0.06 -1.361,0.08 -1.475,0.244c-0.049,0.07 -0.536,0.426 -0.722,0.692c-0.137,0.195 -0.25,0.822 -0.387,1.018c-0.123,0.176 -0.404,1.001 -0.476,1.104c-0.049,0.07 -0.362,0.161 -0.406,0.113c-0.007,-0.007 0.182,-1.459 0.282,-1.757c0.185,-0.554 0.275,-0.985 0.556,-1.387c0.065,-0.092 0.351,-0.651 0.276,-0.733c-0.211,-0.228 -0.322,-0.495 -0.549,-0.741c-0.198,-0.215 -0.384,-0.564 -0.582,-0.778c-0.029,-0.031 -0.528,-0.897 -0.496,-0.942c0.041,-0.059 0.861,0.454 0.882,0.476c0.153,0.166 1.058,0.888 1.131,0.967c0.214,0.232 0.557,0.229 0.962,0.194c0.095,-0.008 1.257,-0.028 1.486,-0.048c0.251,-0.021 0.839,-0.394 0.863,-0.428c0.192,-0.275 0.623,-0.34 0.791,-0.58c0.069,-0.097 0.791,-0.79 0.956,-1.027l0.013,0Z" style="fill:#7d3529;"/><path d="M21.8,2.6c-0.002,-0.014 -0.004,-0.029 -0.005,-0.044c0.128,-0.128 0.358,-0.203 0.81,-0.162c0.052,-0.008 0.103,-0.014 0.155,-0.019c0.002,0.013 0.004,0.025 0.005,0.037c0.027,0.004 0.054,0.008 0.082,0.012c-0.446,-0.298 -0.522,-0.698 -0.497,-1.124c0.464,0.105 0.907,0.3 1.301,0.694c-0.084,-0.246 0.074,-0.478 0.497,-0.694c0.467,0.246 0.642,0.446 0.568,0.606c-0.024,0.028 -0.048,0.058 -0.072,0.088c0.033,-0.028 0.057,-0.057 0.072,-0.088c0.352,-0.412 0.775,-0.566 1.229,-0.606c0.039,0.259 0.017,0.493 -0.083,0.695c0.253,0.115 0.494,0.276 0.719,0.501c-0.084,-0.246 0.074,-0.478 0.497,-0.694c0.467,0.246 0.643,0.446 0.568,0.606c-0.024,0.028 -0.048,0.058 -0.071,0.088c0.033,-0.028 0.057,-0.057 0.071,-0.088c0.352,-0.412 0.775,-0.566 1.23,-0.606c0.069,0.459 -0.055,0.838 -0.457,1.099c-0.013,0.008 -0.027,0.016 -0.04,0.025c0.014,-0.009 0.027,-0.017 0.04,-0.025c0.392,-0.236 0.725,-0.16 1.012,0.157c-0.046,0.32 -0.322,0.489 -0.745,0.563c0.936,0.122 1.233,0.383 1.301,0.694c-0.408,0.119 -0.879,0.18 -1.608,0c0.12,0.178 0.187,0.418 0.153,0.777c-0.016,0 -0.033,-0.001 -0.049,-0.001c0.176,0.185 0.289,0.429 0.297,0.771c0.021,0.023 0.039,0.047 0.055,0.071c0.131,-0.154 0.442,-0.228 0.898,-0.237c0.019,0.195 0.007,0.356 -0.027,0.49c0.059,0.002 0.12,0.007 0.182,0.015c-0.007,0.072 -0.019,0.143 -0.035,0.213c0.578,-0.104 0.98,-0.045 1.335,0.059c-0.054,0.245 -0.25,0.459 -0.789,0.599c0.355,0.117 0.693,0.304 1.002,0.613c-0.081,-0.239 0.064,-0.464 0.457,-0.674c-0.243,-0.014 -0.388,-0.079 -0.48,-0.171c0.023,-0.274 0.251,-0.469 0.745,-0.562c-0.723,-0.063 -1.123,-0.314 -1.3,-0.695c0.572,-0.209 1.11,-0.22 1.607,0c-0.228,-0.277 -0.199,-0.528 -0.153,-0.777c0.526,-0.076 0.845,0.04 0.957,0.347c-0.062,-0.518 0.13,-0.876 0.497,-1.124c0.196,0.135 0.351,0.309 0.435,0.549c0.435,-0.094 0.848,-0.064 1.237,0.108c-0.228,-0.276 -0.199,-0.527 -0.153,-0.776c0.526,-0.077 0.845,0.039 0.957,0.347c-0.062,-0.519 0.13,-0.876 0.497,-1.124c0.326,0.224 0.538,0.555 0.497,1.124c0.063,-0.23 0.403,-0.336 0.957,-0.347c0.034,0.358 -0.033,0.599 -0.153,0.776c0.729,-0.179 1.2,-0.119 1.607,0c-0.067,0.311 -0.364,0.573 -1.3,0.695c0.026,0.005 0.052,0.01 0.077,0.015l0.003,-0.016c0.526,-0.077 0.845,0.039 0.958,0.347c-0.063,-0.518 0.13,-0.876 0.497,-1.124c0.326,0.224 0.538,0.555 0.497,1.124c0.063,-0.23 0.403,-0.336 0.957,-0.347c0.034,0.359 -0.033,0.599 -0.154,0.776c0.73,-0.179 1.201,-0.118 1.608,0c-0.067,0.311 -0.364,0.573 -1.301,0.695c0.423,0.074 0.7,0.243 0.746,0.562c-0.231,0.256 -0.492,0.355 -0.789,0.261c0.007,0.033 0.013,0.067 0.018,0.103c0.048,0.055 0.088,0.113 0.12,0.174c0.153,-0.119 0.442,-0.177 0.844,-0.186c0.034,0.359 -0.033,0.6 -0.153,0.777c0.729,-0.179 1.2,-0.119 1.608,0c-0.068,0.311 -0.365,0.572 -1.301,0.695c0.026,0.005 0.052,0.01 0.078,0.015l0.003,-0.016c0.525,-0.077 0.845,0.039 0.957,0.347c-0.062,-0.519 0.13,-0.876 0.497,-1.124c0.326,0.224 0.538,0.555 0.497,1.124c0.063,-0.23 0.403,-0.336 0.957,-0.347c0.034,0.358 -0.033,0.599 -0.153,0.776c0.729,-0.179 1.2,-0.119 1.607,0c-0.067,0.311 -0.364,0.573 -1.3,0.695c0.422,0.073 0.699,0.243 0.745,0.562c-0.187,0.207 -0.394,0.311 -0.623,0.294c0.001,0.088 -0.007,0.172 -0.023,0.253c0.051,0.098 0.083,0.205 0.098,0.319c0.189,0.105 0.37,0.24 0.543,0.412c-0.084,-0.246 0.073,-0.478 0.496,-0.695c0.468,0.247 0.643,0.447 0.569,0.607c-0.025,0.028 -0.048,0.057 -0.072,0.088c0.033,-0.028 0.057,-0.058 0.072,-0.088c0.351,-0.413 0.775,-0.566 1.229,-0.607c0.069,0.46 -0.054,0.838 -0.456,1.099c-0.014,0.008 -0.027,0.017 -0.041,0.025c0.014,-0.008 0.027,-0.016 0.041,-0.025c0.391,-0.235 0.724,-0.159 1.011,0.158c-0.046,0.32 -0.322,0.489 -0.745,0.562c0.936,0.123 1.233,0.384 1.301,0.695c-0.408,0.119 -0.879,0.179 -1.608,0c0.12,0.178 0.187,0.418 0.154,0.777c-0.554,-0.012 -0.894,-0.118 -0.958,-0.348c0.041,0.569 -0.17,0.901 -0.497,1.124c-0.093,-0.063 -0.175,-0.133 -0.245,-0.211c-0.005,0.011 -0.011,0.023 -0.017,0.034c0.012,0.031 0.021,0.062 0.028,0.094c-0.036,0.011 -0.073,0.021 -0.11,0.03c-0.071,0.091 -0.162,0.173 -0.274,0.246c-0.013,0.008 -0.027,0.016 -0.04,0.025c0.013,-0.008 0.027,-0.017 0.04,-0.025c0.391,-0.236 0.724,-0.16 1.012,0.158c-0.045,0.309 -0.306,0.478 -0.706,0.555c0.129,-0.022 0.263,-0.025 0.401,-0.016c-0.008,0.032 -0.015,0.063 -0.023,0.095c0.611,0.139 0.827,0.363 0.883,0.622c-0.319,0.094 -0.677,0.151 -1.168,0.085c-0.078,0.133 -0.171,0.263 -0.283,0.387c0.003,0.029 0.005,0.059 0.005,0.09c0.206,-0.01 0.401,0.158 0.586,0.518c-0.247,0.467 -0.447,0.643 -0.607,0.568c-0.028,-0.024 -0.057,-0.048 -0.088,-0.071c0.028,0.033 0.057,0.057 0.088,0.071c0.413,0.352 0.566,0.775 0.607,1.23c-0.26,0.039 -0.494,0.016 -0.695,-0.083c-0.116,0.252 -0.277,0.493 -0.502,0.719c0.246,-0.084 0.478,0.074 0.695,0.496c-0.247,0.468 -0.447,0.643 -0.607,0.569c-0.028,-0.025 -0.057,-0.048 -0.088,-0.072c0.028,0.033 0.057,0.057 0.088,0.072c0.413,0.352 0.566,0.775 0.607,1.229c-0.46,0.069 -0.838,-0.054 -1.099,-0.456c-0.008,-0.014 -0.017,-0.027 -0.026,-0.041c0.009,0.014 0.017,0.027 0.026,0.041c0.235,0.391 0.159,0.724 -0.158,1.011c-0.32,-0.046 -0.489,-0.322 -0.562,-0.745c-0.123,0.936 -0.384,1.233 -0.695,1.301c-0.119,-0.408 -0.179,-0.878 0,-1.608c-0.178,0.12 -0.418,0.187 -0.777,0.154c0.011,-0.554 0.118,-0.894 0.348,-0.958c-0.569,0.042 -0.901,-0.17 -1.125,-0.497c0.248,-0.366 0.606,-0.559 1.125,-0.496c-0.308,-0.113 -0.424,-0.432 -0.348,-0.958l0.017,-0.003c-0.006,-0.025 -0.011,-0.051 -0.015,-0.078c-0.123,0.937 -0.384,1.234 -0.695,1.301c-0.119,-0.407 -0.18,-0.878 0,-1.608c-0.065,0.044 -0.137,0.081 -0.221,0.108c-0.056,0.348 -0.237,0.579 -0.484,0.748c-0.367,-0.248 -0.559,-0.605 -0.497,-1.124c-0.112,0.308 -0.431,0.424 -0.957,0.347c-0.046,-0.249 -0.075,-0.5 0.153,-0.776c-0.275,0.121 -0.563,0.172 -0.863,0.158c-0.001,0.011 -0.002,0.022 -0.003,0.033c-0.146,-0.003 -0.277,-0.012 -0.392,-0.029c-0.049,0.12 -0.116,0.222 -0.198,0.311c0.189,0.213 0.296,0.503 0.265,0.922c0.064,-0.23 0.404,-0.336 0.958,-0.347c0.033,0.359 -0.034,0.599 -0.154,0.776c0.729,-0.179 1.2,-0.119 1.608,0c-0.068,0.311 -0.365,0.573 -1.301,0.695c0.423,0.074 0.699,0.243 0.745,0.562c-0.287,0.318 -0.62,0.393 -1.012,0.158c-0.013,-0.008 -0.026,-0.017 -0.04,-0.025c0.014,0.009 0.027,0.017 0.04,0.025c0.359,0.233 0.496,0.559 0.472,0.953c0.058,0.058 0.112,0.124 0.16,0.196c-0.134,0.197 -0.308,0.352 -0.549,0.435c0.095,0.435 0.064,0.849 -0.108,1.238c0.277,-0.229 0.528,-0.2 0.777,-0.154c0.076,0.526 -0.039,0.845 -0.347,0.957c0.518,-0.062 0.876,0.13 1.124,0.497c-0.224,0.327 -0.556,0.538 -1.124,0.497c0.229,0.064 0.336,0.404 0.347,0.958c-0.359,0.033 -0.599,-0.034 -0.777,-0.154c0.18,0.729 0.119,1.2 0,1.608c-0.311,-0.068 -0.572,-0.365 -0.694,-1.301c-0.005,0.027 -0.01,0.052 -0.015,0.078l0.016,0.003c0.076,0.526 -0.04,0.845 -0.347,0.957c0.518,-0.062 0.876,0.13 1.124,0.497c-0.224,0.327 -0.556,0.538 -1.124,0.497c0.229,0.063 0.336,0.403 0.347,0.957c-0.359,0.034 -0.599,-0.033 -0.777,-0.153c0.18,0.729 0.119,1.2 0,1.608c-0.311,-0.068 -0.572,-0.365 -0.695,-1.301c-0.073,0.423 -0.242,0.699 -0.562,0.745c-0.317,-0.287 -0.393,-0.62 -0.158,-1.012c0.009,-0.013 0.017,-0.026 0.026,-0.04c-0.009,0.013 -0.018,0.027 -0.026,0.04c-0.26,0.402 -0.639,0.526 -1.099,0.457c0.041,-0.455 0.195,-0.878 0.607,-1.23c0.031,-0.014 0.06,-0.038 0.088,-0.071c-0.03,0.023 -0.06,0.047 -0.088,0.071c-0.16,0.075 -0.36,-0.101 -0.607,-0.568c0.217,-0.423 0.449,-0.581 0.695,-0.497c-0.225,-0.225 -0.386,-0.466 -0.501,-0.719c-0.11,0.055 -0.23,0.086 -0.358,0.097c0.033,0.403 -0.021,0.713 -0.103,0.993c-0.311,-0.067 -0.572,-0.364 -0.695,-1.3c-0.073,0.422 -0.242,0.699 -0.562,0.745c-0.14,-0.127 -0.233,-0.262 -0.273,-0.408c-0.019,0.173 -0.054,0.328 -0.097,0.475c-0.216,-0.046 -0.408,-0.204 -0.546,-0.609c-0.055,0.005 -0.112,0.006 -0.17,0.003c-0.057,0.171 -0.165,0.285 -0.325,0.344c0.518,-0.062 0.876,0.13 1.124,0.497c-0.224,0.326 -0.555,0.538 -1.124,0.497c0.23,0.063 0.336,0.403 0.347,0.957c-0.359,0.034 -0.599,-0.033 -0.776,-0.154c0.179,0.73 0.119,1.201 0,1.608c-0.311,-0.067 -0.573,-0.364 -0.695,-1.3c-0.074,0.422 -0.243,0.699 -0.562,0.745c-0.318,-0.288 -0.393,-0.621 -0.158,-1.012c0.008,-0.013 0.017,-0.027 0.025,-0.041c-0.009,0.014 -0.017,0.028 -0.025,0.041c-0.261,0.402 -0.639,0.526 -1.099,0.456c0.041,-0.454 0.194,-0.877 0.606,-1.229c0.031,-0.015 0.061,-0.038 0.089,-0.071c-0.031,0.023 -0.061,0.047 -0.089,0.071c-0.159,0.074 -0.359,-0.101 -0.606,-0.568c0.216,-0.423 0.449,-0.581 0.695,-0.497c-0.226,-0.225 -0.386,-0.467 -0.502,-0.719c-0.005,0.003 -0.01,0.005 -0.015,0.007l-0.003,0.009l-0.011,-0.002c-0.194,0.088 -0.418,0.106 -0.666,0.069c0.018,-0.198 0.057,-0.39 0.13,-0.573c-0.061,-0.147 -0.111,-0.333 -0.148,-0.568c-0.073,0.349 -0.242,0.577 -0.562,0.615c-0.318,-0.237 -0.393,-0.512 -0.158,-0.835c0.008,-0.011 0.017,-0.022 0.025,-0.033c-0.009,0.011 -0.017,0.022 -0.025,0.033c-0.261,0.332 -0.639,0.434 -1.099,0.377c0.041,-0.375 0.194,-0.724 0.606,-1.015c0.031,-0.012 0.061,-0.031 0.089,-0.059c-0.031,0.02 -0.06,0.039 -0.089,0.059c-0.159,0.062 -0.359,-0.083 -0.606,-0.469c0.12,-0.193 0.245,-0.319 0.374,-0.381c-0.045,-0.043 -0.089,-0.089 -0.132,-0.139c-0.014,-0.031 -0.038,-0.061 -0.071,-0.089c0.024,0.031 0.047,0.06 0.071,0.089c0.075,0.159 -0.101,0.359 -0.568,0.606c-0.423,-0.217 -0.58,-0.449 -0.497,-0.695c-0.394,0.395 -0.836,0.59 -1.3,0.695c-0.026,-0.427 0.051,-0.826 0.497,-1.124c-0.028,0.004 -0.056,0.008 -0.082,0.012c-0.002,0.012 -0.004,0.024 -0.005,0.036c-0.052,-0.004 -0.104,-0.01 -0.155,-0.018c-0.453,0.041 -0.682,-0.035 -0.811,-0.163c0.005,-0.051 0.016,-0.1 0.035,-0.145c-0.104,-0.077 -0.204,-0.169 -0.299,-0.28c-0.014,-0.031 -0.038,-0.06 -0.071,-0.088c0.023,0.03 0.047,0.06 0.071,0.088c0.075,0.16 -0.101,0.359 -0.568,0.606c-0.423,-0.216 -0.581,-0.448 -0.497,-0.694c-0.394,0.394 -0.836,0.589 -1.301,0.694c-0.025,-0.427 0.051,-0.826 0.497,-1.124c-0.616,0.094 -0.903,0.017 -1.052,-0.133c0.023,-0.273 0.251,-0.468 0.745,-0.562c-0.024,-0.002 -0.048,-0.004 -0.072,-0.007c-0.073,0.022 -0.146,0.041 -0.219,0.058c-0.002,-0.03 -0.003,-0.06 -0.004,-0.09c-0.254,-0.046 -0.458,-0.122 -0.618,-0.223c-0.082,-0.008 -0.163,-0.019 -0.243,-0.035c-0.105,0.063 -0.213,0.074 -0.324,0.036c0.395,0.394 0.59,0.836 0.695,1.301c-0.427,0.025 -0.826,-0.051 -1.124,-0.497c0.004,0.028 0.008,0.055 0.012,0.082c0.012,0.001 0.024,0.003 0.037,0.005c-0.005,0.052 -0.011,0.103 -0.019,0.154c0.041,0.453 -0.034,0.683 -0.163,0.811c-0.051,-0.004 -0.1,-0.016 -0.145,-0.035c-0.077,0.105 -0.169,0.205 -0.28,0.299c-0.031,0.015 -0.06,0.039 -0.088,0.072c0.031,-0.024 0.06,-0.048 0.088,-0.072c0.16,-0.074 0.36,0.101 0.607,0.568c-0.217,0.423 -0.449,0.581 -0.695,0.497c0.394,0.394 0.589,0.837 0.695,1.301c-0.427,0.025 -0.826,-0.051 -1.125,-0.497c0.094,0.616 0.017,0.903 -0.132,1.052c-0.274,-0.022 -0.469,-0.25 -0.562,-0.745c-0.063,0.724 -0.314,1.123 -0.695,1.301c-0.208,-0.572 -0.22,-1.11 0,-1.608c-0.277,0.228 -0.528,0.2 -0.777,0.154c-0.076,-0.526 0.04,-0.845 0.347,-0.958c-0.518,0.063 -0.876,-0.13 -1.124,-0.497c0.135,-0.196 0.309,-0.351 0.549,-0.434c-0.094,-0.435 -0.063,-0.849 0.108,-1.238c-0.276,0.229 -0.527,0.2 -0.776,0.154c-0.057,-0.391 -0.008,-0.668 0.148,-0.83c-0.054,-0.041 -0.099,-0.082 -0.136,-0.124c-0.157,-0.018 -0.296,-0.065 -0.418,-0.138c-0.18,0.127 -0.367,0.224 -0.559,0.297c-0.083,0.119 -0.188,0.217 -0.309,0.3c-0.366,-0.248 -0.559,-0.606 -0.496,-1.125c-0.113,0.308 -0.432,0.424 -0.958,0.348l-0.003,-0.017c-0.025,0.006 -0.051,0.011 -0.078,0.015c0.937,0.123 1.234,0.384 1.301,0.695c-0.408,0.119 -0.878,0.18 -1.608,0c0.12,0.178 0.188,0.418 0.154,0.777c-0.554,-0.011 -0.894,-0.118 -0.958,-0.347c0.008,0.105 0.007,0.201 -0.002,0.291l0,0.004l0,0c-0.04,0.394 -0.229,0.647 -0.494,0.829c-0.062,-0.042 -0.118,-0.086 -0.169,-0.134c-0.001,0.293 -0.048,0.536 -0.113,0.759c-0.311,-0.067 -0.573,-0.364 -0.695,-1.3c-0.005,0.026 -0.01,0.052 -0.015,0.077l0.016,0.003c0.076,0.526 -0.039,0.845 -0.347,0.958c0.518,-0.063 0.876,0.13 1.124,0.497c-0.224,0.326 -0.555,0.538 -1.124,0.496c0.23,0.064 0.336,0.404 0.347,0.958c-0.359,0.033 -0.599,-0.034 -0.777,-0.154c0.18,0.73 0.119,1.2 0,1.608c-0.311,-0.067 -0.572,-0.364 -0.694,-1.301c-0.074,0.423 -0.243,0.699 -0.562,0.746c-0.318,-0.288 -0.394,-0.621 -0.158,-1.012c0.008,-0.013 0.017,-0.027 0.025,-0.041c-0.009,0.014 -0.017,0.027 -0.025,0.041c-0.261,0.402 -0.64,0.525 -1.099,0.456c0.041,-0.454 0.194,-0.877 0.606,-1.229c0.031,-0.015 0.061,-0.039 0.089,-0.072c-0.031,0.024 -0.061,0.048 -0.089,0.072c-0.16,0.074 -0.359,-0.101 -0.606,-0.568c0.216,-0.423 0.448,-0.581 0.695,-0.497c-0.226,-0.226 -0.387,-0.467 -0.502,-0.719c-0.202,0.099 -0.435,0.122 -0.695,0.083c0.041,-0.455 0.194,-0.878 0.606,-1.23c0.031,-0.014 0.061,-0.038 0.089,-0.071c-0.031,0.023 -0.061,0.047 -0.089,0.071c-0.16,0.075 -0.359,-0.101 -0.606,-0.568c0.054,-0.106 0.11,-0.196 0.166,-0.269c-0.182,0.043 -0.37,0.058 -0.562,0.046c0.344,0.374 0.521,0.788 0.619,1.222c-0.427,0.025 -0.826,-0.051 -1.125,-0.497c0.095,0.616 0.017,0.903 -0.132,1.052c-0.274,-0.023 -0.469,-0.251 -0.562,-0.745c-0.063,0.723 -0.314,1.123 -0.695,1.301c-0.208,-0.573 -0.22,-1.11 0,-1.608c-0.277,0.228 -0.528,0.199 -0.777,0.153c-0.076,-0.526 0.04,-0.845 0.348,-0.957c-0.519,0.062 -0.877,-0.13 -1.125,-0.497c0.135,-0.196 0.309,-0.351 0.55,-0.434c-0.025,-0.111 -0.04,-0.221 -0.048,-0.329c-0.301,0.21 -0.624,0.332 -0.958,0.408c-0.026,-0.427 0.051,-0.826 0.497,-1.124c-0.616,0.094 -0.903,0.016 -1.053,-0.133c0.023,-0.273 0.251,-0.469 0.746,-0.562c-0.724,-0.063 -1.123,-0.314 -1.301,-0.695c0.242,-0.088 0.479,-0.141 0.709,-0.156c0.144,-0.191 0.33,-0.337 0.589,-0.406c0.004,-0.011 0.008,-0.022 0.012,-0.032c-0.104,-0.077 -0.204,-0.169 -0.299,-0.28c-0.014,-0.031 -0.038,-0.06 -0.071,-0.088c0.023,0.03 0.047,0.06 0.071,0.088c0.075,0.16 -0.101,0.36 -0.568,0.606c-0.423,-0.216 -0.58,-0.448 -0.497,-0.694c-0.394,0.394 -0.836,0.589 -1.3,0.694c-0.026,-0.426 0.051,-0.825 0.496,-1.124c-0.616,0.094 -0.902,0.017 -1.052,-0.132c0.023,-0.274 0.251,-0.469 0.745,-0.562c-0.723,-0.063 -1.122,-0.314 -1.3,-0.695c0.572,-0.208 1.11,-0.22 1.607,0c-0.228,-0.277 -0.199,-0.528 -0.153,-0.777c0.526,-0.076 0.845,0.04 0.957,0.347c-0.048,-0.406 0.059,-0.713 0.284,-0.946c-0.178,-0.025 -0.36,-0.072 -0.546,-0.14c0.178,-0.38 0.577,-0.632 1.301,-0.694c-0.495,-0.094 -0.723,-0.289 -0.746,-0.563c0.15,-0.149 0.437,-0.226 1.053,-0.132c-0.446,-0.298 -0.523,-0.697 -0.497,-1.124c0.464,0.105 0.907,0.3 1.301,0.694c-0.084,-0.246 0.073,-0.478 0.496,-0.694c0.468,0.247 0.643,0.446 0.569,0.606c-0.025,0.028 -0.048,0.058 -0.072,0.088c0.033,-0.028 0.057,-0.057 0.072,-0.088c0.094,-0.111 0.194,-0.203 0.299,-0.28c-0.02,-0.045 -0.031,-0.094 -0.035,-0.145c0.128,-0.128 0.358,-0.204 0.81,-0.163c0.051,-0.008 0.103,-0.014 0.155,-0.018c0.002,0.012 0.003,0.024 0.005,0.036c0.027,0.004 0.054,0.008 0.082,0.012c-0.446,-0.298 -0.522,-0.697 -0.497,-1.124c0.464,0.105 0.907,0.3 1.301,0.695c-0.084,-0.246 0.074,-0.478 0.497,-0.695c0.009,0.005 0.018,0.01 0.027,0.014c0.035,-0.259 0.264,-0.445 0.742,-0.536c-0.723,-0.062 -1.123,-0.314 -1.301,-0.694c0.026,-0.01 0.052,-0.019 0.077,-0.027c-0.071,-0.175 -0.096,-0.379 -0.067,-0.617c-0.112,0.308 -0.431,0.424 -0.957,0.347c-0.046,-0.249 -0.075,-0.5 0.153,-0.776c-0.498,0.22 -1.035,0.208 -1.608,0c0.178,-0.381 0.578,-0.633 1.301,-0.695c-0.494,-0.094 -0.722,-0.289 -0.745,-0.562c0.149,-0.149 0.436,-0.227 1.052,-0.133c-0.446,-0.298 -0.522,-0.697 -0.497,-1.124c0.465,0.105 0.907,0.301 1.301,0.695c-0.084,-0.246 0.074,-0.478 0.497,-0.695c0.467,0.247 0.643,0.447 0.568,0.606c-0.024,0.029 -0.048,0.058 -0.071,0.089c0.033,-0.028 0.057,-0.058 0.071,-0.089c0.095,-0.111 0.195,-0.203 0.299,-0.279c-0.019,-0.046 -0.031,-0.094 -0.035,-0.146c0.01,-0.009 0.02,-0.019 0.03,-0.027c-0.077,-0.03 -0.135,-0.069 -0.181,-0.115c0.023,-0.273 0.251,-0.468 0.745,-0.562c-0.723,-0.062 -1.123,-0.314 -1.3,-0.694c0.572,-0.209 1.11,-0.22 1.607,0c-0.228,-0.277 -0.199,-0.528 -0.153,-0.777c0.526,-0.076 0.845,0.039 0.957,0.347c-0.062,-0.518 0.13,-0.876 0.497,-1.124c0.196,0.135 0.351,0.308 0.434,0.549c0.436,-0.094 0.849,-0.064 1.238,0.108c-0.228,-0.277 -0.199,-0.527 -0.153,-0.777c0.526,-0.076 0.845,0.04 0.957,0.348c-0.062,-0.519 0.13,-0.877 0.497,-1.124c0.326,0.223 0.538,0.555 0.497,1.124c0.063,-0.23 0.403,-0.336 0.957,-0.348c0.034,0.359 -0.033,0.6 -0.153,0.777c0.382,-0.094 0.694,-0.122 0.962,-0.11c-0.04,-0.16 -0.018,-0.313 0.01,-0.465c0.526,-0.077 0.845,0.039 0.958,0.347c-0.063,-0.519 0.13,-0.876 0.496,-1.124c0.197,0.134 0.352,0.308 0.435,0.549c0.435,-0.094 0.849,-0.064 1.238,0.108c-0.187,-0.227 -0.202,-0.436 -0.176,-0.642c-0.013,-0.111 -0.014,-0.225 -0.007,-0.342c0.241,0.055 0.476,0.134 0.702,0.252c0.035,0.016 0.067,0.033 0.096,0.054c0.06,0.035 0.119,0.073 0.178,0.114c-0.016,-0.447 0.173,-0.764 0.507,-0.99c0.224,0.154 0.394,0.358 0.465,0.654c0.134,0.079 0.236,0.153 0.307,0.222c0.102,-0.038 0.229,-0.065 0.38,-0.081Zm12.584,25.426c0.023,-0.071 0.056,-0.143 0.101,-0.218c0.009,-0.013 0.017,-0.027 0.025,-0.04c-0.008,0.013 -0.017,0.027 -0.025,0.04c-0.033,0.051 -0.068,0.098 -0.105,0.14c0.002,0.026 0.003,0.052 0.004,0.078Zm-16.364,-3.384l0.007,0.001c-0.002,-0.001 -0.004,-0.002 -0.006,-0.002l-0.001,0.001Zm3.68,-3.185c0.094,0.083 0.197,0.225 0.311,0.431c0.256,-0.043 0.504,-0.042 0.744,0.007c0.057,-0.074 0.128,-0.144 0.215,-0.209c-0.003,-0.013 -0.005,-0.025 -0.007,-0.037l-0.008,0.001c-0.002,0.012 -0.004,0.025 -0.005,0.037c-0.052,-0.005 -0.104,-0.011 -0.155,-0.019c-0.453,0.041 -0.682,-0.034 -0.811,-0.162c0.001,-0.008 0.002,-0.015 0.003,-0.023c-0.092,0.013 -0.188,0.004 -0.287,-0.026Zm16.693,-1.649c-0.057,0.058 -0.121,0.11 -0.19,0.157c-0.046,-0.031 -0.089,-0.064 -0.129,-0.098c-0.116,0.046 -0.254,0.086 -0.421,0.12c0.019,0.012 0.037,0.023 0.055,0.035c0.334,0.009 0.544,0.132 0.63,0.37c-0.026,-0.223 -0.006,-0.417 0.055,-0.584Zm-0.701,-0.908l-0.011,0c-0.075,0.152 -0.211,0.249 -0.408,0.289c0,0.036 -0.001,0.07 -0.004,0.103c0.161,-0.028 0.307,-0.045 0.443,-0.051c-0.018,-0.105 -0.022,-0.218 -0.012,-0.341l-0.008,0Zm-11.325,-0.059c-0.026,0.008 -0.053,0.016 -0.081,0.024c0.047,0.016 0.093,0.035 0.139,0.055c-0.022,-0.026 -0.041,-0.053 -0.058,-0.079Zm1.856,-0.358l0,0.008c0,-0.002 0.001,-0.005 0.002,-0.007l-0.002,-0.001Zm0.128,-3.748c-0.044,0.015 -0.091,0.029 -0.141,0.042c-0.023,0.103 -0.061,0.179 -0.111,0.235c0.179,0.096 0.293,0.235 0.321,0.429c-0.288,0.318 -0.621,0.393 -1.012,0.158c-0.013,-0.008 -0.027,-0.017 -0.041,-0.025c0.014,0.009 0.027,0.017 0.041,0.025c0.402,0.261 0.525,0.639 0.456,1.099c-0.454,-0.041 -0.877,-0.194 -1.229,-0.606c-0.015,-0.031 -0.039,-0.061 -0.072,-0.089c0.024,0.031 0.048,0.06 0.072,0.089c0.074,0.159 -0.101,0.359 -0.568,0.606c-0.423,-0.217 -0.581,-0.449 -0.497,-0.695c-0.226,0.226 -0.467,0.386 -0.719,0.502c0.1,0.201 0.122,0.435 0.083,0.695c-0.152,-0.014 -0.3,-0.04 -0.443,-0.084c0.102,0.189 0.153,0.426 0.131,0.731c0.063,-0.229 0.403,-0.336 0.957,-0.347c0.034,0.359 -0.033,0.599 -0.153,0.777c0.327,-0.081 0.601,-0.113 0.842,-0.113l0.004,-0.02c0.405,-0.059 0.687,-0.004 0.847,0.165c0.031,-0.029 0.065,-0.056 0.101,-0.082c0.021,-0.379 0.205,-0.657 0.506,-0.86c0.196,0.134 0.351,0.308 0.434,0.549c0.436,-0.094 0.849,-0.064 1.238,0.108c-0.228,-0.277 -0.199,-0.528 -0.153,-0.777c0.505,-0.073 0.819,0.031 0.943,0.312l0.01,-0.001c-0.026,-0.262 0.015,-0.482 0.111,-0.667c-0.025,-0.135 -0.028,-0.276 -0.019,-0.42c0.1,0.023 0.2,0.05 0.298,0.082c0.035,-0.029 0.072,-0.056 0.111,-0.083c0.099,0.068 0.187,0.146 0.261,0.237c0.22,0.112 0.432,0.26 0.631,0.459c-0.083,-0.242 0.068,-0.47 0.475,-0.683c0.063,-0.223 0.197,-0.426 0.452,-0.597c-0.028,0.004 -0.055,0.008 -0.082,0.012c-0.001,0.012 -0.003,0.024 -0.005,0.037c-0.052,-0.005 -0.103,-0.011 -0.154,-0.019c-0.453,0.041 -0.683,-0.034 -0.811,-0.163c0.004,-0.051 0.016,-0.099 0.035,-0.145c-0.104,-0.076 -0.204,-0.169 -0.299,-0.28c-0.015,-0.031 -0.038,-0.06 -0.071,-0.088c0.023,0.031 0.047,0.06 0.071,0.088c0.074,0.16 -0.101,0.36 -0.568,0.607c-0.423,-0.217 -0.581,-0.449 -0.497,-0.695c-0.394,0.394 -0.836,0.59 -1.301,0.695c-0.025,-0.427 0.051,-0.826 0.497,-1.125c-0.531,0.082 -0.817,0.035 -0.982,-0.075Zm-4.481,2.211c-0.193,0.147 -0.519,0.495 -0.4,0.675c0.071,0.058 0.124,0.133 0.158,0.226c-0.046,-0.38 0.046,-0.674 0.242,-0.901Zm9.096,-0.334c-0.122,0.084 -0.248,0.154 -0.377,0.212c0.081,0.094 0.102,0.178 0.067,0.254c-0.024,0.028 -0.048,0.057 -0.072,0.088c0.033,-0.028 0.057,-0.057 0.072,-0.088c0.094,-0.111 0.194,-0.204 0.299,-0.28c-0.019,-0.045 -0.031,-0.094 -0.035,-0.145c0.014,-0.015 0.029,-0.028 0.046,-0.041Zm13.609,0.22l0,0l0.004,-0.001l-0.004,0.001Zm-13.271,-0.342c-0.008,-0.057 -0.002,-0.115 0.018,-0.174c-0.104,0.104 -0.212,0.195 -0.323,0.273c0.074,-0.047 0.172,-0.082 0.305,-0.099Zm-30.175,-0.851l-0.001,0.007c0.001,-0.002 0.001,-0.004 0.002,-0.006l-0.001,-0.001Zm1.108,-0.551c-0.011,0.018 -0.022,0.034 -0.035,0.05c0.024,0.009 0.047,0.018 0.07,0.028l0,-0.012l0,-0.014c-0.012,-0.017 -0.024,-0.035 -0.035,-0.052Zm-0.942,-0.055c0.004,-0.152 0.049,-0.308 0.185,-0.473c-0.202,0.089 -0.41,0.141 -0.624,0.156c0.09,0.1 0.162,0.216 0.21,0.355c0.077,-0.016 0.153,-0.029 0.229,-0.038Zm43.123,-0.027c-0.001,-0.067 0.003,-0.137 0.012,-0.211c-0.028,0.076 -0.068,0.139 -0.12,0.192c0.037,0.005 0.073,0.012 0.108,0.019Zm-18.717,-0.131l-0.027,0.004c0.012,0.002 0.024,0.004 0.036,0.007l-0.001,-0.002l-0.008,-0.009Zm-7.925,-2.678c-0.072,-0.176 -0.098,-0.381 -0.069,-0.621c-0.112,0.308 -0.431,0.424 -0.957,0.348c-0.015,-0.082 -0.029,-0.163 -0.032,-0.246c-0.265,0.237 -0.568,0.275 -0.918,0.065c-0.013,-0.008 -0.027,-0.017 -0.041,-0.025c0.014,0.009 0.027,0.017 0.041,0.025c0.402,0.261 0.525,0.639 0.456,1.099c-0.454,-0.041 -0.877,-0.194 -1.229,-0.606c-0.015,-0.031 -0.039,-0.061 -0.072,-0.089c0.024,0.031 0.048,0.061 0.072,0.089c0.074,0.159 -0.101,0.359 -0.568,0.606c-0.423,-0.217 -0.581,-0.449 -0.497,-0.695c-0.226,0.226 -0.467,0.386 -0.719,0.502c0.031,0.063 0.055,0.13 0.071,0.2c0.588,-0.109 0.995,-0.05 1.353,0.055c-0.068,0.311 -0.365,0.572 -1.301,0.695c0.027,0.004 0.053,0.009 0.078,0.014l0.003,-0.016c0.526,-0.076 0.845,0.04 0.957,0.348c-0.062,-0.519 0.13,-0.877 0.497,-1.125c0.233,0.16 0.408,0.375 0.473,0.691c0.45,-0.104 0.876,-0.077 1.276,0.1c-0.228,-0.277 -0.199,-0.528 -0.153,-0.777c0.526,-0.076 0.845,0.039 0.957,0.347c-0.051,-0.428 0.071,-0.747 0.322,-0.984Zm0.672,0.977l0,0.007c0,-0.002 0.001,-0.004 0.002,-0.007l-0.002,0Zm0.991,-0.998c-0.258,0.045 -0.525,0.035 -0.801,-0.025c-0.058,0.168 -0.15,0.303 -0.267,0.415c0.005,0.013 0.01,0.027 0.014,0.04c0.436,-0.094 0.849,-0.064 1.238,0.108c-0.156,-0.189 -0.192,-0.365 -0.184,-0.538Zm23.19,-0.292c-0.013,-0.018 -0.03,-0.036 -0.05,-0.053c0.015,0.02 0.03,0.039 0.045,0.058l0.005,-0.005Zm-35.719,-0.639c0.04,-0.035 0.084,-0.068 0.132,-0.101c-0.35,0.054 -0.594,0.052 -0.767,0.012c0.233,0.164 0.314,0.304 0.259,0.421c-0.024,0.028 -0.048,0.058 -0.072,0.089c0.033,-0.028 0.057,-0.058 0.072,-0.089c0.118,-0.138 0.244,-0.247 0.376,-0.332Zm11.791,0.339l0,-0.008c0,0.003 0.001,0.005 0.002,0.007l-0.002,0.001Zm24.707,-0.167c-0.008,-0.005 -0.017,-0.01 -0.025,-0.015c0.008,0.005 0.016,0.01 0.024,0.016l0.001,-0.001Zm-26.653,-0.01c0.028,-0.085 0.075,-0.171 0.148,-0.26c-0.092,0.041 -0.185,0.073 -0.28,0.098c0.055,0.047 0.099,0.1 0.132,0.162Zm-9.743,-1.675l-0.02,0.001c0.017,0.007 0.034,0.014 0.05,0.022c-0.006,-0.008 -0.013,-0.016 -0.019,-0.024l-0.011,0.001Zm-0.574,-0.613l0,-0.008c0,0.002 0.001,0.005 0.002,0.007l-0.002,0.001Zm21.306,-1.161l-0.011,0.012c0.043,0.034 0.081,0.071 0.115,0.109c0.012,-0.026 0.026,-0.052 0.04,-0.076c-0.046,-0.012 -0.093,-0.028 -0.141,-0.049l-0.003,0.004Zm0.352,-0.822c-0.066,0.011 -0.136,0.022 -0.209,0.031c0.075,0.013 0.146,0.029 0.211,0.049c-0.001,-0.027 -0.002,-0.053 -0.002,-0.08Zm2.103,0.033c0.063,-0.069 0.139,-0.135 0.231,-0.197c-0.193,0.03 -0.354,0.042 -0.488,0.041c0.1,0.055 0.185,0.107 0.257,0.156Zm-5.369,-1.484l-0.016,0.003c0.003,0.007 0.006,0.014 0.008,0.022l0.003,-0.014c0.013,-0.002 0.026,-0.004 0.039,-0.006l-0.001,0l-0.008,-0.009l-0.025,0.004Zm1.204,-0.641c-0.041,0.142 -0.135,0.271 -0.321,0.381c0.033,0.035 0.065,0.075 0.096,0.123c0.051,-0.194 0.153,-0.355 0.296,-0.491c-0.024,-0.004 -0.048,-0.008 -0.071,-0.013Zm6.194,0.102l0,0.007c0.001,-0.002 0.001,-0.004 0.002,-0.006l-0.002,-0.001Zm-6.514,-0.221c-0.072,-0.048 -0.119,-0.108 -0.139,-0.18c0.004,0.056 0.006,0.11 0.005,0.161c0.046,0.005 0.091,0.012 0.134,0.019Zm-1.138,-0.13c0.001,-0.016 0.003,-0.033 0.005,-0.05c-0.006,0.016 -0.012,0.032 -0.019,0.047l0.014,0.003Zm-15.104,-0.281l0,0.007c0,-0.002 0.001,-0.004 0.002,-0.007l-0.002,0Zm6.701,-0.696l-0.001,0.008c0.001,-0.002 0.002,-0.005 0.002,-0.007l-0.001,-0.001Z" style="fill:#285237;"/><path d="M28.034,23.54l-0.001,0.008c0.001,-0.002 0.001,-0.005 0.002,-0.007l-0.001,-0.001Zm-0.95,-0.548c-0.172,-0.026 -0.283,-0.083 -0.359,-0.159c0.004,-0.051 0.016,-0.1 0.035,-0.145c-0.104,-0.077 -0.204,-0.169 -0.299,-0.28c-0.014,-0.031 -0.038,-0.06 -0.071,-0.088c0.023,0.03 0.047,0.06 0.071,0.088c0.075,0.16 -0.101,0.359 -0.568,0.606c-0.423,-0.216 -0.581,-0.448 -0.497,-0.694c-0.394,0.394 -0.836,0.589 -1.301,0.694c-0.025,-0.427 0.051,-0.826 0.497,-1.124c-0.616,0.094 -0.903,0.017 -1.052,-0.133c0.023,-0.273 0.251,-0.468 0.745,-0.562c-0.723,-0.062 -1.123,-0.314 -1.301,-0.694c0.572,-0.209 1.11,-0.22 1.608,0c-0.228,-0.277 -0.199,-0.528 -0.153,-0.777c0.497,-0.072 0.81,0.027 0.937,0.299c0.003,-0.019 0.006,-0.037 0.011,-0.055c-0.013,-0.233 0.028,-0.432 0.117,-0.601c-0.349,-0.121 -0.567,-0.318 -0.686,-0.573c0.572,-0.208 1.11,-0.22 1.607,0c-0.228,-0.277 -0.199,-0.528 -0.153,-0.777c0.526,-0.076 0.845,0.04 0.957,0.347c-0.062,-0.518 0.13,-0.876 0.497,-1.124c0.196,0.135 0.351,0.309 0.434,0.549c0.436,-0.094 0.849,-0.063 1.238,0.108c-0.228,-0.276 -0.199,-0.527 -0.153,-0.776c0.526,-0.077 0.845,0.039 0.957,0.347c-0.062,-0.518 0.13,-0.876 0.497,-1.124c0.326,0.224 0.538,0.555 0.497,1.124c0.063,-0.23 0.403,-0.336 0.957,-0.347c0.034,0.359 -0.033,0.599 -0.153,0.776c0.729,-0.179 1.2,-0.119 1.607,0c-0.067,0.311 -0.364,0.573 -1.3,0.695c0.026,0.005 0.052,0.01 0.077,0.015l0.003,-0.016c0.526,-0.076 0.845,0.039 0.958,0.347c-0.063,-0.518 0.13,-0.876 0.497,-1.124c0.23,0.158 0.404,0.37 0.471,0.681c0.28,-0.023 0.493,0.016 0.637,0.119c0.054,-0.007 0.112,-0.012 0.173,-0.016c0.021,-0.381 0.205,-0.66 0.506,-0.863c0.327,0.223 0.538,0.555 0.497,1.124c0.064,-0.23 0.404,-0.336 0.958,-0.348c0.033,0.359 -0.034,0.599 -0.154,0.777c0.729,-0.179 1.2,-0.119 1.608,0c-0.068,0.311 -0.365,0.572 -1.301,0.695c0.027,0.004 0.053,0.009 0.078,0.015l0.003,-0.017c0.526,-0.076 0.845,0.04 0.957,0.348c-0.062,-0.519 0.13,-0.876 0.497,-1.124c0.327,0.224 0.538,0.555 0.497,1.124c0.063,-0.23 0.404,-0.336 0.957,-0.348c0.034,0.359 -0.033,0.6 -0.153,0.777c0.729,-0.179 1.2,-0.119 1.608,0c-0.068,0.311 -0.365,0.572 -1.301,0.695c0.423,0.073 0.699,0.242 0.745,0.562c-0.287,0.318 -0.62,0.393 -1.012,0.158c-0.013,-0.009 -0.026,-0.017 -0.04,-0.025c0.013,0.009 0.027,0.017 0.04,0.025c0.314,0.203 0.458,0.478 0.473,0.807c-0.264,-0.057 -0.564,-0.082 -0.944,-0.033c-0.105,-0.076 -0.206,-0.169 -0.302,-0.281c-0.002,-0.005 -0.004,-0.009 -0.006,-0.013c0.018,-0.114 0.022,-0.244 0.007,-0.396c-0.553,0.011 -0.894,0.118 -0.957,0.347c0.041,-0.568 -0.17,-0.9 -0.497,-1.124c-0.367,0.248 -0.559,0.606 -0.497,1.124c-0.112,-0.307 -0.431,-0.423 -0.957,-0.347l-0.003,0.016c-0.025,-0.005 -0.051,-0.01 -0.078,-0.015c0.936,-0.122 1.233,-0.383 1.301,-0.694c-0.408,-0.119 -0.878,-0.18 -1.608,0c0.12,-0.178 0.187,-0.418 0.154,-0.777c-0.554,0.011 -0.894,0.118 -0.958,0.347c0.041,-0.568 -0.17,-0.9 -0.497,-1.124c-0.366,0.248 -0.559,0.606 -0.496,1.124c-0.113,-0.308 -0.432,-0.423 -0.958,-0.347c-0.046,0.249 -0.075,0.5 0.154,0.777c-0.389,-0.172 -0.803,-0.203 -1.238,-0.108c-0.083,-0.241 -0.238,-0.415 -0.434,-0.549c-0.367,0.247 -0.56,0.605 -0.497,1.124c-0.084,-0.23 -0.284,-0.353 -0.598,-0.369c-0.052,-0.049 -0.108,-0.094 -0.168,-0.135c-0.283,0.192 -0.463,0.449 -0.501,0.796c-0.14,-0.022 -0.282,-0.028 -0.427,-0.02c-0.143,-0.029 -0.319,-0.029 -0.526,0.001c-0.006,0.033 -0.012,0.065 -0.017,0.098c-0.058,0.017 -0.116,0.037 -0.175,0.058c0.043,0.093 0.1,0.178 0.171,0.254c0.019,0.118 0.07,0.24 0.175,0.367c-0.389,-0.172 -0.803,-0.203 -1.238,-0.108c-0.083,-0.241 -0.238,-0.415 -0.435,-0.549c-0.217,0.147 -0.374,0.333 -0.452,0.568Zm12.249,-0.335l0.007,0.009c0.041,0.088 0.006,0.188 -0.112,0.302c0.049,-0.088 0.085,-0.19 0.105,-0.311Zm-7.064,-0.634l-0.001,0.008c0.001,-0.003 0.002,-0.005 0.002,-0.007l-0.001,-0.001Zm-13.408,-6.88c0.258,0.093 0.422,0.248 0.456,0.488c-0.077,0.085 -0.157,0.153 -0.242,0.202c0.013,0.303 -0.052,0.514 -0.16,0.674c0.729,-0.18 1.2,-0.119 1.608,0c-0.068,0.311 -0.365,0.572 -1.301,0.695c0.026,0.004 0.052,0.009 0.078,0.015l0.003,-0.017c0.526,-0.076 0.845,0.04 0.957,0.348c-0.062,-0.519 0.13,-0.877 0.497,-1.125c0.326,0.224 0.538,0.556 0.497,1.125c0.063,-0.23 0.403,-0.337 0.957,-0.348c0.034,0.359 -0.033,0.599 -0.153,0.777c0.729,-0.179 1.2,-0.119 1.607,0c-0.067,0.311 -0.364,0.572 -1.3,0.695c0.423,0.073 0.699,0.242 0.745,0.562c-0.287,0.317 -0.62,0.393 -1.012,0.158c-0.013,-0.009 -0.027,-0.017 -0.04,-0.026c0.013,0.009 0.027,0.018 0.04,0.026c0.402,0.261 0.526,0.639 0.456,1.099c-0.193,-0.018 -0.381,-0.056 -0.56,-0.125c0.303,-0.133 0.429,-0.303 0.47,-0.493c-0.407,-0.119 -0.878,-0.179 -1.607,0c0.12,-0.177 0.187,-0.418 0.153,-0.777c-0.441,0.01 -0.747,0.079 -0.885,0.223c-0.019,-0.033 -0.042,-0.065 -0.069,-0.096c-0.021,-0.413 -0.197,-0.68 -0.454,-0.871c0.014,-0.038 0.025,-0.079 0.031,-0.123c-0.287,-0.317 -0.62,-0.393 -1.011,-0.158c-0.014,0.009 -0.027,0.017 -0.041,0.025c0.014,-0.008 0.027,-0.017 0.041,-0.025c0.402,-0.261 0.525,-0.639 0.456,-1.099c-0.454,0.041 -0.878,0.194 -1.23,0.607c-0.007,0.016 -0.018,0.033 -0.031,0.049l-0.001,0l-0.008,0c0.013,-0.017 0.027,-0.033 0.04,-0.049c0.075,-0.16 -0.1,-0.36 -0.568,-0.607c-0.228,0.117 -0.379,0.238 -0.456,0.364c-0.087,-0.209 -0.232,-0.364 -0.411,-0.486c-0.039,0.026 -0.076,0.054 -0.111,0.083c-0.042,-0.052 -0.088,-0.099 -0.14,-0.141c0.007,-0.094 0.003,-0.194 -0.011,-0.297c0.018,-0.01 0.035,-0.021 0.052,-0.033c0.037,0.014 0.074,0.029 0.11,0.045c-0.023,-0.028 -0.043,-0.056 -0.061,-0.084c0.111,-0.097 0.192,-0.237 0.247,-0.414c-0.177,-0.27 -0.498,-0.306 -0.913,-0.194c0.797,-0.507 0.956,-0.869 0.886,-1.179c-0.42,0.064 -0.872,0.208 -1.457,0.678c0.033,-0.211 -0.007,-0.457 -0.189,-0.768c-0.497,0.244 -0.761,0.484 -0.721,0.719c-0.203,-0.533 -0.535,-0.745 -0.925,-0.81c-0.228,0.38 -0.252,0.786 0.024,1.229c-0.113,-0.113 -0.252,-0.163 -0.415,-0.152c-0.022,-0.064 -0.048,-0.124 -0.079,-0.179c0.283,-0.283 0.339,-0.515 0.292,-0.723c-0.314,0.048 -0.647,0.141 -1.04,0.382c-0.134,-0.032 -0.277,-0.056 -0.434,-0.066c-0.03,-0.123 -0.085,-0.257 -0.172,-0.406c-0.322,0.158 -0.546,0.315 -0.653,0.469c-0.054,0.011 -0.109,0.023 -0.165,0.037l-0.007,-0.014l-0.005,-0.008c0.109,-0.174 0.167,-0.408 0.135,-0.748c-0.41,0.009 -0.703,0.069 -0.853,0.194c-0.032,-0.008 -0.065,-0.015 -0.098,-0.02l-0.001,0.002c-0.01,-0.466 -0.21,-0.752 -0.502,-0.953c-0.367,0.248 -0.559,0.606 -0.497,1.125c-0.112,-0.308 -0.431,-0.424 -0.957,-0.348c-0.046,0.249 -0.075,0.5 0.153,0.777c-0.389,-0.172 -0.802,-0.202 -1.237,-0.108c-0.084,-0.241 -0.238,-0.415 -0.435,-0.549c-0.367,0.248 -0.559,0.605 -0.497,1.124c-0.112,-0.308 -0.431,-0.424 -0.957,-0.347c-0.046,0.249 -0.075,0.5 0.154,0.776c-0.498,-0.22 -1.036,-0.208 -1.608,0c0.029,0.063 0.065,0.123 0.107,0.178c-0.396,0.087 -0.704,0.025 -0.947,-0.149c0.396,-0.462 0.859,-0.736 1.401,-0.789c-0.335,-0.129 -0.433,-0.361 -0.515,-0.601c0.421,-0.325 0.756,-0.38 1.005,-0.167c-0.309,-0.421 -0.317,-0.828 -0.119,-1.223c0.238,0.021 0.458,0.096 0.648,0.265c0.333,-0.296 0.709,-0.472 1.132,-0.513c-0.335,-0.129 -0.433,-0.362 -0.515,-0.602c0.421,-0.324 0.756,-0.379 1.005,-0.166c-0.309,-0.422 -0.317,-0.828 -0.119,-1.224c0.395,0.035 0.742,0.22 0.985,0.736c-0.058,-0.231 0.187,-0.491 0.664,-0.772c0.205,0.296 0.265,0.538 0.247,0.752c0.548,-0.514 0.988,-0.692 1.401,-0.788c0.094,0.304 -0.037,0.677 -0.793,1.243c0.026,-0.009 0.051,-0.017 0.075,-0.025l-0.005,-0.016c0.421,-0.324 0.756,-0.38 1.005,-0.167c-0.309,-0.421 -0.317,-0.827 -0.119,-1.223c0.395,0.035 0.742,0.22 0.985,0.736c-0.058,-0.231 0.187,-0.491 0.664,-0.772c0.205,0.296 0.264,0.538 0.247,0.752c0.547,-0.514 0.987,-0.692 1.401,-0.789c0.094,0.304 -0.037,0.678 -0.793,1.244c0.405,-0.144 0.728,-0.132 0.925,0.124c-0.024,0.106 -0.058,0.2 -0.103,0.28c0.057,0.054 0.1,0.121 0.13,0.201c-0.063,-0.518 0.13,-0.876 0.497,-1.124c0.326,0.224 0.538,0.556 0.496,1.124c0.064,-0.229 0.404,-0.336 0.958,-0.347c0.033,0.359 -0.034,0.599 -0.154,0.777c0.73,-0.18 1.2,-0.119 1.608,0c-0.067,0.311 -0.364,0.572 -1.301,0.695c0.027,0.004 0.053,0.009 0.078,0.014l0.003,-0.016c0.48,-0.07 0.788,0.021 0.924,0.272c-0.136,0.087 -0.268,0.191 -0.395,0.312c0.313,0.279 0.78,0.352 1.469,0.124c-0.417,0.281 -0.55,0.551 -0.463,0.811c0.196,0.078 0.491,0.036 1.019,-0.294c-0.291,0.45 -0.204,0.847 -0.012,1.229c0.101,-0.073 0.198,-0.152 0.29,-0.237c0.01,0.007 0.02,0.014 0.03,0.021l0.004,-0.002l0.005,-0.002c-0.012,-0.006 -0.024,-0.013 -0.036,-0.02c0.2,-0.185 0.376,-0.403 0.516,-0.668Zm-7.621,-7.897c-0.075,0.05 -0.163,0.101 -0.265,0.155c-0.423,-0.217 -0.581,-0.449 -0.497,-0.695c-0.394,0.395 -0.836,0.59 -1.3,0.695c-0.026,-0.427 0.05,-0.826 0.496,-1.124c-0.616,0.094 -0.903,0.017 -1.052,-0.133c0.023,-0.273 0.251,-0.468 0.745,-0.562c-0.723,-0.062 -1.123,-0.314 -1.3,-0.695c0.572,-0.208 1.11,-0.22 1.607,0c-0.228,-0.276 -0.199,-0.527 -0.153,-0.776c0.526,-0.077 0.845,0.039 0.957,0.347c-0.062,-0.519 0.13,-0.876 0.497,-1.124c0.196,0.135 0.351,0.308 0.434,0.549c0.436,-0.094 0.849,-0.064 1.238,0.108c-0.228,-0.277 -0.199,-0.528 -0.153,-0.777c0.526,-0.076 0.845,0.04 0.957,0.348c-0.062,-0.519 0.13,-0.877 0.497,-1.125c0.326,0.224 0.538,0.556 0.497,1.125c0.063,-0.23 0.403,-0.336 0.957,-0.348c0.029,0.312 -0.017,0.534 -0.109,0.704c0.155,-0.023 0.308,-0.03 0.458,-0.019c0.189,-0.022 0.359,-0.026 0.514,-0.016c-0.104,-0.211 -0.078,-0.409 -0.042,-0.606c0.526,-0.076 0.845,0.04 0.958,0.348c-0.063,-0.519 0.13,-0.877 0.496,-1.124c0.218,0.149 0.384,0.346 0.459,0.629c0.425,-0.087 0.829,-0.054 1.21,0.114c-0.229,-0.277 -0.2,-0.528 -0.154,-0.777c0.526,-0.076 0.845,0.04 0.958,0.348c-0.063,-0.519 0.13,-0.877 0.496,-1.125c0.197,0.135 0.352,0.309 0.435,0.55c0.435,-0.095 0.849,-0.064 1.238,0.107c-0.229,-0.276 -0.2,-0.527 -0.154,-0.776c0.526,-0.076 0.845,0.039 0.957,0.347c-0.062,-0.518 0.13,-0.876 0.497,-1.124c0.327,0.224 0.538,0.555 0.497,1.124c0.063,-0.23 0.404,-0.336 0.957,-0.347c0.034,0.359 -0.033,0.599 -0.153,0.776c0.729,-0.179 1.2,-0.118 1.608,0c-0.068,0.311 -0.365,0.573 -1.301,0.695c0.027,0.005 0.052,0.01 0.078,0.015l0.003,-0.016c0.526,-0.076 0.845,0.039 0.957,0.347c-0.062,-0.518 0.13,-0.876 0.497,-1.124c0.326,0.224 0.538,0.556 0.497,1.124c0.063,-0.229 0.403,-0.336 0.957,-0.347c0.034,0.359 -0.033,0.599 -0.153,0.777c0.729,-0.18 1.2,-0.119 1.607,0c-0.067,0.311 -0.364,0.572 -1.3,0.694c0.423,0.074 0.699,0.243 0.745,0.562c-0.287,0.318 -0.62,0.394 -1.012,0.158c-0.013,-0.008 -0.027,-0.017 -0.04,-0.025c0.013,0.009 0.027,0.017 0.04,0.025c0.402,0.261 0.526,0.64 0.457,1.099c-0.455,-0.04 -0.878,-0.194 -1.23,-0.606c-0.014,-0.031 -0.038,-0.06 -0.071,-0.088c0.023,0.03 0.047,0.06 0.071,0.088c0.075,0.16 -0.101,0.359 -0.568,0.606c-0.423,-0.216 -0.581,-0.448 -0.497,-0.694c-0.225,0.225 -0.467,0.386 -0.719,0.501c0.1,0.202 0.122,0.436 0.083,0.695c-0.035,-0.003 -0.07,-0.007 -0.105,-0.011c0.159,0.207 0.245,0.482 0.218,0.865c0.063,-0.23 0.403,-0.336 0.957,-0.348c0.031,0.332 -0.024,0.562 -0.127,0.735c0.013,0.009 0.026,0.018 0.039,0.026c0.258,-0.059 0.482,-0.088 0.683,-0.095c0.083,-0.088 0.192,-0.174 0.33,-0.258c0.199,0.125 0.345,0.239 0.441,0.344c0.03,0.008 0.059,0.016 0.088,0.025c-0.004,0.022 -0.01,0.043 -0.017,0.064c0.073,0.106 0.09,0.202 0.056,0.288c-0.024,0.033 -0.047,0.068 -0.071,0.105c0.033,-0.033 0.057,-0.068 0.071,-0.105c0.352,-0.49 0.776,-0.672 1.23,-0.721c0.039,0.309 0.016,0.587 -0.083,0.826c0.252,0.138 0.493,0.328 0.719,0.596c-0.084,-0.292 0.074,-0.568 0.497,-0.825c0.467,0.293 0.642,0.531 0.568,0.72c-0.024,0.034 -0.048,0.069 -0.072,0.105c0.033,-0.033 0.057,-0.068 0.072,-0.105c0.213,-0.296 0.452,-0.48 0.708,-0.59c-0.022,-0.035 -0.042,-0.072 -0.06,-0.11c0.572,-0.208 1.11,-0.22 1.608,0c-0.188,-0.228 -0.202,-0.438 -0.175,-0.644c-0.06,-0.103 -0.07,-0.21 -0.033,-0.318c-0.394,0.394 -0.836,0.589 -1.301,0.694c-0.025,-0.426 0.051,-0.826 0.497,-1.124c-0.616,0.094 -0.903,0.017 -1.052,-0.132c0.023,-0.274 0.251,-0.469 0.745,-0.562c-0.723,-0.063 -1.123,-0.314 -1.301,-0.695c0.572,-0.209 1.11,-0.22 1.608,0c-0.228,-0.277 -0.199,-0.528 -0.153,-0.777c0.525,-0.076 0.845,0.04 0.957,0.347c-0.062,-0.518 0.13,-0.876 0.497,-1.124c0.196,0.135 0.351,0.309 0.434,0.549c0.436,-0.094 0.849,-0.064 1.238,0.108c-0.228,-0.276 -0.2,-0.527 -0.154,-0.776c0.526,-0.077 0.845,0.039 0.958,0.347c-0.063,-0.519 0.13,-0.876 0.497,-1.124c0.326,0.224 0.538,0.555 0.497,1.124c0.063,-0.23 0.403,-0.336 0.957,-0.347c0.034,0.358 -0.033,0.599 -0.154,0.776c0.73,-0.179 1.201,-0.119 1.608,0c-0.067,0.311 -0.364,0.573 -1.301,0.695c0.027,0.005 0.053,0.01 0.078,0.015l0.003,-0.016c0.526,-0.077 0.845,0.039 0.958,0.347c-0.063,-0.518 0.13,-0.876 0.496,-1.124c0.327,0.224 0.539,0.555 0.497,1.124c0.064,-0.23 0.404,-0.336 0.958,-0.347c0.033,0.359 -0.034,0.599 -0.154,0.776c0.73,-0.179 1.2,-0.118 1.608,0c-0.068,0.311 -0.364,0.573 -1.301,0.695c0.423,0.074 0.699,0.243 0.745,0.562c-0.199,0.221 -0.421,0.325 -0.67,0.289c0.021,0.086 0.034,0.18 0.037,0.284c0.016,0.032 0.029,0.065 0.041,0.098c0.121,-0.166 0.439,-0.246 0.913,-0.255c0.033,0.359 -0.034,0.599 -0.154,0.776c0.729,-0.179 1.2,-0.119 1.608,0c-0.027,0.122 -0.088,0.236 -0.209,0.337c-0.034,0.152 -0.124,0.293 -0.319,0.411c0.128,0.061 0.216,0.159 0.265,0.293c-0.062,-0.518 0.13,-0.876 0.497,-1.124c0.327,0.224 0.538,0.555 0.497,1.124c0.063,-0.23 0.403,-0.336 0.957,-0.347c0.034,0.359 -0.033,0.599 -0.153,0.777c0.729,-0.18 1.2,-0.119 1.608,0c-0.068,0.311 -0.365,0.572 -1.301,0.694c0.423,0.074 0.699,0.243 0.745,0.562c-0.205,0.227 -0.434,0.331 -0.69,0.285c-0.004,0.053 -0.012,0.103 -0.023,0.153c0.071,0.099 0.12,0.209 0.147,0.327c0.173,0.102 0.339,0.228 0.498,0.387c-0.084,-0.246 0.073,-0.478 0.496,-0.695c0.468,0.247 0.643,0.447 0.569,0.606c-0.025,0.029 -0.048,0.058 -0.072,0.089c0.033,-0.028 0.057,-0.058 0.072,-0.089c0.351,-0.412 0.775,-0.565 1.229,-0.606c0.069,0.46 -0.054,0.838 -0.456,1.099c-0.014,0.008 -0.027,0.016 -0.041,0.025c0.014,-0.008 0.027,-0.017 0.041,-0.025c0.391,-0.235 0.724,-0.16 1.011,0.158c-0.046,0.319 -0.322,0.489 -0.745,0.562c0.936,0.122 1.233,0.384 1.301,0.695c-0.408,0.119 -0.879,0.179 -1.608,0c0.12,0.177 0.187,0.418 0.154,0.776c-0.554,-0.011 -0.894,-0.117 -0.958,-0.347c0.041,0.569 -0.17,0.9 -0.497,1.124c-0.166,-0.112 -0.296,-0.247 -0.383,-0.409c-0.016,0 -0.031,0 -0.047,0.001c0.113,0.098 0.171,0.208 0.196,0.325c-0.258,0.075 -0.541,0.127 -0.899,0.109c0.007,0.106 0.006,0.224 -0.004,0.354c-0.221,-0.005 -0.408,-0.028 -0.557,-0.072c0.017,0.111 0.02,0.238 0.006,0.386c-0.18,-0.004 -0.337,-0.018 -0.469,-0.042c-0.083,0.285 -0.238,0.492 -0.434,0.652c-0.075,-0.06 -0.143,-0.126 -0.202,-0.197c-0.013,0.021 -0.026,0.042 -0.04,0.062c0.003,0.012 0.005,0.024 0.007,0.035c-0.014,0.006 -0.029,0.011 -0.044,0.015c-0.076,0.098 -0.168,0.18 -0.272,0.251c-0.067,-0.045 -0.129,-0.094 -0.183,-0.147c-0.301,0.036 -0.655,0.014 -1.108,-0.119c0.12,0.212 0.187,0.497 0.153,0.924c-0.554,-0.014 -0.894,-0.14 -0.957,-0.413c0.041,0.676 -0.171,1.07 -0.497,1.336c-0.367,-0.295 -0.559,-0.72 -0.497,-1.336c-0.112,0.366 -0.431,0.503 -0.957,0.413c-0.046,-0.297 -0.075,-0.595 0.153,-0.924c-0.389,0.205 -0.802,0.241 -1.238,0.129c-0.083,0.286 -0.238,0.492 -0.434,0.652c-0.367,-0.294 -0.559,-0.719 -0.497,-1.336c-0.112,0.366 0.343,-0.482 0.673,-1.02l0.003,0.001c-0.081,0.245 0.129,0.531 0.564,0.849c0.258,-0.312 0.358,-0.572 0.374,-0.805c0.48,0.58 0.904,0.792 1.313,0.914c0.145,-0.326 -0.003,-0.228 0.138,0.21c0.41,-0.022 0.796,-0.208 1.128,-0.757c-0.096,0.248 0.113,0.54 0.558,0.865c0.259,-0.312 0.358,-0.572 0.374,-0.805c0.481,0.58 0.904,0.792 1.313,0.913c0.145,-0.325 0.07,-0.735 -0.615,-1.38c0.392,0.172 0.726,0.173 0.969,-0.096c-0.03,-0.457 -0.253,-0.716 -0.724,-0.721c-0.017,0 -0.033,0 -0.05,0c0.017,0 0.034,0 0.05,0c0.496,-0.013 0.84,-0.292 1.079,-0.756c-0.397,-0.221 -0.842,-0.319 -1.394,-0.138c-0.032,0.02 -0.07,0.034 -0.115,0.041c0.039,-0.015 0.077,-0.029 0.115,-0.041c0.164,-0.106 0.149,-0.39 -0.074,-0.883c-0.485,-0.041 -0.763,0.084 -0.852,0.359c-0.039,-0.336 -0.133,-0.622 -0.265,-0.872c0.211,-0.129 0.38,-0.333 0.515,-0.595c-0.398,-0.22 -0.842,-0.319 -1.394,-0.138c-0.032,0.021 -0.07,0.034 -0.115,0.041c0.039,-0.015 0.077,-0.029 0.115,-0.041c0.163,-0.105 0.149,-0.389 -0.074,-0.883c-0.485,-0.04 -0.763,0.085 -0.852,0.36c-0.069,-0.588 -0.304,-1.02 -0.616,-1.381c-0.295,0.38 -0.489,0.792 -0.317,1.321c-0.02,-0.02 -0.04,-0.039 -0.059,-0.057c0.006,-0.013 0.013,-0.025 0.019,-0.037c-0.045,-0.025 -0.091,-0.049 -0.138,-0.071c-0.343,-0.295 -0.579,-0.356 -0.766,-0.31c-0.03,0.05 -0.052,0.101 -0.065,0.154c-0.135,0.011 -0.276,0.04 -0.424,0.089c-0.032,0.02 -0.071,0.034 -0.115,0.041c0.038,-0.015 0.077,-0.029 0.115,-0.041c0.163,-0.105 0.148,-0.39 -0.075,-0.883c-0.484,-0.04 -0.762,0.084 -0.852,0.359c-0.068,-0.588 -0.304,-1.02 -0.615,-1.38c-0.295,0.38 -0.49,0.792 -0.317,1.321c-0.443,-0.437 -0.727,-0.529 -0.945,-0.476c-0.157,0.266 -0.096,0.576 0.247,0.943c-0.449,-0.251 -0.826,-0.321 -1.146,-0.25c-0.061,-0.108 -0.138,-0.201 -0.229,-0.281l0.001,-0.005l-0.003,0.003c-0.041,-0.035 -0.084,-0.069 -0.13,-0.1c-0.367,0.248 -0.559,0.606 -0.497,1.124c-0.112,-0.308 -0.431,-0.423 -0.957,-0.347c-0.002,0.011 -0.004,0.023 -0.006,0.035c-0.208,0.153 -0.229,0.26 -0.183,0.046c-0.407,-0.119 -0.878,-0.179 -1.607,0c0.12,-0.177 0.187,-0.418 0.153,-0.777c-0.554,0.012 -0.894,0.118 -0.957,0.348c0.041,-0.569 -0.171,-0.9 -0.497,-1.124c-0.367,0.247 -0.559,0.605 -0.497,1.124c-0.112,-0.308 -0.431,-0.424 -0.957,-0.348c-0.046,0.25 -0.075,0.501 0.153,0.777c-0.389,-0.172 -0.802,-0.202 -1.238,-0.108c-0.014,-0.043 -0.032,-0.084 -0.051,-0.123c0.296,-0.276 0.36,-0.508 0.319,-0.719c-0.421,0.052 -0.878,0.182 -1.477,0.635c0.04,-0.211 0.007,-0.458 -0.166,-0.774c-0.504,0.229 -0.774,0.461 -0.742,0.697c-0.187,-0.539 -0.512,-0.76 -0.9,-0.836c-0.239,0.372 -0.275,0.777 -0.013,1.229c-0.225,-0.239 -0.563,-0.219 -1.016,0.059l0.003,0.016c-0.025,0.005 -0.051,0.011 -0.077,0.017c0.812,-0.482 0.981,-0.84 0.92,-1.152c-0.421,0.052 -0.877,0.182 -1.477,0.635c0.041,-0.211 0.007,-0.458 -0.165,-0.774c-0.123,0.055 -0.231,0.111 -0.325,0.167c-0.148,-0.167 -0.362,-0.244 -0.652,-0.217c-0.016,0.002 -0.032,0.003 -0.048,0.005c0.016,-0.002 0.032,-0.004 0.048,-0.005c0.475,-0.06 0.751,-0.347 0.888,-0.792c-0.426,-0.16 -0.874,-0.206 -1.37,0.012c-0.027,0.021 -0.061,0.038 -0.103,0.048c0.034,-0.017 0.069,-0.033 0.103,-0.048c0.136,-0.111 0.065,-0.368 -0.248,-0.793c-0.475,0.011 -0.718,0.151 -0.75,0.409c-0.105,-0.301 -0.252,-0.55 -0.429,-0.764c0.177,-0.138 0.299,-0.339 0.377,-0.59c-0.427,-0.161 -0.875,-0.207 -1.371,0.011c-0.026,0.022 -0.061,0.038 -0.103,0.049c0.035,-0.017 0.069,-0.034 0.103,-0.049c0.137,-0.111 0.066,-0.367 -0.248,-0.793c-0.475,0.012 -0.718,0.152 -0.749,0.41c-0.184,-0.526 -0.497,-0.895 -0.869,-1.191c-0.209,0.373 -0.314,0.766 -0.042,1.228c-0.023,-0.016 -0.046,-0.031 -0.069,-0.046c0.004,-0.012 0.008,-0.024 0.012,-0.035c-0.049,-0.019 -0.098,-0.036 -0.147,-0.051c-0.39,-0.234 -0.63,-0.266 -0.801,-0.206c-0.019,0.048 -0.029,0.097 -0.032,0.146c-0.127,0.024 -0.257,0.063 -0.391,0.122c-0.026,0.022 -0.061,0.038 -0.103,0.049c0.035,-0.018 0.069,-0.034 0.103,-0.049c0.137,-0.111 0.066,-0.368 -0.248,-0.793c-0.475,0.011 -0.718,0.151 -0.749,0.409c-0.184,-0.526 -0.497,-0.894 -0.869,-1.191c-0.209,0.373 -0.314,0.766 -0.042,1.229c-0.514,-0.353 -0.806,-0.408 -1.005,-0.339c-0.099,0.256 0.022,0.531 0.426,0.831c-0.352,-0.134 -0.647,-0.185 -0.896,-0.165c-0.012,-0.016 -0.028,-0.032 -0.046,-0.048c0.012,0.017 0.025,0.033 0.038,0.049c-0.227,0.019 -0.414,0.097 -0.569,0.224c0.097,0.099 0.196,0.188 0.299,0.267Zm7.939,11.47c-0.02,0.036 -0.037,0.073 -0.053,0.112c-0.035,-0.007 -0.072,-0.013 -0.11,-0.019c0.037,-0.023 0.07,-0.046 0.099,-0.071c0.022,-0.007 0.043,-0.014 0.064,-0.022Zm9.044,-0.359l0,0.007c0,-0.002 0.001,-0.004 0.002,-0.006l-0.002,-0.001Zm-23.673,-0.979c0.111,-0.004 0.238,-0.017 0.384,-0.039c-0.113,0.075 -0.203,0.157 -0.272,0.245c-0.042,-0.068 -0.08,-0.136 -0.112,-0.206Zm-0.924,-1.057c0.164,0.126 0.383,0.22 0.667,0.277c-0.329,0.211 -0.545,0.248 -0.707,0.203c-0.067,-0.148 -0.059,-0.307 0.04,-0.48Zm0.852,0.307c0.048,0.006 0.097,0.012 0.148,0.016c-0.057,0.011 -0.111,0.023 -0.161,0.037c0.004,-0.018 0.008,-0.035 0.013,-0.053Zm11.154,-0.05c-0.01,-0.001 -0.02,-0.002 -0.031,-0.004c0.011,0.001 0.022,0.002 0.032,0.004l-0.001,0Zm23.084,-0.064l0,-0.009c0,0.003 0.001,0.006 0.002,0.008l-0.002,0.001Zm-31.984,-1.002l-0.001,0.008c0.001,-0.002 0.001,-0.005 0.002,-0.007l-0.001,-0.001Zm12.193,-0.502c0.017,-0.036 0.032,-0.073 0.048,-0.111c0.002,0.034 0.009,0.066 0.019,0.097c-0.022,0.004 -0.044,0.009 -0.067,0.014Zm-13.685,-1.083l0.003,0.007c-0.001,-0.003 -0.001,-0.005 -0.002,-0.007l-0.001,0Zm11.219,-0.074c-0.03,-0.47 0.16,-0.8 0.505,-1.033c0.037,0.025 0.072,0.052 0.105,0.08c0.051,0.222 0.117,0.439 0.366,0.599c0.003,0.016 0.006,0.031 0.009,0.047c-0.35,0.01 -0.678,0.115 -0.985,0.307Zm18.088,-2.667l0.005,0.004c-0.002,0.007 -0.004,0.013 -0.006,0.02l0.001,-0.024Zm-1.204,-0.414l0,0.007c0.001,-0.002 0.001,-0.004 0.002,-0.007l-0.002,0Zm-0.999,-0.314c-0.057,0.018 -0.117,0.034 -0.182,0.047c0.062,0.01 0.121,0.02 0.177,0.031c0.001,-0.027 0.003,-0.053 0.005,-0.078Zm0.806,-0.51c0.062,-0.069 0.138,-0.134 0.229,-0.194c-0.137,0.02 -0.257,0.033 -0.364,0.038c0.05,0.047 0.095,0.099 0.135,0.156Zm-0.802,-1.053c-0.052,0.301 -0.195,0.557 -0.452,0.755c-0.014,0.009 -0.027,0.019 -0.041,0.03c0.014,-0.01 0.028,-0.02 0.041,-0.03c0.163,-0.117 0.317,-0.169 0.461,-0.163c0.078,-0.204 0.305,-0.351 0.714,-0.428c-0.291,-0.025 -0.53,-0.081 -0.723,-0.164Zm6.912,-0.733l0.011,0.002l-0.001,-0.003l-0.01,0.001Zm-5.089,-0.419c-0.017,0.019 -0.036,0.039 -0.058,0.059c0.028,0.04 0.052,0.084 0.069,0.133c-0.008,-0.067 -0.011,-0.131 -0.011,-0.192Zm-9.169,-1.062c-0.082,0.296 -0.391,0.542 -1.292,0.66c0.026,0.004 0.052,0.009 0.078,0.015l0.003,-0.017c0.526,-0.076 0.845,0.04 0.957,0.348c-0.051,-0.426 0.069,-0.743 0.317,-0.98c-0.021,-0.008 -0.042,-0.017 -0.063,-0.026Zm9.206,0.764c-0.012,-0.015 -0.027,-0.029 -0.043,-0.043c0.013,0.017 0.027,0.035 0.04,0.051l0.003,-0.008Zm-10.758,-0.878c-0.014,0.027 -0.03,0.054 -0.047,0.079c0.035,-0.009 0.07,-0.017 0.104,-0.025c-0.02,-0.018 -0.039,-0.036 -0.057,-0.054Zm1.396,0.035c-0.158,-0.091 -0.308,-0.213 -0.446,-0.375c-0.015,-0.031 -0.039,-0.06 -0.072,-0.088c0.024,0.03 0.048,0.06 0.072,0.088c0.041,0.089 0.005,0.191 -0.116,0.306c0.209,0.003 0.392,0.03 0.562,0.069Zm9.319,-1.456l0,0.007c0,-0.002 0.001,-0.004 0.002,-0.006l-0.002,-0.001Zm-22.693,-0.696l0,0.008c0,-0.002 0.001,-0.004 0.002,-0.007l-0.002,-0.001Zm9.672,-1.643l-0.001,0.008c0.001,-0.003 0.001,-0.005 0.002,-0.007l-0.001,-0.001Z" style="fill:#276e37;"/><path d="M40.314,22.336c0.242,0.246 0.312,0.564 0.256,0.936c-0.121,-0.011 -0.24,-0.03 -0.356,-0.059c0.075,-0.048 0.147,-0.11 0.216,-0.187c-0.046,-0.319 -0.323,-0.488 -0.745,-0.562c0.254,-0.033 0.461,-0.076 0.629,-0.128Zm-7.386,-2.196c0.272,-0.13 0.387,-0.293 0.426,-0.473c-0.407,-0.119 -0.878,-0.179 -1.607,0c0.12,-0.177 0.187,-0.418 0.153,-0.776c-0.554,0.011 -0.894,0.117 -0.957,0.347c0.041,-0.569 -0.17,-0.9 -0.497,-1.124c-0.367,0.248 -0.559,0.605 -0.497,1.124c-0.112,-0.308 -0.431,-0.424 -0.957,-0.347c-0.046,0.249 -0.075,0.5 0.153,0.776c-0.389,-0.172 -0.802,-0.202 -1.237,-0.108c-0.084,-0.24 -0.238,-0.414 -0.435,-0.549c-0.367,0.248 -0.559,0.606 -0.497,1.124c-0.112,-0.307 -0.431,-0.423 -0.957,-0.347c-0.023,0.123 -0.041,0.246 -0.027,0.372c-0.369,0.016 -0.567,-0.056 -0.682,-0.171c0.023,-0.274 0.251,-0.469 0.745,-0.563c-0.723,-0.062 -1.123,-0.314 -1.301,-0.694c0.572,-0.209 1.11,-0.22 1.608,0c-0.228,-0.277 -0.199,-0.528 -0.153,-0.777c0.525,-0.076 0.845,0.039 0.957,0.347c-0.062,-0.518 0.13,-0.876 0.497,-1.124c0.196,0.135 0.351,0.308 0.434,0.549c0.435,-0.094 0.849,-0.064 1.238,0.108c-0.228,-0.276 -0.2,-0.527 -0.154,-0.777c0.526,-0.076 0.845,0.04 0.958,0.348c-0.063,-0.519 0.13,-0.877 0.497,-1.124c0.326,0.224 0.538,0.555 0.496,1.124c0.064,-0.23 0.404,-0.336 0.958,-0.348c0.034,0.359 -0.034,0.6 -0.154,0.777c0.73,-0.179 1.201,-0.119 1.608,0c-0.067,0.311 -0.364,0.572 -1.301,0.695c0.027,0.005 0.053,0.01 0.078,0.015l0.003,-0.016c0.526,-0.077 0.845,0.039 0.958,0.347c-0.063,-0.519 0.13,-0.876 0.496,-1.124c0.248,0.169 0.429,0.4 0.484,0.749c0.244,-0.026 0.438,-0.008 0.585,0.056c0.085,-0.012 0.179,-0.02 0.281,-0.025c0.038,-0.347 0.217,-0.605 0.501,-0.796c0.327,0.223 0.538,0.555 0.497,1.124c0.064,-0.23 0.404,-0.336 0.958,-0.348c0.033,0.359 -0.034,0.599 -0.154,0.777c0.729,-0.179 1.2,-0.119 1.608,0c-0.068,0.311 -0.365,0.572 -1.301,0.695c0.027,0.004 0.053,0.009 0.078,0.015l0.003,-0.017c0.526,-0.076 0.845,0.04 0.957,0.348c-0.062,-0.519 0.13,-0.876 0.497,-1.124c0.327,0.224 0.538,0.555 0.497,1.124c0.063,-0.23 0.404,-0.336 0.957,-0.348c0.034,0.359 -0.033,0.6 -0.153,0.777c0.729,-0.179 1.2,-0.119 1.608,0c-0.068,0.311 -0.365,0.572 -1.301,0.695c0.423,0.073 0.699,0.242 0.745,0.562c-0.208,0.23 -0.44,0.333 -0.7,0.283c0.369,-0.136 0.515,-0.321 0.56,-0.528c-0.407,-0.119 -0.878,-0.18 -1.608,0c0.121,-0.178 0.188,-0.418 0.154,-0.777c-0.554,0.011 -0.894,0.118 -0.957,0.347c0.041,-0.568 -0.171,-0.9 -0.497,-1.124c-0.367,0.248 -0.559,0.606 -0.497,1.124c-0.112,-0.308 -0.432,-0.423 -0.957,-0.347l-0.003,0.016c-0.026,-0.005 -0.052,-0.01 -0.078,-0.015c0.936,-0.122 1.233,-0.384 1.3,-0.695c-0.407,-0.118 -0.878,-0.179 -1.607,0c0.12,-0.177 0.187,-0.417 0.153,-0.776c-0.554,0.011 -0.894,0.117 -0.957,0.347c0.041,-0.569 -0.17,-0.9 -0.497,-1.124c-0.367,0.248 -0.559,0.606 -0.497,1.124c-0.112,-0.308 -0.431,-0.424 -0.957,-0.347c-0.01,0.054 -0.019,0.109 -0.025,0.163c-0.15,0.13 -0.259,0.285 -0.32,0.471c-0.068,-0.009 -0.137,-0.015 -0.207,-0.017Zm-4.957,-0.013l-0.001,0.007c0.001,-0.002 0.001,-0.004 0.002,-0.006l-0.001,-0.001Zm0.189,-1.833l0,0.007c0,-0.002 0.001,-0.004 0.002,-0.006l-0.002,-0.001Zm-13.202,-3.897c0.033,-0.029 0.063,-0.06 0.088,-0.094c0.015,0.006 0.03,0.013 0.046,0.019c0.051,0.008 0.102,0.017 0.153,0.028c-0.002,0.013 -0.004,0.025 -0.006,0.037c0.024,0.011 0.049,0.023 0.074,0.036c-0.04,-0.05 -0.074,-0.099 -0.104,-0.148c-0.044,-0.009 -0.086,-0.019 -0.125,-0.031c0.031,-0.056 0.051,-0.118 0.061,-0.187c-0.287,-0.317 -0.62,-0.393 -1.011,-0.158c-0.014,0.009 -0.027,0.017 -0.041,0.026c0.014,-0.009 0.027,-0.018 0.041,-0.026c0.402,-0.261 0.525,-0.639 0.456,-1.099c-0.454,0.041 -0.878,0.194 -1.23,0.607c-0.014,0.031 -0.038,0.06 -0.071,0.088c0.024,-0.031 0.047,-0.06 0.071,-0.088c0.075,-0.16 -0.1,-0.36 -0.568,-0.607c-0.423,0.217 -0.58,0.449 -0.496,0.695c-0.226,-0.225 -0.467,-0.386 -0.719,-0.502c0.099,-0.201 0.122,-0.435 0.082,-0.695c-0.454,0.041 -0.877,0.194 -1.229,0.607c-0.014,0.031 -0.038,0.06 -0.071,0.088c0.023,-0.031 0.047,-0.06 0.071,-0.088c0.075,-0.16 -0.101,-0.36 -0.568,-0.607c-0.423,0.217 -0.581,0.449 -0.497,0.695c-0.394,-0.394 -0.836,-0.59 -1.301,-0.695c-0.025,0.427 0.051,0.826 0.497,1.125c-0.028,-0.005 -0.055,-0.009 -0.082,-0.012c-0.001,-0.012 -0.003,-0.025 -0.005,-0.037c-0.052,0.005 -0.103,0.011 -0.154,0.019c-0.453,-0.041 -0.683,0.034 -0.811,0.162c0.004,0.052 0.016,0.1 0.035,0.146c-0.104,0.076 -0.204,0.168 -0.299,0.279c-0.015,0.031 -0.038,0.061 -0.071,0.089c0.023,-0.031 0.047,-0.06 0.071,-0.089c0.074,-0.159 -0.101,-0.359 -0.568,-0.606c-0.423,0.217 -0.581,0.449 -0.497,0.695c-0.169,-0.169 -0.347,-0.302 -0.532,-0.406c0.215,-0.125 0.502,-0.208 0.875,-0.24c-0.495,-0.093 -0.723,-0.289 -0.745,-0.562c0.149,-0.149 0.436,-0.227 1.052,-0.133c-0.446,-0.298 -0.522,-0.697 -0.497,-1.124c0.464,0.105 0.907,0.301 1.301,0.695c-0.084,-0.246 0.074,-0.478 0.497,-0.695c0.467,0.247 0.642,0.447 0.568,0.606c-0.024,0.029 -0.048,0.058 -0.072,0.089c0.033,-0.028 0.057,-0.058 0.072,-0.089c0.094,-0.111 0.194,-0.203 0.299,-0.279c-0.019,-0.046 -0.031,-0.094 -0.035,-0.146c0.128,-0.128 0.358,-0.203 0.811,-0.162c0.051,-0.008 0.102,-0.014 0.154,-0.019c0.002,0.012 0.004,0.025 0.005,0.037c0.027,0.003 0.054,0.007 0.082,0.012c-0.446,-0.299 -0.522,-0.698 -0.497,-1.125c0.465,0.106 0.907,0.301 1.301,0.695c-0.084,-0.246 0.074,-0.478 0.497,-0.695c0.467,0.247 0.642,0.447 0.568,0.607c-0.024,0.028 -0.048,0.057 -0.071,0.088c0.033,-0.028 0.056,-0.057 0.071,-0.088c0.352,-0.413 0.775,-0.566 1.229,-0.607c0.039,0.26 0.017,0.494 -0.082,0.695c0.252,0.116 0.493,0.277 0.718,0.502c-0.083,-0.246 0.074,-0.478 0.497,-0.695c0.467,0.247 0.643,0.447 0.568,0.607c-0.024,0.028 -0.048,0.057 -0.071,0.088c0.033,-0.028 0.057,-0.057 0.071,-0.088c0.352,-0.413 0.775,-0.566 1.23,-0.607c0.069,0.46 -0.054,0.839 -0.457,1.099c-0.013,0.008 -0.027,0.017 -0.04,0.026c0.014,-0.009 0.027,-0.017 0.04,-0.026c0.392,-0.235 0.725,-0.159 1.012,0.158c-0.046,0.32 -0.322,0.489 -0.745,0.562c0.936,0.123 1.233,0.384 1.301,0.695c-0.38,0.111 -0.815,0.171 -1.463,0.034c0.198,0.182 0.374,0.402 0.517,0.675c-0.007,-0.26 0.213,-0.434 0.681,-0.514c0.373,0.375 0.48,0.618 0.361,0.748c-0.031,0.02 -0.063,0.041 -0.094,0.063c0.04,-0.016 0.071,-0.037 0.094,-0.063c0.459,-0.288 0.909,-0.308 1.355,-0.211c-0.041,0.26 -0.132,0.476 -0.287,0.639c0.206,0.186 0.388,0.411 0.536,0.694c-0.006,-0.26 0.213,-0.435 0.682,-0.515c0.372,0.375 0.479,0.619 0.361,0.749c-0.032,0.019 -0.063,0.04 -0.095,0.063c0.04,-0.017 0.072,-0.038 0.095,-0.063c0.459,-0.289 0.908,-0.308 1.354,-0.211c-0.071,0.459 -0.302,0.783 -0.764,0.912c-0.015,0.003 -0.031,0.007 -0.046,0.012c0.015,-0.004 0.031,-0.008 0.046,-0.012c0.444,-0.108 0.739,0.064 0.918,0.453c-0.139,0.291 -0.454,0.37 -0.879,0.314c0.511,0.236 0.79,0.452 0.926,0.655c-0.318,-0.056 -0.691,-0.061 -1.189,0.05c-0.022,-0.011 -0.044,-0.023 -0.066,-0.035c0.097,-0.171 0.147,-0.397 0.117,-0.718c-0.554,0.012 -0.894,0.118 -0.958,0.348c0.042,-0.569 -0.17,-0.901 -0.496,-1.124c-0.367,0.247 -0.56,0.605 -0.497,1.124c-0.113,-0.308 -0.432,-0.424 -0.958,-0.348l-0.003,0.017c-0.025,-0.006 -0.051,-0.011 -0.077,-0.015c0.936,-0.123 1.233,-0.384 1.3,-0.695c-0.407,-0.119 -0.878,-0.179 -1.607,0c0.12,-0.178 0.187,-0.418 0.153,-0.777c-0.173,0.004 -0.324,0.017 -0.454,0.039c0.034,-0.076 0.058,-0.163 0.073,-0.258c-0.206,-0.234 -0.514,-0.234 -0.89,-0.082l-0.01,-0.01c0.69,-0.597 0.792,-0.971 0.68,-1.264c-0.383,0.115 -0.784,0.304 -1.258,0.783c-0.033,-0.021 -0.067,-0.042 -0.101,-0.062c-0.026,-0.164 -0.103,-0.342 -0.254,-0.542Zm-0.289,0.155c-0.04,0.033 -0.077,0.066 -0.111,0.098c-0.054,-0.014 -0.107,-0.024 -0.158,-0.031c0.098,-0.017 0.188,-0.039 0.269,-0.067Zm31.228,-2.219c0.002,0.082 -0.004,0.168 -0.018,0.256c-0.256,-0.023 -0.503,-0.082 -0.733,-0.203c0.291,0.02 0.533,-0.005 0.751,-0.053Zm-14.275,-5.977c0.112,-0.06 0.257,-0.107 0.438,-0.142c-0.723,-0.062 -1.123,-0.314 -1.301,-0.694c0.572,-0.209 1.11,-0.22 1.608,0c-0.228,-0.277 -0.199,-0.528 -0.153,-0.777c0.525,-0.076 0.845,0.039 0.957,0.347c-0.062,-0.518 0.13,-0.876 0.497,-1.124c0.196,0.135 0.351,0.308 0.434,0.549c0.436,-0.094 0.849,-0.064 1.238,0.108c-0.228,-0.277 -0.2,-0.528 -0.154,-0.777c0.526,-0.076 0.845,0.04 0.958,0.348c-0.063,-0.519 0.13,-0.877 0.497,-1.124c0.326,0.223 0.538,0.555 0.497,1.124c0.063,-0.23 0.403,-0.336 0.957,-0.348c0.034,0.359 -0.033,0.599 -0.154,0.777c0.73,-0.179 1.201,-0.119 1.608,0c-0.067,0.311 -0.364,0.572 -1.301,0.695c0.027,0.004 0.053,0.009 0.078,0.015l0.003,-0.017c0.526,-0.076 0.845,0.04 0.958,0.348c-0.063,-0.519 0.13,-0.876 0.496,-1.124c0.327,0.224 0.539,0.555 0.497,1.124c0.064,-0.23 0.404,-0.336 0.958,-0.348c0.033,0.359 -0.034,0.6 -0.154,0.777c0.73,-0.179 1.2,-0.119 1.608,0c-0.068,0.311 -0.364,0.572 -1.301,0.695c0.423,0.073 0.699,0.242 0.745,0.562c-0.222,0.246 -0.472,0.347 -0.756,0.27c0.017,0.051 0.03,0.105 0.04,0.162c0.053,0.074 0.094,0.153 0.123,0.237c0.151,-0.122 0.443,-0.182 0.85,-0.19c0.034,0.359 -0.033,0.599 -0.153,0.776c0.729,-0.179 1.2,-0.119 1.608,0c-0.068,0.311 -0.365,0.573 -1.301,0.695c0.026,0.005 0.052,0.01 0.078,0.015l0.003,-0.016c0.525,-0.076 0.845,0.039 0.957,0.347c-0.062,-0.518 0.13,-0.876 0.497,-1.124c0.326,0.224 0.538,0.555 0.497,1.124c0.063,-0.23 0.403,-0.336 0.957,-0.347c0.034,0.359 -0.033,0.599 -0.153,0.777c0.729,-0.18 1.2,-0.119 1.607,0c-0.067,0.311 -0.364,0.572 -1.3,0.694c0.422,0.074 0.699,0.243 0.745,0.562c-0.288,0.318 -0.621,0.394 -1.012,0.158c-0.013,-0.008 -0.027,-0.017 -0.04,-0.025c0.013,0.009 0.027,0.017 0.04,0.025c0.162,0.106 0.279,0.23 0.356,0.371c-0.199,-0.119 -0.507,-0.215 -0.974,-0.276c0.422,-0.073 0.699,-0.242 0.745,-0.562c-0.288,-0.317 -0.62,-0.393 -1.012,-0.158c-0.013,0.009 -0.027,0.017 -0.04,0.025c0.013,-0.008 0.027,-0.017 0.04,-0.025c0.402,-0.261 0.526,-0.639 0.456,-1.099c-0.454,0.041 -0.877,0.194 -1.229,0.607c-0.014,0.031 -0.038,0.06 -0.071,0.088c0.023,-0.031 0.047,-0.06 0.071,-0.088c0.075,-0.16 -0.101,-0.36 -0.568,-0.607c-0.423,0.217 -0.581,0.449 -0.497,0.695c-0.225,-0.226 -0.467,-0.386 -0.719,-0.502c0.1,-0.201 0.122,-0.435 0.083,-0.695c-0.454,0.041 -0.901,0.089 -0.447,-0.077c-0.178,-0.38 -0.577,-0.632 -1.3,-0.694c0.494,-0.094 0.722,-0.289 0.745,-0.562c-0.149,-0.15 -0.436,-0.227 -1.052,-0.133c0.445,-0.298 0.522,-0.697 0.496,-1.124c-0.464,0.105 -0.906,0.3 -1.3,0.694c0.084,-0.246 -0.074,-0.478 -0.497,-0.694c-0.467,0.247 -0.643,0.446 -0.568,0.606c0.024,0.028 0.048,0.058 0.071,0.088c-0.033,-0.028 -0.057,-0.057 -0.071,-0.088c-0.095,-0.111 -0.195,-0.203 -0.299,-0.28c0.019,-0.045 0.03,-0.094 0.035,-0.145c-0.129,-0.128 -0.358,-0.204 -0.811,-0.163c-0.051,-0.008 -0.103,-0.014 -0.155,-0.018c-0.001,0.012 -0.003,0.024 -0.005,0.036c-0.026,0.004 -0.054,0.008 -0.082,0.012c0.446,-0.298 0.523,-0.697 0.497,-1.124c-0.464,0.105 -0.907,0.3 -1.301,0.695c0.084,-0.246 -0.073,-0.478 -0.496,-0.695c-0.468,0.247 -0.643,0.447 -0.568,0.606c0.024,0.029 0.047,0.058 0.071,0.089c-0.033,-0.028 -0.057,-0.058 -0.071,-0.089c-0.352,-0.412 -0.776,-0.565 -1.23,-0.606c-0.039,0.26 -0.017,0.494 0.083,0.695c-0.252,0.116 -0.493,0.276 -0.719,0.502c0.084,-0.246 -0.074,-0.478 -0.497,-0.695c-0.467,0.247 -0.642,0.447 -0.568,0.606c0.024,0.029 0.048,0.058 0.071,0.089c-0.033,-0.028 -0.056,-0.058 -0.071,-0.089c-0.126,-0.147 -0.261,-0.262 -0.403,-0.35Zm-22.445,0.844c0.133,0.054 0.285,0.095 0.461,0.123c-0.15,0.06 -0.304,0.106 -0.46,0.141c-0.006,-0.089 -0.007,-0.178 -0.001,-0.264Zm0.304,-0.702c0.055,-0.055 0.119,-0.108 0.193,-0.158c-0.616,0.094 -0.903,0.017 -1.052,-0.133c0.023,-0.273 0.251,-0.468 0.745,-0.562c-0.723,-0.062 -1.123,-0.314 -1.3,-0.694c0.572,-0.209 1.11,-0.22 1.607,0c-0.228,-0.277 -0.199,-0.528 -0.153,-0.777c0.526,-0.076 0.845,0.039 0.957,0.347c-0.062,-0.518 0.13,-0.876 0.497,-1.124c0.196,0.135 0.351,0.308 0.434,0.549c0.436,-0.094 0.849,-0.064 1.238,0.108c-0.228,-0.277 -0.199,-0.527 -0.153,-0.777c0.526,-0.076 0.845,0.04 0.957,0.348c-0.062,-0.519 0.13,-0.877 0.497,-1.124c0.326,0.223 0.538,0.555 0.497,1.124c0.063,-0.23 0.403,-0.336 0.957,-0.348c0.023,0.242 0,0.43 -0.054,0.581c0.304,-0.038 0.598,-0.011 0.879,0.086c0.037,0.002 0.073,0.005 0.109,0.008c-0.186,-0.257 -0.158,-0.492 -0.115,-0.726c0.526,-0.077 0.845,0.039 0.958,0.347c-0.063,-0.518 0.13,-0.876 0.496,-1.124c0.197,0.135 0.352,0.308 0.435,0.549c0.435,-0.094 0.849,-0.064 1.238,0.108c-0.229,-0.277 -0.2,-0.528 -0.154,-0.777c0.526,-0.076 0.845,0.04 0.957,0.348c-0.062,-0.519 0.131,-0.877 0.497,-1.125c0.327,0.224 0.538,0.556 0.497,1.125c0.064,-0.23 0.404,-0.336 0.958,-0.348c0.033,0.359 -0.034,0.599 -0.154,0.777c0.729,-0.179 1.2,-0.119 1.608,0c-0.068,0.311 -0.365,0.572 -1.301,0.695c0.027,0.004 0.053,0.009 0.078,0.015l0.003,-0.017c0.526,-0.076 0.845,0.04 0.957,0.348c-0.062,-0.519 0.13,-0.877 0.497,-1.124c0.327,0.223 0.538,0.555 0.497,1.124c0.063,-0.23 0.404,-0.336 0.957,-0.348c0.034,0.359 -0.033,0.599 -0.153,0.777c0.729,-0.179 1.2,-0.119 1.608,0c-0.068,0.311 -0.365,0.572 -1.301,0.695c0.423,0.073 0.699,0.242 0.745,0.562c-0.287,0.317 -0.62,0.393 -1.012,0.158c-0.013,-0.009 -0.026,-0.017 -0.04,-0.025c0.013,0.009 0.027,0.017 0.04,0.025c0.162,0.105 -0.123,0.408 -0.419,0.482c0.12,-0.178 0.187,-0.418 0.153,-0.777c-0.554,0.011 -0.894,0.117 -0.957,0.347c0.041,-0.569 -0.171,-0.9 -0.497,-1.124c-0.367,0.248 -0.559,0.606 -0.497,1.124c-0.112,-0.308 -0.432,-0.423 -0.957,-0.347l-0.003,0.016c-0.026,-0.005 -0.052,-0.01 -0.078,-0.015c0.936,-0.122 1.233,-0.384 1.301,-0.695c-0.408,-0.119 -0.879,-0.179 -1.608,0c0.12,-0.177 0.187,-0.417 0.153,-0.776c-0.554,0.011 -0.894,0.117 -0.957,0.347c0.041,-0.569 -0.17,-0.9 -0.497,-1.124c-0.367,0.248 -0.559,0.605 -0.497,1.124c-0.112,-0.308 -0.431,-0.424 -0.957,-0.347c-0.046,0.249 -0.075,0.5 0.153,0.776c-0.389,-0.172 -0.802,-0.202 -1.237,-0.108c-0.084,-0.24 -0.238,-0.414 -0.435,-0.549c-0.367,0.248 -0.559,0.606 -0.497,1.124c-0.107,-0.293 -0.401,-0.412 -0.883,-0.357c-0.001,-0.041 -0.004,-0.083 -0.008,-0.128c-0.554,0.011 -0.894,0.118 -0.958,0.348c0.042,-0.569 -0.17,-0.901 -0.496,-1.125c-0.367,0.248 -0.56,0.606 -0.497,1.125c-0.113,-0.308 -0.432,-0.424 -0.958,-0.348c-0.046,0.249 -0.074,0.5 0.154,0.777c-0.389,-0.172 -0.803,-0.202 -1.238,-0.108c-0.083,-0.241 -0.238,-0.415 -0.434,-0.549c-0.367,0.248 -0.559,0.605 -0.497,1.124c-0.112,-0.308 -0.432,-0.424 -0.957,-0.347c-0.047,0.249 -0.075,0.5 0.153,0.776c-0.225,-0.099 -0.458,-0.151 -0.699,-0.159Zm2.497,-0.278l0,0.008c0,-0.002 0.001,-0.005 0.002,-0.007l-0.002,-0.001Zm3.859,-0.613c0.012,0.041 0.027,0.082 0.048,0.124c-0.043,0.009 -0.086,0.019 -0.131,0.03c0.032,-0.047 0.06,-0.098 0.083,-0.154Zm1.957,-0.145l-0.001,0.007c0.001,-0.002 0.001,-0.004 0.002,-0.006l-0.001,-0.001Zm16.371,-0.379l0,0.007c0,-0.002 0.001,-0.004 0.002,-0.007l-0.002,0Zm-18.225,-0.399c-0.115,0.025 -0.242,0.046 -0.384,0.065c0.026,0.005 0.052,0.01 0.077,0.015l0.003,-0.016c0.111,-0.016 0.212,-0.024 0.305,-0.023c0.04,-0.01 0.082,-0.019 0.127,-0.028c-0.044,-0.004 -0.087,-0.008 -0.128,-0.013Zm-4.468,-0.17l0,0.007c0,-0.002 0.001,-0.004 0.002,-0.007l-0.002,0Zm6.701,-0.949l-0.001,0.008c0.001,-0.002 0.002,-0.004 0.002,-0.007l-0.001,-0.001Z" style="fill:#418121;"/><path d="M23.346,10.257c0.294,0.07 0.57,0.264 0.809,0.734c-0.069,-0.206 0.08,-0.405 0.397,-0.601c0.186,0.277 0.258,0.492 0.27,0.674c0.342,-0.389 0.644,-0.498 0.936,-0.54c0.105,0.272 0.053,0.581 -0.436,0.994c0.28,-0.084 0.519,-0.041 0.694,0.2c-0.021,0.362 -0.19,0.535 -0.551,0.46c0.374,0.063 0.631,0.329 0.809,0.733c-0.303,0.129 -0.644,0.142 -1.079,-0.119c0.198,0.07 0.221,0.3 0.032,0.724c-0.346,-0.032 -0.545,-0.165 -0.61,-0.39c-0.048,0.448 -0.215,0.754 -0.437,0.994c-0.212,-0.334 -0.352,-0.679 -0.23,-1.068c-0.315,0.283 -0.518,0.317 -0.674,0.248c-0.114,-0.227 -0.071,-0.46 0.174,-0.701c-0.451,0.193 -0.799,0.126 -1.079,-0.119c0.237,-0.36 0.544,-0.55 0.936,-0.541c-0.261,-0.145 -0.36,-0.356 -0.449,-0.571c0.271,-0.238 0.511,-0.252 0.719,-0.043c-0.277,-0.395 -0.33,-0.746 -0.231,-1.068Z" style="fill:url(#_Radial1);"/><path d="M31.563,8.108c0.294,0.069 0.571,0.264 0.81,0.733c-0.07,-0.205 0.079,-0.405 0.397,-0.6c0.185,0.276 0.257,0.491 0.269,0.674c0.342,-0.389 0.644,-0.499 0.937,-0.54c0.104,0.271 0.052,0.581 -0.436,0.994c0.28,-0.084 0.519,-0.041 0.694,0.199c-0.022,0.363 -0.191,0.536 -0.552,0.46c0.374,0.064 0.631,0.33 0.809,0.734c-0.302,0.128 -0.644,0.142 -1.078,-0.119c0.197,0.069 0.22,0.3 0.032,0.723c-0.347,-0.031 -0.546,-0.164 -0.611,-0.389c-0.047,0.448 -0.214,0.753 -0.436,0.994c-0.212,-0.334 -0.352,-0.679 -0.231,-1.068c-0.315,0.283 -0.518,0.317 -0.674,0.248c-0.113,-0.227 -0.071,-0.46 0.174,-0.701c-0.45,0.193 -0.799,0.126 -1.079,-0.12c0.237,-0.359 0.545,-0.549 0.936,-0.54c-0.26,-0.145 -0.36,-0.356 -0.448,-0.571c0.271,-0.238 0.51,-0.252 0.718,-0.043c-0.276,-0.395 -0.33,-0.746 -0.231,-1.068Z" style="fill:url(#_Radial2);"/><path d="M42.562,11.079c0.294,0.069 0.57,0.264 0.809,0.733c-0.069,-0.205 0.08,-0.405 0.397,-0.6c0.186,0.276 0.258,0.491 0.27,0.674c0.342,-0.389 0.644,-0.499 0.936,-0.54c0.105,0.271 0.053,0.581 -0.436,0.993c0.281,-0.083 0.52,-0.04 0.694,0.2c-0.021,0.363 -0.19,0.535 -0.551,0.46c0.374,0.064 0.631,0.33 0.809,0.734c-0.303,0.128 -0.644,0.142 -1.079,-0.119c0.198,0.069 0.221,0.3 0.032,0.723c-0.346,-0.031 -0.545,-0.164 -0.61,-0.389c-0.047,0.448 -0.215,0.753 -0.436,0.994c-0.213,-0.334 -0.353,-0.679 -0.231,-1.068c-0.315,0.282 -0.518,0.317 -0.674,0.247c-0.113,-0.226 -0.071,-0.459 0.174,-0.7c-0.45,0.193 -0.799,0.126 -1.079,-0.12c0.237,-0.359 0.545,-0.549 0.936,-0.54c-0.261,-0.145 -0.36,-0.356 -0.448,-0.571c0.271,-0.238 0.51,-0.252 0.718,-0.044c-0.276,-0.394 -0.33,-0.745 -0.231,-1.067Z" style="fill:url(#_Radial3);"/><path d="M35.293,13.354c0.293,0.07 0.57,0.264 0.809,0.734c-0.069,-0.205 0.08,-0.405 0.397,-0.6c0.186,0.276 0.258,0.491 0.27,0.674c0.342,-0.389 0.644,-0.499 0.936,-0.541c0.105,0.272 0.053,0.581 -0.436,0.994c0.28,-0.083 0.519,-0.041 0.694,0.2c-0.021,0.363 -0.19,0.535 -0.551,0.46c0.373,0.063 0.631,0.329 0.809,0.734c-0.303,0.128 -0.644,0.141 -1.079,-0.12c0.198,0.07 0.221,0.3 0.032,0.724c-0.346,-0.031 -0.546,-0.164 -0.611,-0.39c-0.047,0.449 -0.214,0.754 -0.436,0.994c-0.212,-0.333 -0.352,-0.679 -0.23,-1.067c-0.316,0.282 -0.518,0.316 -0.674,0.247c-0.114,-0.227 -0.071,-0.46 0.174,-0.701c-0.451,0.193 -0.8,0.126 -1.079,-0.119c0.237,-0.359 0.544,-0.55 0.936,-0.541c-0.261,-0.145 -0.36,-0.355 -0.449,-0.57c0.271,-0.238 0.511,-0.253 0.718,-0.044c-0.276,-0.394 -0.329,-0.746 -0.23,-1.068Z" style="fill:url(#_Radial4);"/><path d="M35.735,20.055c0.294,0.069 0.571,0.264 0.81,0.733c-0.07,-0.205 0.079,-0.405 0.396,-0.6c0.186,0.276 0.258,0.491 0.27,0.674c0.342,-0.389 0.644,-0.499 0.937,-0.54c0.104,0.271 0.052,0.58 -0.436,0.993c0.28,-0.083 0.519,-0.04 0.694,0.2c-0.022,0.363 -0.191,0.535 -0.552,0.46c0.374,0.064 0.631,0.33 0.809,0.734c-0.302,0.128 -0.644,0.142 -1.078,-0.119c0.197,0.069 0.22,0.3 0.032,0.723c-0.347,-0.031 -0.546,-0.164 -0.611,-0.389c-0.047,0.448 -0.214,0.753 -0.436,0.994c-0.212,-0.334 -0.353,-0.679 -0.231,-1.068c-0.315,0.282 -0.518,0.317 -0.674,0.247c-0.113,-0.226 -0.071,-0.459 0.174,-0.7c-0.45,0.193 -0.799,0.126 -1.079,-0.12c0.237,-0.359 0.545,-0.549 0.936,-0.54c-0.26,-0.145 -0.36,-0.356 -0.448,-0.571c0.271,-0.238 0.51,-0.252 0.718,-0.044c-0.276,-0.394 -0.33,-0.745 -0.231,-1.067Z" style="fill:url(#_Radial5);"/><path d="M28.782,22.457c0.294,0.069 0.57,0.264 0.809,0.733c-0.069,-0.205 0.08,-0.405 0.397,-0.6c0.186,0.276 0.258,0.491 0.27,0.674c0.342,-0.389 0.644,-0.499 0.936,-0.54c0.105,0.271 0.053,0.581 -0.436,0.993c0.28,-0.083 0.52,-0.04 0.694,0.2c-0.021,0.363 -0.19,0.535 -0.551,0.46c0.374,0.064 0.631,0.33 0.809,0.734c-0.303,0.128 -0.644,0.142 -1.079,-0.119c0.198,0.069 0.221,0.3 0.032,0.723c-0.346,-0.031 -0.545,-0.164 -0.61,-0.389c-0.047,0.448 -0.215,0.753 -0.436,0.994c-0.213,-0.334 -0.353,-0.679 -0.231,-1.068c-0.315,0.282 -0.518,0.317 -0.674,0.247c-0.113,-0.226 -0.071,-0.459 0.174,-0.7c-0.45,0.193 -0.799,0.126 -1.079,-0.12c0.237,-0.359 0.545,-0.549 0.936,-0.54c-0.261,-0.145 -0.36,-0.356 -0.449,-0.571c0.271,-0.238 0.511,-0.252 0.719,-0.044c-0.276,-0.394 -0.33,-0.745 -0.231,-1.067Z" style="fill:url(#_Radial6);"/><path d="M17.657,16.578c0.294,0.07 0.57,0.264 0.809,0.734c-0.069,-0.206 0.08,-0.405 0.397,-0.6c0.186,0.276 0.258,0.491 0.27,0.673c0.342,-0.389 0.644,-0.498 0.936,-0.54c0.105,0.272 0.053,0.581 -0.436,0.994c0.28,-0.084 0.519,-0.041 0.694,0.2c-0.021,0.363 -0.19,0.535 -0.551,0.46c0.373,0.063 0.631,0.329 0.809,0.733c-0.303,0.129 -0.644,0.142 -1.079,-0.119c0.198,0.07 0.221,0.3 0.032,0.724c-0.346,-0.032 -0.545,-0.165 -0.61,-0.39c-0.048,0.448 -0.215,0.754 -0.437,0.994c-0.212,-0.333 -0.352,-0.679 -0.23,-1.068c-0.315,0.283 -0.518,0.317 -0.674,0.248c-0.114,-0.227 -0.071,-0.46 0.174,-0.701c-0.451,0.193 -0.799,0.126 -1.079,-0.119c0.237,-0.36 0.544,-0.55 0.936,-0.541c-0.261,-0.145 -0.36,-0.356 -0.449,-0.571c0.271,-0.237 0.511,-0.252 0.719,-0.043c-0.277,-0.395 -0.33,-0.746 -0.231,-1.068Z" style="fill:url(#_Radial7);"/><path d="M8.871,19.739c0.293,0.069 0.57,0.264 0.809,0.733c-0.069,-0.205 0.079,-0.405 0.397,-0.6c0.185,0.276 0.257,0.491 0.27,0.674c0.341,-0.389 0.643,-0.499 0.936,-0.541c0.104,0.272 0.052,0.581 -0.436,0.994c0.28,-0.083 0.519,-0.04 0.694,0.2c-0.021,0.363 -0.191,0.535 -0.552,0.46c0.374,0.064 0.632,0.329 0.81,0.734c-0.303,0.128 -0.645,0.142 -1.079,-0.119c0.198,0.069 0.22,0.299 0.032,0.723c-0.347,-0.031 -0.546,-0.164 -0.611,-0.389c-0.047,0.448 -0.214,0.753 -0.436,0.994c-0.212,-0.334 -0.352,-0.679 -0.231,-1.068c-0.315,0.282 -0.518,0.317 -0.674,0.247c-0.113,-0.226 -0.07,-0.459 0.174,-0.7c-0.45,0.193 -0.799,0.125 -1.079,-0.12c0.237,-0.359 0.545,-0.549 0.937,-0.54c-0.261,-0.145 -0.361,-0.356 -0.449,-0.571c0.271,-0.238 0.51,-0.252 0.718,-0.044c-0.276,-0.394 -0.329,-0.745 -0.23,-1.067Z" style="fill:url(#_Radial8);"/><path d="M8.302,12.722c0.293,0.07 0.57,0.264 0.809,0.734c-0.069,-0.205 0.08,-0.405 0.397,-0.6c0.185,0.276 0.257,0.491 0.27,0.674c0.342,-0.389 0.644,-0.499 0.936,-0.541c0.105,0.272 0.052,0.581 -0.436,0.994c0.28,-0.083 0.519,-0.041 0.694,0.2c-0.021,0.363 -0.191,0.535 -0.552,0.46c0.374,0.063 0.632,0.329 0.81,0.733c-0.303,0.129 -0.645,0.142 -1.079,-0.119c0.198,0.07 0.221,0.3 0.032,0.724c-0.347,-0.032 -0.546,-0.164 -0.611,-0.39c-0.047,0.449 -0.214,0.754 -0.436,0.994c-0.212,-0.333 -0.352,-0.679 -0.23,-1.068c-0.316,0.283 -0.519,0.317 -0.675,0.248c-0.113,-0.227 -0.07,-0.46 0.174,-0.701c-0.45,0.193 -0.799,0.126 -1.078,-0.119c0.236,-0.359 0.544,-0.55 0.936,-0.541c-0.261,-0.145 -0.36,-0.355 -0.449,-0.57c0.271,-0.238 0.51,-0.253 0.718,-0.044c-0.276,-0.395 -0.329,-0.746 -0.23,-1.068Z" style="fill:url(#_Radial9);"/><path d="M14.876,5.2c0.293,0.07 0.57,0.264 0.809,0.734c-0.069,-0.206 0.08,-0.405 0.397,-0.6c0.185,0.276 0.257,0.491 0.27,0.673c0.341,-0.389 0.644,-0.498 0.936,-0.54c0.105,0.272 0.052,0.581 -0.436,0.994c0.28,-0.084 0.519,-0.041 0.694,0.2c-0.021,0.363 -0.191,0.535 -0.552,0.46c0.374,0.063 0.632,0.329 0.81,0.733c-0.303,0.129 -0.645,0.142 -1.079,-0.119c0.198,0.07 0.221,0.3 0.032,0.724c-0.347,-0.032 -0.546,-0.165 -0.611,-0.39c-0.047,0.448 -0.214,0.754 -0.436,0.994c-0.212,-0.333 -0.352,-0.679 -0.231,-1.068c-0.315,0.283 -0.518,0.317 -0.674,0.248c-0.113,-0.227 -0.07,-0.46 0.174,-0.701c-0.45,0.193 -0.799,0.126 -1.079,-0.119c0.237,-0.36 0.545,-0.55 0.937,-0.541c-0.261,-0.145 -0.361,-0.356 -0.449,-0.571c0.271,-0.237 0.51,-0.252 0.718,-0.043c-0.276,-0.395 -0.329,-0.746 -0.23,-1.068Z" style="fill:url(#_Radial10);"/><path d="M23.788,2.04c0.294,0.069 0.571,0.264 0.81,0.733c-0.07,-0.205 0.079,-0.405 0.397,-0.6c0.185,0.276 0.257,0.491 0.269,0.674c0.342,-0.389 0.644,-0.499 0.937,-0.541c0.104,0.272 0.052,0.581 -0.436,0.994c0.28,-0.083 0.519,-0.041 0.694,0.2c-0.022,0.363 -0.191,0.535 -0.552,0.46c0.374,0.063 0.632,0.329 0.809,0.734c-0.302,0.128 -0.644,0.142 -1.078,-0.12c0.198,0.07 0.22,0.3 0.032,0.724c-0.347,-0.031 -0.546,-0.164 -0.611,-0.389c-0.047,0.448 -0.214,0.753 -0.436,0.993c-0.212,-0.333 -0.352,-0.678 -0.231,-1.067c-0.315,0.282 -0.518,0.317 -0.674,0.247c-0.113,-0.226 -0.071,-0.459 0.174,-0.701c-0.45,0.194 -0.799,0.126 -1.079,-0.119c0.237,-0.359 0.545,-0.549 0.937,-0.54c-0.261,-0.145 -0.361,-0.356 -0.449,-0.571c0.271,-0.238 0.51,-0.253 0.718,-0.044c-0.276,-0.394 -0.33,-0.746 -0.231,-1.067Z" style="fill:url(#_Radial11);"/><defs><radialGradient id="_Radial1" cx="0" cy="0" r="1" gradientUnits="userSpaceOnUse" gradientTransform="matrix(1.69373,-0.977876,0.940667,1.62928,24.2866,11.8863)"><stop offset="0" style="stop-color:#ffdc00;stop-opacity:1"/><stop offset="1" style="stop-color:#b27033;stop-opacity:1"/></radialGradient><radialGradient id="_Radial2" cx="0" cy="0" r="1" gradientUnits="userSpaceOnUse" gradientTransform="matrix(1.69373,-0.977876,0.940667,1.62928,32.504,9.73711)"><stop offset="0" style="stop-color:#ffdc00;stop-opacity:1"/><stop offset="1" style="stop-color:#b27033;stop-opacity:1"/></radialGradient><radialGradient id="_Radial3" cx="0" cy="0" r="1" gradientUnits="userSpaceOnUse" gradientTransform="matrix(1.69373,-0.977876,0.940667,1.62928,43.5027,12.708)"><stop offset="0" style="stop-color:#ffdc00;stop-opacity:1"/><stop offset="1" style="stop-color:#b27033;stop-opacity:1"/></radialGradient><radialGradient id="_Radial4" cx="0" cy="0" r="1" gradientUnits="userSpaceOnUse" gradientTransform="matrix(1.69373,-0.977876,0.940667,1.62928,36.2335,14.9836)"><stop offset="0" style="stop-color:#ffdc00;stop-opacity:1"/><stop offset="1" style="stop-color:#b27033;stop-opacity:1"/></radialGradient><radialGradient id="_Radial5" cx="0" cy="0" r="1" gradientUnits="userSpaceOnUse" gradientTransform="matrix(1.69373,-0.977876,0.940667,1.62928,36.6759,21.684)"><stop offset="0" style="stop-color:#ffdc00;stop-opacity:1"/><stop offset="1" style="stop-color:#b27033;stop-opacity:1"/></radialGradient><radialGradient id="_Radial6" cx="0" cy="0" r="1" gradientUnits="userSpaceOnUse" gradientTransform="matrix(1.69373,-0.977876,0.940667,1.62928,29.7227,24.086)"><stop offset="0" style="stop-color:#ffdc00;stop-opacity:1"/><stop offset="1" style="stop-color:#b27033;stop-opacity:1"/></radialGradient><radialGradient id="_Radial7" cx="0" cy="0" r="1" gradientUnits="userSpaceOnUse" gradientTransform="matrix(1.69373,-0.977876,0.940667,1.62928,18.5976,18.2074)"><stop offset="0" style="stop-color:#ffdc00;stop-opacity:1"/><stop offset="1" style="stop-color:#b27033;stop-opacity:1"/></radialGradient><radialGradient id="_Radial8" cx="0" cy="0" r="1" gradientUnits="userSpaceOnUse" gradientTransform="matrix(1.69373,-0.977876,0.940667,1.62928,9.81122,21.368)"><stop offset="0" style="stop-color:#ffdc00;stop-opacity:1"/><stop offset="1" style="stop-color:#b27033;stop-opacity:1"/></radialGradient><radialGradient id="_Radial9" cx="0" cy="0" r="1" gradientUnits="userSpaceOnUse" gradientTransform="matrix(1.69373,-0.977876,0.940667,1.62928,9.24232,14.3515)"><stop offset="0" style="stop-color:#ffdc00;stop-opacity:1"/><stop offset="1" style="stop-color:#b27033;stop-opacity:1"/></radialGradient><radialGradient id="_Radial10" cx="0" cy="0" r="1" gradientUnits="userSpaceOnUse" gradientTransform="matrix(1.69373,-0.977876,0.940667,1.62928,15.8163,6.8294)"><stop offset="0" style="stop-color:#ffdc00;stop-opacity:1"/><stop offset="1" style="stop-color:#b27033;stop-opacity:1"/></radialGradient><radialGradient id="_Radial11" cx="0" cy="0" r="1" gradientUnits="userSpaceOnUse" gradientTransform="matrix(1.69373,-0.977876,0.940667,1.62928,24.729,3.66884)"><stop offset="0" style="stop-color:#ffdc00;stop-opacity:1"/><stop offset="1" style="stop-color:#b27033;stop-opacity:1"/></radialGradient></defs></svg>