<?xml version="1.0" encoding="UTF-8" standalone="no"?>
<!DOCTYPE svg PUBLIC "-//W3C//DTD SVG 1.1//EN" "http://www.w3.org/Graphics/SVG/1.1/DTD/svg11.dtd">
<svg width="100%" height="100%" viewBox="0 0 110 44" version="1.1" xmlns="http://www.w3.org/2000/svg" xmlns:xlink="http://www.w3.org/1999/xlink" xml:space="preserve" xmlns:serif="http://www.serif.com/" style="fill-rule:evenodd;clip-rule:evenodd;stroke-linejoin:round;stroke-miterlimit:1.41421;">
    <g transform="matrix(0.382725,0,0,0.534953,-177.4,-173.739)">
        <rect x="558.496" y="376.473" width="53.066" height="28.807" style="fill:rgb(208,227,237);"/>
    </g>
    <g transform="matrix(0.337213,0,0,0.601219,-175.968,-214.482)">
        <rect x="558.496" y="376.473" width="53.066" height="28.807" style="fill:rgb(143,218,148);"/>
    </g>
    <g transform="matrix(0.297429,0,0,0.345106,-77.6316,-112.861)">
        <rect x="558.496" y="376.473" width="53.066" height="28.807" style="fill:rgb(112,180,215);"/>
    </g>
    <g transform="matrix(0.167451,0,0,0.284126,-24.8019,-106.966)">
        <rect x="558.496" y="376.473" width="53.066" height="28.807" style="fill:rgb(143,218,148);"/>
    </g>
    <g transform="matrix(0.245954,0,0,0.454868,-58.8894,-147.023)">
        <rect x="558.496" y="376.473" width="53.066" height="28.807" style="fill:rgb(208,237,210);"/>
    </g>
    <g transform="matrix(0.1261,0,0,0.23321,-11.503,-64.3301)">
        <rect x="558.496" y="376.473" width="53.066" height="28.807" style="fill:rgb(208,237,210);"/>
    </g>
    <g transform="matrix(2.05491,0,0,0.0761259,-1147.66,12.1653)">
        <rect x="558.496" y="376.473" width="53.066" height="28.807" style="fill:rgb(208,227,237);"/>
    </g>
</svg>
