<?xml version="1.0" encoding="UTF-8" standalone="no"?>
<!DOCTYPE svg PUBLIC "-//W3C//DTD SVG 1.1//EN" "http://www.w3.org/Graphics/SVG/1.1/DTD/svg11.dtd">
<svg width="100%" height="100%" viewBox="0 0 167 122" version="1.1" xmlns="http://www.w3.org/2000/svg" xmlns:xlink="http://www.w3.org/1999/xlink" xml:space="preserve" xmlns:serif="http://www.serif.com/" style="fill-rule:evenodd;clip-rule:evenodd;stroke-linejoin:round;stroke-miterlimit:2;">
    <g transform="matrix(1.05774,0,0,0.71875,-1479.17,-552.715)">
        <rect x="1398.43" y="768.994" width="157.257" height="19.429" style="fill:rgb(112,180,215);"/>
    </g>
    <g transform="matrix(0.964275,0,0,0.71875,-1348.47,-535.306)">
        <rect x="1398.43" y="768.994" width="157.257" height="19.429" style="fill:rgb(112,180,215);"/>
    </g>
    <g transform="matrix(0.798616,0,0,0.71875,-1116.81,-516.156)">
        <rect x="1398.43" y="768.994" width="157.257" height="19.429" style="fill:rgb(112,180,215);"/>
    </g>
    <g transform="matrix(0.686258,0,0,0.71875,-959.683,-498.499)">
        <rect x="1398.43" y="768.994" width="157.257" height="19.429" style="fill:rgb(112,180,215);"/>
    </g>
    <g transform="matrix(0.589281,0,0,0.71875,-824.068,-481.339)">
        <rect x="1398.43" y="768.994" width="157.257" height="19.429" style="fill:rgb(112,180,215);"/>
    </g>
    <g transform="matrix(0.389616,0,0,0.71875,-544.85,-463.93)">
        <rect x="1398.43" y="768.994" width="157.257" height="19.429" style="fill:rgb(112,180,215);"/>
    </g>
    <g transform="matrix(0.278815,0,0,0.71875,-389.903,-445.589)">
        <rect x="1398.43" y="768.994" width="157.257" height="19.429" style="fill:rgb(112,180,215);"/>
    </g>
    <g transform="matrix(0.658115,0,0,0.688524,-918.891,-527.132)">
        <text x="1403.79px" y="779.86px" style="font-family:'Arial-BoldMT', 'Arial', sans-serif;font-weight:700;font-size:12.507px;fill:white;">Css and Scss - 95%</text>
    </g>
    <g transform="matrix(0.658115,0,0,0.688524,-918.891,-509.723)">
        <text x="1403.79px" y="779.86px" style="font-family:'Arial-BoldMT', 'Arial', sans-serif;font-weight:700;font-size:12.507px;fill:white;">Html - 90%</text>
    </g>
    <g transform="matrix(0.658115,0,0,0.688524,-918.891,-490.574)">
        <text x="1403.79px" y="779.86px" style="font-family:'Arial-BoldMT', 'Arial', sans-serif;font-weight:700;font-size:12.507px;fill:white;">Angular - 75%</text>
    </g>
    <g transform="matrix(0.658115,0,0,0.688524,-918.891,-472.916)">
        <text x="1403.79px" y="779.86px" style="font-family:'Arial-BoldMT', 'Arial', sans-serif;font-weight:700;font-size:12.507px;fill:white;">T<tspan x="1410.45px 1417.41px " y="779.86px 779.86px ">yp</tspan>eScript - 60%</text>
    </g>
    <g transform="matrix(0.658115,0,0,0.688524,-918.891,-455.756)">
        <text x="1403.79px" y="779.86px" style="font-family:'Arial-BoldMT', 'Arial', sans-serif;font-weight:700;font-size:12.507px;fill:white;">NodeJS - 55%</text>
    </g>
    <g transform="matrix(0.658115,0,0,0.688524,-918.891,-437.415)">
        <text x="1403.79px" y="779.86px" style="font-family:'Arial-BoldMT', 'Arial', sans-serif;font-weight:700;font-size:12.507px;fill:white;">Unity - 30%</text>
    </g>
    <g transform="matrix(0.658115,0,0,0.688524,-918.891,-419.074)">
        <text x="1403.79px" y="779.86px" style="font-family:'Arial-BoldMT', 'Arial', sans-serif;font-weight:700;font-size:12.507px;fill:white;">C# - 25%</text>
    </g>
</svg>
